# Tiled2Unity generated file. Do not modify by hand.
# Wavefront file for 'peralihan_mesh_0006.obj'

# Vertices (Count = 32)
v -8 -12.8 0
v -9.6 -12.8 0
v -9.6 -11.2 0
v -8 -11.2 0
v -11.2 -12.8 0
v -12.8 -12.8 0
v -12.8 -11.2 0
v -11.2 -11.2 0
v -9.6 -16 0
v -11.2 -16 0
v -11.2 -14.4 0
v -9.6 -14.4 0
v -8 -24 0
v -9.6 -24 0
v -9.6 -22.4 0
v -8 -22.4 0
v -14.4 -24 0
v -16 -24 0
v -16 -22.4 0
v -14.4 -22.4 0
v -16 -24 0
v -17.6 -24 0
v -17.6 -22.4 0
v -16 -22.4 0
v -9.6 -25.6 0
v -11.2 -25.6 0
v -11.2 -24 0
v -9.6 -24 0
v -12.8 -27.2 0
v -14.4 -27.2 0
v -14.4 -25.6 0
v -12.8 -25.6 0

# Texture cooridinates (Count = 4)
vt 0.3333333 0.5
vt 0.6666667 0.5
vt 0.6666667 0.625
vt 0.3333333 0.625

# Normal
vn 0 0 -1

# Mesh description
g peralihan_mesh_0006

# Faces
f 1/1/1 2/2/1 3/3/1 4/4/1
f 5/1/1 6/2/1 7/3/1 8/4/1
f 9/1/1 10/2/1 11/3/1 12/4/1
f 13/1/1 14/2/1 15/3/1 16/4/1
f 17/1/1 18/2/1 19/3/1 20/4/1
f 21/1/1 22/2/1 23/3/1 24/4/1
f 25/1/1 26/2/1 27/3/1 28/4/1
f 29/1/1 30/2/1 31/3/1 32/4/1

