# Tiled2Unity generated file. Do not modify by hand.
# Wavefront file for 'asiatis_mesh_0106.obj'

# Vertices (Count = 140)
v -19.2 -1.6 0
v -20.8 -1.6 0
v -20.8 0 0
v -19.2 0 0
v -17.6 -1.6 0
v -19.2 -1.6 0
v -19.2 0 0
v -17.6 0 0
v -16 -1.6 0
v -17.6 -1.6 0
v -17.6 0 0
v -16 0 0
v -17.6 -3.2 0
v -19.2 -3.2 0
v -19.2 -1.6 0
v -17.6 -1.6 0
v -16 -3.2 0
v -17.6 -3.2 0
v -17.6 -1.6 0
v -16 -1.6 0
v -14.4 -3.2 0
v -16 -3.2 0
v -16 -1.6 0
v -14.4 -1.6 0
v -12.8 -3.2 0
v -14.4 -3.2 0
v -14.4 -1.6 0
v -12.8 -1.6 0
v -16 -4.8 0
v -17.6 -4.8 0
v -17.6 -3.2 0
v -16 -3.2 0
v -14.4 -4.8 0
v -16 -4.8 0
v -16 -3.2 0
v -14.4 -3.2 0
v -12.8 -4.8 0
v -14.4 -4.8 0
v -14.4 -3.2 0
v -12.8 -3.2 0
v -14.4 -6.4 0
v -16 -6.4 0
v -16 -4.8 0
v -14.4 -4.8 0
v -12.8 -6.4 0
v -14.4 -6.4 0
v -14.4 -4.8 0
v -12.8 -4.8 0
v -12.8 -8 0
v -14.4 -8 0
v -14.4 -6.4 0
v -12.8 -6.4 0
v -11.2 -8 0
v -12.8 -8 0
v -12.8 -6.4 0
v -11.2 -6.4 0
v -12.8 -9.6 0
v -14.4 -9.6 0
v -14.4 -8 0
v -12.8 -8 0
v -11.2 -9.6 0
v -12.8 -9.6 0
v -12.8 -8 0
v -11.2 -8 0
v -9.6 -9.6 0
v -11.2 -9.6 0
v -11.2 -8 0
v -9.6 -8 0
v -11.2 -11.2 0
v -12.8 -11.2 0
v -12.8 -9.6 0
v -11.2 -9.6 0
v -9.6 -11.2 0
v -11.2 -11.2 0
v -11.2 -9.6 0
v -9.6 -9.6 0
v -8 -11.2 0
v -9.6 -11.2 0
v -9.6 -9.6 0
v -8 -9.6 0
v -9.6 -12.8 0
v -11.2 -12.8 0
v -11.2 -11.2 0
v -9.6 -11.2 0
v -8 -12.8 0
v -9.6 -12.8 0
v -9.6 -11.2 0
v -8 -11.2 0
v -6.4 -12.8 0
v -8 -12.8 0
v -8 -11.2 0
v -6.4 -11.2 0
v -4.8 -12.8 0
v -6.4 -12.8 0
v -6.4 -11.2 0
v -4.8 -11.2 0
v -3.2 -12.8 0
v -4.8 -12.8 0
v -4.8 -11.2 0
v -3.2 -11.2 0
v 0 -12.8 0
v -1.6 -12.8 0
v -1.6 -11.2 0
v 0 -11.2 0
v -8 -14.4 0
v -9.6 -14.4 0
v -9.6 -12.8 0
v -8 -12.8 0
v -6.4 -14.4 0
v -8 -14.4 0
v -8 -12.8 0
v -6.4 -12.8 0
v -4.8 -14.4 0
v -6.4 -14.4 0
v -6.4 -12.8 0
v -4.8 -12.8 0
v -3.2 -14.4 0
v -4.8 -14.4 0
v -4.8 -12.8 0
v -3.2 -12.8 0
v -1.6 -14.4 0
v -3.2 -14.4 0
v -3.2 -12.8 0
v -1.6 -12.8 0
v 0 -14.4 0
v -1.6 -14.4 0
v -1.6 -12.8 0
v 0 -12.8 0
v -3.2 -16 0
v -4.8 -16 0
v -4.8 -14.4 0
v -3.2 -14.4 0
v -1.6 -16 0
v -3.2 -16 0
v -3.2 -14.4 0
v -1.6 -14.4 0
v 0 -16 0
v -1.6 -16 0
v -1.6 -14.4 0
v 0 -14.4 0

# Texture cooridinates (Count = 10)
vt 0 0
vt 0.3333333 0
vt 0.3333333 0.125
vt 0 0.125
vt 0.3333333 0.5
vt 0.6666667 0.5
vt 0.6666667 0.625
vt 0.3333333 0.625
vt 0.3333333 0.25
vt 0 0.25

# Normal
vn 0 0 -1

# Mesh description
g asiatis_mesh_0106

# Faces
f 1/1/1 2/2/1 3/3/1 4/4/1
f 5/1/1 6/2/1 7/3/1 8/4/1
f 9/5/1 10/6/1 11/7/1 12/8/1
f 13/1/1 14/2/1 15/3/1 16/4/1
f 17/1/1 18/2/1 19/3/1 20/4/1
f 21/5/1 22/6/1 23/7/1 24/8/1
f 25/5/1 26/6/1 27/7/1 28/8/1
f 29/1/1 30/2/1 31/3/1 32/4/1
f 33/1/1 34/2/1 35/3/1 36/4/1
f 37/5/1 38/6/1 39/7/1 40/8/1
f 41/1/1 42/2/1 43/3/1 44/4/1
f 45/1/1 46/2/1 47/3/1 48/4/1
f 49/1/1 50/2/1 51/3/1 52/4/1
f 53/4/1 54/3/1 55/9/1 56/10/1
f 57/1/1 58/2/1 59/3/1 60/4/1
f 61/1/1 62/2/1 63/3/1 64/4/1
f 65/4/1 66/3/1 67/9/1 68/10/1
f 69/1/1 70/2/1 71/3/1 72/4/1
f 73/1/1 74/2/1 75/3/1 76/4/1
f 77/4/1 78/3/1 79/9/1 80/10/1
f 81/1/1 82/2/1 83/3/1 84/4/1
f 85/1/1 86/2/1 87/3/1 88/4/1
f 89/4/1 90/3/1 91/9/1 92/10/1
f 93/4/1 94/3/1 95/9/1 96/10/1
f 97/4/1 98/3/1 99/9/1 100/10/1
f 101/5/1 102/6/1 103/7/1 104/8/1
f 105/1/1 106/2/1 107/3/1 108/4/1
f 109/1/1 110/2/1 111/3/1 112/4/1
f 113/1/1 114/2/1 115/3/1 116/4/1
f 117/1/1 118/2/1 119/3/1 120/4/1
f 121/4/1 122/3/1 123/9/1 124/10/1
f 125/1/1 126/2/1 127/3/1 128/4/1
f 129/1/1 130/2/1 131/3/1 132/4/1
f 133/1/1 134/2/1 135/3/1 136/4/1
f 137/1/1 138/2/1 139/3/1 140/4/1

