# Tiled2Unity generated file. Do not modify by hand.
# Wavefront file for 'asiatis_mesh_0114.obj'

# Vertices (Count = 204)
v -14.4 -1.6 0
v -16 -1.6 0
v -16 0 0
v -14.4 0 0
v -12.8 -1.6 0
v -14.4 -1.6 0
v -14.4 0 0
v -12.8 0 0
v -11.2 -1.6 0
v -12.8 -1.6 0
v -12.8 0 0
v -11.2 0 0
v -9.6 -1.6 0
v -11.2 -1.6 0
v -11.2 0 0
v -9.6 0 0
v -8 -1.6 0
v -9.6 -1.6 0
v -9.6 0 0
v -8 0 0
v -6.4 -1.6 0
v -8 -1.6 0
v -8 0 0
v -6.4 0 0
v -4.8 -1.6 0
v -6.4 -1.6 0
v -6.4 0 0
v -4.8 0 0
v -3.2 -1.6 0
v -4.8 -1.6 0
v -4.8 0 0
v -3.2 0 0
v -1.6 -1.6 0
v -3.2 -1.6 0
v -3.2 0 0
v -1.6 0 0
v 0 -1.6 0
v -1.6 -1.6 0
v -1.6 0 0
v 0 0 0
v -14.4 -3.2 0
v -16 -3.2 0
v -16 -1.6 0
v -14.4 -1.6 0
v -12.8 -3.2 0
v -14.4 -3.2 0
v -14.4 -1.6 0
v -12.8 -1.6 0
v -19.2 -4.8 0
v -20.8 -4.8 0
v -20.8 -3.2 0
v -19.2 -3.2 0
v -17.6 -4.8 0
v -19.2 -4.8 0
v -19.2 -3.2 0
v -17.6 -3.2 0
v -16 -4.8 0
v -17.6 -4.8 0
v -17.6 -3.2 0
v -16 -3.2 0
v -14.4 -4.8 0
v -16 -4.8 0
v -16 -3.2 0
v -14.4 -3.2 0
v -12.8 -4.8 0
v -14.4 -4.8 0
v -14.4 -3.2 0
v -12.8 -3.2 0
v -20.8 -6.4 0
v -22.4 -6.4 0
v -22.4 -4.8 0
v -20.8 -4.8 0
v -19.2 -6.4 0
v -20.8 -6.4 0
v -20.8 -4.8 0
v -19.2 -4.8 0
v -17.6 -6.4 0
v -19.2 -6.4 0
v -19.2 -4.8 0
v -17.6 -4.8 0
v -16 -6.4 0
v -17.6 -6.4 0
v -17.6 -4.8 0
v -16 -4.8 0
v -24 -8 0
v -25.6 -8 0
v -25.6 -6.4 0
v -24 -6.4 0
v -22.4 -8 0
v -24 -8 0
v -24 -6.4 0
v -22.4 -6.4 0
v -20.8 -8 0
v -22.4 -8 0
v -22.4 -6.4 0
v -20.8 -6.4 0
v -19.2 -8 0
v -20.8 -8 0
v -20.8 -6.4 0
v -19.2 -6.4 0
v -24 -9.6 0
v -25.6 -9.6 0
v -25.6 -8 0
v -24 -8 0
v -22.4 -9.6 0
v -24 -9.6 0
v -24 -8 0
v -22.4 -8 0
v -24 -19.2 0
v -25.6 -19.2 0
v -25.6 -17.6 0
v -24 -17.6 0
v -22.4 -19.2 0
v -24 -19.2 0
v -24 -17.6 0
v -22.4 -17.6 0
v -20.8 -19.2 0
v -22.4 -19.2 0
v -22.4 -17.6 0
v -20.8 -17.6 0
v -19.2 -19.2 0
v -20.8 -19.2 0
v -20.8 -17.6 0
v -19.2 -17.6 0
v -17.6 -19.2 0
v -19.2 -19.2 0
v -19.2 -17.6 0
v -17.6 -17.6 0
v -24 -20.8 0
v -25.6 -20.8 0
v -25.6 -19.2 0
v -24 -19.2 0
v -22.4 -20.8 0
v -24 -20.8 0
v -24 -19.2 0
v -22.4 -19.2 0
v -20.8 -20.8 0
v -22.4 -20.8 0
v -22.4 -19.2 0
v -20.8 -19.2 0
v -19.2 -20.8 0
v -20.8 -20.8 0
v -20.8 -19.2 0
v -19.2 -19.2 0
v -17.6 -20.8 0
v -19.2 -20.8 0
v -19.2 -19.2 0
v -17.6 -19.2 0
v -16 -20.8 0
v -17.6 -20.8 0
v -17.6 -19.2 0
v -16 -19.2 0
v -14.4 -20.8 0
v -16 -20.8 0
v -16 -19.2 0
v -14.4 -19.2 0
v -17.6 -22.4 0
v -19.2 -22.4 0
v -19.2 -20.8 0
v -17.6 -20.8 0
v -16 -22.4 0
v -17.6 -22.4 0
v -17.6 -20.8 0
v -16 -20.8 0
v -14.4 -22.4 0
v -16 -22.4 0
v -16 -20.8 0
v -14.4 -20.8 0
v -9.6 -22.4 0
v -11.2 -22.4 0
v -11.2 -20.8 0
v -9.6 -20.8 0
v -14.4 -24 0
v -16 -24 0
v -16 -22.4 0
v -14.4 -22.4 0
v -11.2 -24 0
v -12.8 -24 0
v -12.8 -22.4 0
v -11.2 -22.4 0
v -9.6 -24 0
v -11.2 -24 0
v -11.2 -22.4 0
v -9.6 -22.4 0
v -16 -25.6 0
v -17.6 -25.6 0
v -17.6 -24 0
v -16 -24 0
v -14.4 -25.6 0
v -16 -25.6 0
v -16 -24 0
v -14.4 -24 0
v -12.8 -25.6 0
v -14.4 -25.6 0
v -14.4 -24 0
v -12.8 -24 0
v -11.2 -25.6 0
v -12.8 -25.6 0
v -12.8 -24 0
v -11.2 -24 0
v -8 -25.6 0
v -9.6 -25.6 0
v -9.6 -24 0
v -8 -24 0

# Texture cooridinates (Count = 9)
vt 0 0.125
vt 0.3333333 0.125
vt 0.3333333 0.25
vt 0 0.25
vt 0 0
vt 0.3333333 0
vt 0.6666667 0.125
vt 0.6666667 0.25
vt 0.6666667 0

# Normal
vn 0 0 -1

# Mesh description
g asiatis_mesh_0114

# Faces
f 1/1/1 2/2/1 3/3/1 4/4/1
f 5/1/1 6/2/1 7/3/1 8/4/1
f 9/5/1 10/6/1 11/2/1 12/1/1
f 13/5/1 14/6/1 15/2/1 16/1/1
f 17/5/1 18/6/1 19/2/1 20/1/1
f 21/5/1 22/6/1 23/2/1 24/1/1
f 25/5/1 26/6/1 27/2/1 28/1/1
f 29/5/1 30/6/1 31/2/1 32/1/1
f 33/5/1 34/6/1 35/2/1 36/1/1
f 37/5/1 38/6/1 39/2/1 40/1/1
f 41/1/1 42/2/1 43/3/1 44/4/1
f 45/1/1 46/2/1 47/3/1 48/4/1
f 49/1/1 50/2/1 51/3/1 52/4/1
f 53/1/1 54/2/1 55/3/1 56/4/1
f 57/1/1 58/2/1 59/3/1 60/4/1
f 61/5/1 62/6/1 63/2/1 64/1/1
f 65/5/1 66/6/1 67/2/1 68/1/1
f 69/1/1 70/2/1 71/3/1 72/4/1
f 73/1/1 74/2/1 75/3/1 76/4/1
f 77/5/1 78/6/1 79/2/1 80/1/1
f 81/5/1 82/6/1 83/2/1 84/1/1
f 85/1/1 86/2/1 87/3/1 88/4/1
f 89/1/1 90/2/1 91/3/1 92/4/1
f 93/5/1 94/6/1 95/2/1 96/1/1
f 97/5/1 98/6/1 99/2/1 100/1/1
f 101/5/1 102/6/1 103/2/1 104/1/1
f 105/5/1 106/6/1 107/2/1 108/1/1
f 109/2/1 110/7/1 111/8/1 112/3/1
f 113/2/1 114/7/1 115/8/1 116/3/1
f 117/2/1 118/7/1 119/8/1 120/3/1
f 121/2/1 122/7/1 123/8/1 124/3/1
f 125/2/1 126/7/1 127/8/1 128/3/1
f 129/6/1 130/9/1 131/7/1 132/2/1
f 133/6/1 134/9/1 135/7/1 136/2/1
f 137/6/1 138/9/1 139/7/1 140/2/1
f 141/6/1 142/9/1 143/7/1 144/2/1
f 145/2/1 146/7/1 147/8/1 148/3/1
f 149/2/1 150/7/1 151/8/1 152/3/1
f 153/2/1 154/7/1 155/8/1 156/3/1
f 157/6/1 158/9/1 159/7/1 160/2/1
f 161/6/1 162/9/1 163/7/1 164/2/1
f 165/6/1 166/9/1 167/7/1 168/2/1
f 169/2/1 170/7/1 171/8/1 172/3/1
f 173/1/1 174/2/1 175/3/1 176/4/1
f 177/2/1 178/7/1 179/8/1 180/3/1
f 181/6/1 182/9/1 183/7/1 184/2/1
f 185/5/1 186/6/1 187/2/1 188/1/1
f 189/5/1 190/6/1 191/2/1 192/1/1
f 193/1/1 194/2/1 195/3/1 196/4/1
f 197/6/1 198/9/1 199/7/1 200/2/1
f 201/2/1 202/7/1 203/8/1 204/3/1

