# Tiled2Unity generated file. Do not modify by hand.
# Wavefront file for 'asiatis_mesh_0133.obj'

# Vertices (Count = 232)
v -1.6 -1.6 0
v -3.2 -1.6 0
v -3.2 0 0
v -1.6 0 0
v -3.2 -3.2 0
v -4.8 -3.2 0
v -4.8 -1.6 0
v -3.2 -1.6 0
v -1.6 -3.2 0
v -3.2 -3.2 0
v -3.2 -1.6 0
v -1.6 -1.6 0
v -6.4 -4.8 0
v -8 -4.8 0
v -8 -3.2 0
v -6.4 -3.2 0
v -4.8 -4.8 0
v -6.4 -4.8 0
v -6.4 -3.2 0
v -4.8 -3.2 0
v -3.2 -4.8 0
v -4.8 -4.8 0
v -4.8 -3.2 0
v -3.2 -3.2 0
v -1.6 -4.8 0
v -3.2 -4.8 0
v -3.2 -3.2 0
v -1.6 -3.2 0
v -6.4 -6.4 0
v -8 -6.4 0
v -8 -4.8 0
v -6.4 -4.8 0
v -4.8 -6.4 0
v -6.4 -6.4 0
v -6.4 -4.8 0
v -4.8 -4.8 0
v -3.2 -6.4 0
v -4.8 -6.4 0
v -4.8 -4.8 0
v -3.2 -4.8 0
v -6.4 -8 0
v -8 -8 0
v -8 -6.4 0
v -6.4 -6.4 0
v -1.6 -8 0
v -3.2 -8 0
v -3.2 -6.4 0
v -1.6 -6.4 0
v 0 -8 0
v -1.6 -8 0
v -1.6 -6.4 0
v 0 -6.4 0
v -6.4 -9.6 0
v -8 -9.6 0
v -8 -8 0
v -6.4 -8 0
v -3.2 -9.6 0
v -4.8 -9.6 0
v -4.8 -8 0
v -3.2 -8 0
v -1.6 -9.6 0
v -3.2 -9.6 0
v -3.2 -8 0
v -1.6 -8 0
v 0 -9.6 0
v -1.6 -9.6 0
v -1.6 -8 0
v 0 -8 0
v -6.4 -11.2 0
v -8 -11.2 0
v -8 -9.6 0
v -6.4 -9.6 0
v -4.8 -11.2 0
v -6.4 -11.2 0
v -6.4 -9.6 0
v -4.8 -9.6 0
v -3.2 -11.2 0
v -4.8 -11.2 0
v -4.8 -9.6 0
v -3.2 -9.6 0
v -1.6 -11.2 0
v -3.2 -11.2 0
v -3.2 -9.6 0
v -1.6 -9.6 0
v 0 -11.2 0
v -1.6 -11.2 0
v -1.6 -9.6 0
v 0 -9.6 0
v -4.8 -12.8 0
v -6.4 -12.8 0
v -6.4 -11.2 0
v -4.8 -11.2 0
v -3.2 -12.8 0
v -4.8 -12.8 0
v -4.8 -11.2 0
v -3.2 -11.2 0
v -1.6 -12.8 0
v -3.2 -12.8 0
v -3.2 -11.2 0
v -1.6 -11.2 0
v 0 -12.8 0
v -1.6 -12.8 0
v -1.6 -11.2 0
v 0 -11.2 0
v -9.6 -14.4 0
v -11.2 -14.4 0
v -11.2 -12.8 0
v -9.6 -12.8 0
v -4.8 -14.4 0
v -6.4 -14.4 0
v -6.4 -12.8 0
v -4.8 -12.8 0
v -1.6 -14.4 0
v -3.2 -14.4 0
v -3.2 -12.8 0
v -1.6 -12.8 0
v -11.2 -16 0
v -12.8 -16 0
v -12.8 -14.4 0
v -11.2 -14.4 0
v -9.6 -16 0
v -11.2 -16 0
v -11.2 -14.4 0
v -9.6 -14.4 0
v -4.8 -16 0
v -6.4 -16 0
v -6.4 -14.4 0
v -4.8 -14.4 0
v -12.8 -17.6 0
v -14.4 -17.6 0
v -14.4 -16 0
v -12.8 -16 0
v -11.2 -17.6 0
v -12.8 -17.6 0
v -12.8 -16 0
v -11.2 -16 0
v -9.6 -17.6 0
v -11.2 -17.6 0
v -11.2 -16 0
v -9.6 -16 0
v -14.4 -19.2 0
v -16 -19.2 0
v -16 -17.6 0
v -14.4 -17.6 0
v -12.8 -19.2 0
v -14.4 -19.2 0
v -14.4 -17.6 0
v -12.8 -17.6 0
v -11.2 -19.2 0
v -12.8 -19.2 0
v -12.8 -17.6 0
v -11.2 -17.6 0
v -9.6 -19.2 0
v -11.2 -19.2 0
v -11.2 -17.6 0
v -9.6 -17.6 0
v -8 -19.2 0
v -9.6 -19.2 0
v -9.6 -17.6 0
v -8 -17.6 0
v -16 -20.8 0
v -17.6 -20.8 0
v -17.6 -19.2 0
v -16 -19.2 0
v -14.4 -20.8 0
v -16 -20.8 0
v -16 -19.2 0
v -14.4 -19.2 0
v -12.8 -20.8 0
v -14.4 -20.8 0
v -14.4 -19.2 0
v -12.8 -19.2 0
v -11.2 -20.8 0
v -12.8 -20.8 0
v -12.8 -19.2 0
v -11.2 -19.2 0
v -9.6 -20.8 0
v -11.2 -20.8 0
v -11.2 -19.2 0
v -9.6 -19.2 0
v -8 -20.8 0
v -9.6 -20.8 0
v -9.6 -19.2 0
v -8 -19.2 0
v -24 -22.4 0
v -25.6 -22.4 0
v -25.6 -20.8 0
v -24 -20.8 0
v -22.4 -22.4 0
v -24 -22.4 0
v -24 -20.8 0
v -22.4 -20.8 0
v -20.8 -22.4 0
v -22.4 -22.4 0
v -22.4 -20.8 0
v -20.8 -20.8 0
v -19.2 -22.4 0
v -20.8 -22.4 0
v -20.8 -20.8 0
v -19.2 -20.8 0
v -17.6 -22.4 0
v -19.2 -22.4 0
v -19.2 -20.8 0
v -17.6 -20.8 0
v -16 -22.4 0
v -17.6 -22.4 0
v -17.6 -20.8 0
v -16 -20.8 0
v -14.4 -22.4 0
v -16 -22.4 0
v -16 -20.8 0
v -14.4 -20.8 0
v -24 -24 0
v -25.6 -24 0
v -25.6 -22.4 0
v -24 -22.4 0
v -22.4 -24 0
v -24 -24 0
v -24 -22.4 0
v -22.4 -22.4 0
v -20.8 -24 0
v -22.4 -24 0
v -22.4 -22.4 0
v -20.8 -22.4 0
v -19.2 -24 0
v -20.8 -24 0
v -20.8 -22.4 0
v -19.2 -22.4 0
v -17.6 -24 0
v -19.2 -24 0
v -19.2 -22.4 0
v -17.6 -22.4 0

# Texture cooridinates (Count = 13)
vt 0.3333333 0.125
vt 0.6666667 0.125
vt 0.6666667 0.25
vt 0.3333333 0.25
vt 0.3333333 0
vt 0.6666667 0
vt 0.3333333 0.5
vt 0.6666667 0.5
vt 0.6666667 0.625
vt 0.3333333 0.625
vt 0 0.125
vt 0 0.25
vt 0 0

# Normal
vn 0 0 -1

# Mesh description
g asiatis_mesh_0133

# Faces
f 1/1/1 2/2/1 3/3/1 4/4/1
f 5/1/1 6/2/1 7/3/1 8/4/1
f 9/1/1 10/2/1 11/3/1 12/4/1
f 13/1/1 14/2/1 15/3/1 16/4/1
f 17/1/1 18/2/1 19/3/1 20/4/1
f 21/1/1 22/2/1 23/3/1 24/4/1
f 25/5/1 26/6/1 27/2/1 28/1/1
f 29/1/1 30/2/1 31/3/1 32/4/1
f 33/5/1 34/6/1 35/2/1 36/1/1
f 37/5/1 38/6/1 39/2/1 40/1/1
f 41/1/1 42/2/1 43/3/1 44/4/1
f 45/1/1 46/2/1 47/3/1 48/4/1
f 49/1/1 50/2/1 51/3/1 52/4/1
f 53/5/1 54/6/1 55/2/1 56/1/1
f 57/1/1 58/2/1 59/3/1 60/4/1
f 61/1/1 62/2/1 63/3/1 64/4/1
f 65/5/1 66/6/1 67/2/1 68/1/1
f 69/7/1 70/8/1 71/9/1 72/10/1
f 73/1/1 74/2/1 75/3/1 76/4/1
f 77/1/1 78/2/1 79/3/1 80/4/1
f 81/5/1 82/6/1 83/2/1 84/1/1
f 85/1/1 86/2/1 87/3/1 88/4/1
f 89/1/1 90/2/1 91/3/1 92/4/1
f 93/5/1 94/6/1 95/2/1 96/1/1
f 97/1/1 98/2/1 99/3/1 100/4/1
f 101/5/1 102/6/1 103/2/1 104/1/1
f 105/11/1 106/1/1 107/4/1 108/12/1
f 109/1/1 110/2/1 111/3/1 112/4/1
f 113/5/1 114/6/1 115/2/1 116/1/1
f 117/11/1 118/1/1 119/4/1 120/12/1
f 121/11/1 122/1/1 123/4/1 124/12/1
f 125/5/1 126/6/1 127/2/1 128/1/1
f 129/11/1 130/1/1 131/4/1 132/12/1
f 133/13/1 134/5/1 135/1/1 136/11/1
f 137/13/1 138/5/1 139/1/1 140/11/1
f 141/11/1 142/1/1 143/4/1 144/12/1
f 145/11/1 146/1/1 147/4/1 148/12/1
f 149/11/1 150/1/1 151/4/1 152/12/1
f 153/11/1 154/1/1 155/4/1 156/12/1
f 157/11/1 158/1/1 159/4/1 160/12/1
f 161/11/1 162/1/1 163/4/1 164/12/1
f 165/11/1 166/1/1 167/4/1 168/12/1
f 169/13/1 170/5/1 171/1/1 172/11/1
f 173/13/1 174/5/1 175/1/1 176/11/1
f 177/13/1 178/5/1 179/1/1 180/11/1
f 181/13/1 182/5/1 183/1/1 184/11/1
f 185/11/1 186/1/1 187/4/1 188/12/1
f 189/11/1 190/1/1 191/4/1 192/12/1
f 193/11/1 194/1/1 195/4/1 196/12/1
f 197/11/1 198/1/1 199/4/1 200/12/1
f 201/11/1 202/1/1 203/4/1 204/12/1
f 205/13/1 206/5/1 207/1/1 208/11/1
f 209/13/1 210/5/1 211/1/1 212/11/1
f 213/13/1 214/5/1 215/1/1 216/11/1
f 217/13/1 218/5/1 219/1/1 220/11/1
f 221/13/1 222/5/1 223/1/1 224/11/1
f 225/13/1 226/5/1 227/1/1 228/11/1
f 229/13/1 230/5/1 231/1/1 232/11/1

