# Tiled2Unity generated file. Do not modify by hand.
# Wavefront file for 'asiatis_mesh_0120.obj'

# Vertices (Count = 116)
v -14.4 -1.6 0
v -16 -1.6 0
v -16 0 0
v -14.4 0 0
v -12.8 -1.6 0
v -14.4 -1.6 0
v -14.4 0 0
v -12.8 0 0
v -8 -1.6 0
v -9.6 -1.6 0
v -9.6 0 0
v -8 0 0
v -6.4 -1.6 0
v -8 -1.6 0
v -8 0 0
v -6.4 0 0
v -8 -3.2 0
v -9.6 -3.2 0
v -9.6 -1.6 0
v -8 -1.6 0
v -6.4 -3.2 0
v -8 -3.2 0
v -8 -1.6 0
v -6.4 -1.6 0
v -4.8 -6.4 0
v -6.4 -6.4 0
v -6.4 -4.8 0
v -4.8 -4.8 0
v -4.8 -8 0
v -6.4 -8 0
v -6.4 -6.4 0
v -4.8 -6.4 0
v -3.2 -8 0
v -4.8 -8 0
v -4.8 -6.4 0
v -3.2 -6.4 0
v -4.8 -9.6 0
v -6.4 -9.6 0
v -6.4 -8 0
v -4.8 -8 0
v -3.2 -9.6 0
v -4.8 -9.6 0
v -4.8 -8 0
v -3.2 -8 0
v -3.2 -11.2 0
v -4.8 -11.2 0
v -4.8 -9.6 0
v -3.2 -9.6 0
v -3.2 -12.8 0
v -4.8 -12.8 0
v -4.8 -11.2 0
v -3.2 -11.2 0
v -3.2 -14.4 0
v -4.8 -14.4 0
v -4.8 -12.8 0
v -3.2 -12.8 0
v -3.2 -16 0
v -4.8 -16 0
v -4.8 -14.4 0
v -3.2 -14.4 0
v -4.8 -17.6 0
v -6.4 -17.6 0
v -6.4 -16 0
v -4.8 -16 0
v -6.4 -19.2 0
v -8 -19.2 0
v -8 -17.6 0
v -6.4 -17.6 0
v -4.8 -19.2 0
v -6.4 -19.2 0
v -6.4 -17.6 0
v -4.8 -17.6 0
v -6.4 -20.8 0
v -8 -20.8 0
v -8 -19.2 0
v -6.4 -19.2 0
v -4.8 -20.8 0
v -6.4 -20.8 0
v -6.4 -19.2 0
v -4.8 -19.2 0
v -4.8 -22.4 0
v -6.4 -22.4 0
v -6.4 -20.8 0
v -4.8 -20.8 0
v -9.6 -24 0
v -11.2 -24 0
v -11.2 -22.4 0
v -9.6 -22.4 0
v -8 -24 0
v -9.6 -24 0
v -9.6 -22.4 0
v -8 -22.4 0
v -6.4 -24 0
v -8 -24 0
v -8 -22.4 0
v -6.4 -22.4 0
v -4.8 -24 0
v -6.4 -24 0
v -6.4 -22.4 0
v -4.8 -22.4 0
v -9.6 -25.6 0
v -11.2 -25.6 0
v -11.2 -24 0
v -9.6 -24 0
v -8 -25.6 0
v -9.6 -25.6 0
v -9.6 -24 0
v -8 -24 0
v -6.4 -25.6 0
v -8 -25.6 0
v -8 -24 0
v -6.4 -24 0
v -4.8 -25.6 0
v -6.4 -25.6 0
v -6.4 -24 0
v -4.8 -24 0

# Texture cooridinates (Count = 12)
vt 0.3333333 0.5
vt 0.6666667 0.5
vt 0.6666667 0.625
vt 0.3333333 0.625
vt 0 0
vt 0.3333333 0
vt 0.3333333 0.125
vt 0 0.125
vt 0.6666667 0.125
vt 0.6666667 0.25
vt 0.3333333 0.25
vt 0.6666667 0

# Normal
vn 0 0 -1

# Mesh description
g asiatis_mesh_0120

# Faces
f 1/1/1 2/2/1 3/3/1 4/4/1
f 5/5/1 6/6/1 7/7/1 8/8/1
f 9/7/1 10/9/1 11/10/1 12/11/1
f 13/7/1 14/9/1 15/10/1 16/11/1
f 17/6/1 18/12/1 19/9/1 20/7/1
f 21/6/1 22/12/1 23/9/1 24/7/1
f 25/7/1 26/9/1 27/10/1 28/11/1
f 29/7/1 30/9/1 31/10/1 32/11/1
f 33/7/1 34/9/1 35/10/1 36/11/1
f 37/6/1 38/12/1 39/9/1 40/7/1
f 41/7/1 42/9/1 43/10/1 44/11/1
f 45/7/1 46/9/1 47/10/1 48/11/1
f 49/7/1 50/9/1 51/10/1 52/11/1
f 53/7/1 54/9/1 55/10/1 56/11/1
f 57/6/1 58/12/1 59/9/1 60/7/1
f 61/7/1 62/9/1 63/10/1 64/11/1
f 65/7/1 66/9/1 67/10/1 68/11/1
f 69/7/1 70/9/1 71/10/1 72/11/1
f 73/6/1 74/12/1 75/9/1 76/7/1
f 77/7/1 78/9/1 79/10/1 80/11/1
f 81/7/1 82/9/1 83/10/1 84/11/1
f 85/7/1 86/9/1 87/10/1 88/11/1
f 89/7/1 90/9/1 91/10/1 92/11/1
f 93/7/1 94/9/1 95/10/1 96/11/1
f 97/6/1 98/12/1 99/9/1 100/7/1
f 101/6/1 102/12/1 103/9/1 104/7/1
f 105/6/1 106/12/1 107/9/1 108/7/1
f 109/6/1 110/12/1 111/9/1 112/7/1
f 113/1/1 114/2/1 115/3/1 116/4/1

