# Tiled2Unity generated file. Do not modify by hand.
# Wavefront file for 'asiatis_mesh_0108.obj'

# Vertices (Count = 64)
v -24 -25.6 0
v -25.6 -25.6 0
v -25.6 -24 0
v -24 -24 0
v -22.4 -25.6 0
v -24 -25.6 0
v -24 -24 0
v -22.4 -24 0
v -20.8 -25.6 0
v -22.4 -25.6 0
v -22.4 -24 0
v -20.8 -24 0
v -19.2 -25.6 0
v -20.8 -25.6 0
v -20.8 -24 0
v -19.2 -24 0
v -17.6 -25.6 0
v -19.2 -25.6 0
v -19.2 -24 0
v -17.6 -24 0
v -16 -25.6 0
v -17.6 -25.6 0
v -17.6 -24 0
v -16 -24 0
v -14.4 -25.6 0
v -16 -25.6 0
v -16 -24 0
v -14.4 -24 0
v -12.8 -25.6 0
v -14.4 -25.6 0
v -14.4 -24 0
v -12.8 -24 0
v -11.2 -25.6 0
v -12.8 -25.6 0
v -12.8 -24 0
v -11.2 -24 0
v -9.6 -25.6 0
v -11.2 -25.6 0
v -11.2 -24 0
v -9.6 -24 0
v -8 -25.6 0
v -9.6 -25.6 0
v -9.6 -24 0
v -8 -24 0
v -6.4 -25.6 0
v -8 -25.6 0
v -8 -24 0
v -6.4 -24 0
v -4.8 -25.6 0
v -6.4 -25.6 0
v -6.4 -24 0
v -4.8 -24 0
v -3.2 -25.6 0
v -4.8 -25.6 0
v -4.8 -24 0
v -3.2 -24 0
v -1.6 -25.6 0
v -3.2 -25.6 0
v -3.2 -24 0
v -1.6 -24 0
v 0 -25.6 0
v -1.6 -25.6 0
v -1.6 -24 0
v 0 -24 0

# Texture cooridinates (Count = 4)
vt 0 0.125
vt 0.3333333 0.125
vt 0.3333333 0.25
vt 0 0.25

# Normal
vn 0 0 -1

# Mesh description
g asiatis_mesh_0108

# Faces
f 1/1/1 2/2/1 3/3/1 4/4/1
f 5/1/1 6/2/1 7/3/1 8/4/1
f 9/1/1 10/2/1 11/3/1 12/4/1
f 13/1/1 14/2/1 15/3/1 16/4/1
f 17/1/1 18/2/1 19/3/1 20/4/1
f 21/1/1 22/2/1 23/3/1 24/4/1
f 25/1/1 26/2/1 27/3/1 28/4/1
f 29/1/1 30/2/1 31/3/1 32/4/1
f 33/1/1 34/2/1 35/3/1 36/4/1
f 37/1/1 38/2/1 39/3/1 40/4/1
f 41/1/1 42/2/1 43/3/1 44/4/1
f 45/1/1 46/2/1 47/3/1 48/4/1
f 49/1/1 50/2/1 51/3/1 52/4/1
f 53/1/1 54/2/1 55/3/1 56/4/1
f 57/1/1 58/2/1 59/3/1 60/4/1
f 61/1/1 62/2/1 63/3/1 64/4/1

