# Tiled2Unity generated file. Do not modify by hand.
# Wavefront file for 'asiatis_mesh_0069.obj'

# Vertices (Count = 388)
v -1.6 -9.6 0
v -3.2 -9.6 0
v -3.2 -8 0
v -1.6 -8 0
v 0 -9.6 0
v -1.6 -9.6 0
v -1.6 -8 0
v 0 -8 0
v -11.2 -11.2 0
v -12.8 -11.2 0
v -12.8 -9.6 0
v -11.2 -9.6 0
v -4.8 -11.2 0
v -6.4 -11.2 0
v -6.4 -9.6 0
v -4.8 -9.6 0
v -3.2 -11.2 0
v -4.8 -11.2 0
v -4.8 -9.6 0
v -3.2 -9.6 0
v -14.4 -12.8 0
v -16 -12.8 0
v -16 -11.2 0
v -14.4 -11.2 0
v -12.8 -12.8 0
v -14.4 -12.8 0
v -14.4 -11.2 0
v -12.8 -11.2 0
v -11.2 -12.8 0
v -12.8 -12.8 0
v -12.8 -11.2 0
v -11.2 -11.2 0
v -9.6 -12.8 0
v -11.2 -12.8 0
v -11.2 -11.2 0
v -9.6 -11.2 0
v -6.4 -12.8 0
v -8 -12.8 0
v -8 -11.2 0
v -6.4 -11.2 0
v -16 -14.4 0
v -17.6 -14.4 0
v -17.6 -12.8 0
v -16 -12.8 0
v -14.4 -14.4 0
v -16 -14.4 0
v -16 -12.8 0
v -14.4 -12.8 0
v -12.8 -14.4 0
v -14.4 -14.4 0
v -14.4 -12.8 0
v -12.8 -12.8 0
v -11.2 -14.4 0
v -12.8 -14.4 0
v -12.8 -12.8 0
v -11.2 -12.8 0
v -9.6 -14.4 0
v -11.2 -14.4 0
v -11.2 -12.8 0
v -9.6 -12.8 0
v -8 -14.4 0
v -9.6 -14.4 0
v -9.6 -12.8 0
v -8 -12.8 0
v -14.4 -16 0
v -16 -16 0
v -16 -14.4 0
v -14.4 -14.4 0
v -12.8 -16 0
v -14.4 -16 0
v -14.4 -14.4 0
v -12.8 -14.4 0
v -11.2 -16 0
v -12.8 -16 0
v -12.8 -14.4 0
v -11.2 -14.4 0
v -9.6 -16 0
v -11.2 -16 0
v -11.2 -14.4 0
v -9.6 -14.4 0
v -8 -16 0
v -9.6 -16 0
v -9.6 -14.4 0
v -8 -14.4 0
v -24 -17.6 0
v -25.6 -17.6 0
v -25.6 -16 0
v -24 -16 0
v -22.4 -17.6 0
v -24 -17.6 0
v -24 -16 0
v -22.4 -16 0
v -20.8 -17.6 0
v -22.4 -17.6 0
v -22.4 -16 0
v -20.8 -16 0
v -19.2 -17.6 0
v -20.8 -17.6 0
v -20.8 -16 0
v -19.2 -16 0
v -17.6 -17.6 0
v -19.2 -17.6 0
v -19.2 -16 0
v -17.6 -16 0
v -16 -17.6 0
v -17.6 -17.6 0
v -17.6 -16 0
v -16 -16 0
v -14.4 -17.6 0
v -16 -17.6 0
v -16 -16 0
v -14.4 -16 0
v -12.8 -17.6 0
v -14.4 -17.6 0
v -14.4 -16 0
v -12.8 -16 0
v -11.2 -17.6 0
v -12.8 -17.6 0
v -12.8 -16 0
v -11.2 -16 0
v -9.6 -17.6 0
v -11.2 -17.6 0
v -11.2 -16 0
v -9.6 -16 0
v -12.8 -19.2 0
v -14.4 -19.2 0
v -14.4 -17.6 0
v -12.8 -17.6 0
v -11.2 -19.2 0
v -12.8 -19.2 0
v -12.8 -17.6 0
v -11.2 -17.6 0
v -24 -20.8 0
v -25.6 -20.8 0
v -25.6 -19.2 0
v -24 -19.2 0
v -22.4 -20.8 0
v -24 -20.8 0
v -24 -19.2 0
v -22.4 -19.2 0
v -20.8 -20.8 0
v -22.4 -20.8 0
v -22.4 -19.2 0
v -20.8 -19.2 0
v -19.2 -20.8 0
v -20.8 -20.8 0
v -20.8 -19.2 0
v -19.2 -19.2 0
v -17.6 -20.8 0
v -19.2 -20.8 0
v -19.2 -19.2 0
v -17.6 -19.2 0
v -16 -20.8 0
v -17.6 -20.8 0
v -17.6 -19.2 0
v -16 -19.2 0
v -14.4 -20.8 0
v -16 -20.8 0
v -16 -19.2 0
v -14.4 -19.2 0
v -12.8 -20.8 0
v -14.4 -20.8 0
v -14.4 -19.2 0
v -12.8 -19.2 0
v -11.2 -20.8 0
v -12.8 -20.8 0
v -12.8 -19.2 0
v -11.2 -19.2 0
v -9.6 -20.8 0
v -11.2 -20.8 0
v -11.2 -19.2 0
v -9.6 -19.2 0
v -8 -20.8 0
v -9.6 -20.8 0
v -9.6 -19.2 0
v -8 -19.2 0
v -6.4 -20.8 0
v -8 -20.8 0
v -8 -19.2 0
v -6.4 -19.2 0
v -4.8 -20.8 0
v -6.4 -20.8 0
v -6.4 -19.2 0
v -4.8 -19.2 0
v -3.2 -20.8 0
v -4.8 -20.8 0
v -4.8 -19.2 0
v -3.2 -19.2 0
v -1.6 -20.8 0
v -3.2 -20.8 0
v -3.2 -19.2 0
v -1.6 -19.2 0
v 0 -20.8 0
v -1.6 -20.8 0
v -1.6 -19.2 0
v 0 -19.2 0
v -24 -22.4 0
v -25.6 -22.4 0
v -25.6 -20.8 0
v -24 -20.8 0
v -22.4 -22.4 0
v -24 -22.4 0
v -24 -20.8 0
v -22.4 -20.8 0
v -20.8 -22.4 0
v -22.4 -22.4 0
v -22.4 -20.8 0
v -20.8 -20.8 0
v -19.2 -22.4 0
v -20.8 -22.4 0
v -20.8 -20.8 0
v -19.2 -20.8 0
v -17.6 -22.4 0
v -19.2 -22.4 0
v -19.2 -20.8 0
v -17.6 -20.8 0
v -16 -22.4 0
v -17.6 -22.4 0
v -17.6 -20.8 0
v -16 -20.8 0
v -14.4 -22.4 0
v -16 -22.4 0
v -16 -20.8 0
v -14.4 -20.8 0
v -12.8 -22.4 0
v -14.4 -22.4 0
v -14.4 -20.8 0
v -12.8 -20.8 0
v -11.2 -22.4 0
v -12.8 -22.4 0
v -12.8 -20.8 0
v -11.2 -20.8 0
v -9.6 -22.4 0
v -11.2 -22.4 0
v -11.2 -20.8 0
v -9.6 -20.8 0
v -8 -22.4 0
v -9.6 -22.4 0
v -9.6 -20.8 0
v -8 -20.8 0
v -6.4 -22.4 0
v -8 -22.4 0
v -8 -20.8 0
v -6.4 -20.8 0
v -4.8 -22.4 0
v -6.4 -22.4 0
v -6.4 -20.8 0
v -4.8 -20.8 0
v -3.2 -22.4 0
v -4.8 -22.4 0
v -4.8 -20.8 0
v -3.2 -20.8 0
v -1.6 -22.4 0
v -3.2 -22.4 0
v -3.2 -20.8 0
v -1.6 -20.8 0
v 0 -22.4 0
v -1.6 -22.4 0
v -1.6 -20.8 0
v 0 -20.8 0
v -24 -24 0
v -25.6 -24 0
v -25.6 -22.4 0
v -24 -22.4 0
v -22.4 -24 0
v -24 -24 0
v -24 -22.4 0
v -22.4 -22.4 0
v -20.8 -24 0
v -22.4 -24 0
v -22.4 -22.4 0
v -20.8 -22.4 0
v -19.2 -24 0
v -20.8 -24 0
v -20.8 -22.4 0
v -19.2 -22.4 0
v -17.6 -24 0
v -19.2 -24 0
v -19.2 -22.4 0
v -17.6 -22.4 0
v -16 -24 0
v -17.6 -24 0
v -17.6 -22.4 0
v -16 -22.4 0
v -14.4 -24 0
v -16 -24 0
v -16 -22.4 0
v -14.4 -22.4 0
v -12.8 -24 0
v -14.4 -24 0
v -14.4 -22.4 0
v -12.8 -22.4 0
v -11.2 -24 0
v -12.8 -24 0
v -12.8 -22.4 0
v -11.2 -22.4 0
v -9.6 -24 0
v -11.2 -24 0
v -11.2 -22.4 0
v -9.6 -22.4 0
v -8 -24 0
v -9.6 -24 0
v -9.6 -22.4 0
v -8 -22.4 0
v -6.4 -24 0
v -8 -24 0
v -8 -22.4 0
v -6.4 -22.4 0
v -4.8 -24 0
v -6.4 -24 0
v -6.4 -22.4 0
v -4.8 -22.4 0
v -3.2 -24 0
v -4.8 -24 0
v -4.8 -22.4 0
v -3.2 -22.4 0
v -1.6 -24 0
v -3.2 -24 0
v -3.2 -22.4 0
v -1.6 -22.4 0
v 0 -24 0
v -1.6 -24 0
v -1.6 -22.4 0
v 0 -22.4 0
v -24 -25.6 0
v -25.6 -25.6 0
v -25.6 -24 0
v -24 -24 0
v -22.4 -25.6 0
v -24 -25.6 0
v -24 -24 0
v -22.4 -24 0
v -20.8 -25.6 0
v -22.4 -25.6 0
v -22.4 -24 0
v -20.8 -24 0
v -19.2 -25.6 0
v -20.8 -25.6 0
v -20.8 -24 0
v -19.2 -24 0
v -17.6 -25.6 0
v -19.2 -25.6 0
v -19.2 -24 0
v -17.6 -24 0
v -16 -25.6 0
v -17.6 -25.6 0
v -17.6 -24 0
v -16 -24 0
v -14.4 -25.6 0
v -16 -25.6 0
v -16 -24 0
v -14.4 -24 0
v -12.8 -25.6 0
v -14.4 -25.6 0
v -14.4 -24 0
v -12.8 -24 0
v -11.2 -25.6 0
v -12.8 -25.6 0
v -12.8 -24 0
v -11.2 -24 0
v -9.6 -25.6 0
v -11.2 -25.6 0
v -11.2 -24 0
v -9.6 -24 0
v -8 -25.6 0
v -9.6 -25.6 0
v -9.6 -24 0
v -8 -24 0
v -6.4 -25.6 0
v -8 -25.6 0
v -8 -24 0
v -6.4 -24 0
v -4.8 -25.6 0
v -6.4 -25.6 0
v -6.4 -24 0
v -4.8 -24 0
v -3.2 -25.6 0
v -4.8 -25.6 0
v -4.8 -24 0
v -3.2 -24 0
v -1.6 -25.6 0
v -3.2 -25.6 0
v -3.2 -24 0
v -1.6 -24 0
v 0 -25.6 0
v -1.6 -25.6 0
v -1.6 -24 0
v 0 -24 0

# Texture cooridinates (Count = 9)
vt 0.3333333 0.5
vt 0.6666667 0.5
vt 0.6666667 0.625
vt 0.3333333 0.625
vt 0.3333333 0.375
vt 0.6666667 0.375
vt 0.6666667 0.25
vt 1 0.25
vt 1 0.375

# Normal
vn 0 0 -1

# Mesh description
g asiatis_mesh_0069

# Faces
f 1/1/1 2/2/1 3/3/1 4/4/1
f 5/1/1 6/2/1 7/3/1 8/4/1
f 9/1/1 10/2/1 11/3/1 12/4/1
f 13/1/1 14/2/1 15/3/1 16/4/1
f 17/1/1 18/2/1 19/3/1 20/4/1
f 21/1/1 22/2/1 23/3/1 24/4/1
f 25/1/1 26/2/1 27/3/1 28/4/1
f 29/1/1 30/2/1 31/3/1 32/4/1
f 33/1/1 34/2/1 35/3/1 36/4/1
f 37/1/1 38/2/1 39/3/1 40/4/1
f 41/1/1 42/2/1 43/3/1 44/4/1
f 45/1/1 46/2/1 47/3/1 48/4/1
f 49/1/1 50/2/1 51/3/1 52/4/1
f 53/1/1 54/2/1 55/3/1 56/4/1
f 57/1/1 58/2/1 59/3/1 60/4/1
f 61/1/1 62/2/1 63/3/1 64/4/1
f 65/1/1 66/2/1 67/3/1 68/4/1
f 69/1/1 70/2/1 71/3/1 72/4/1
f 73/1/1 74/2/1 75/3/1 76/4/1
f 77/1/1 78/2/1 79/3/1 80/4/1
f 81/1/1 82/2/1 83/3/1 84/4/1
f 85/1/1 86/2/1 87/3/1 88/4/1
f 89/1/1 90/2/1 91/3/1 92/4/1
f 93/1/1 94/2/1 95/3/1 96/4/1
f 97/1/1 98/2/1 99/3/1 100/4/1
f 101/1/1 102/2/1 103/3/1 104/4/1
f 105/1/1 106/2/1 107/3/1 108/4/1
f 109/1/1 110/2/1 111/3/1 112/4/1
f 113/1/1 114/2/1 115/3/1 116/4/1
f 117/1/1 118/2/1 119/3/1 120/4/1
f 121/1/1 122/2/1 123/3/1 124/4/1
f 125/1/1 126/2/1 127/3/1 128/4/1
f 129/1/1 130/2/1 131/3/1 132/4/1
f 133/5/1 134/6/1 135/2/1 136/1/1
f 137/5/1 138/6/1 139/2/1 140/1/1
f 141/5/1 142/6/1 143/2/1 144/1/1
f 145/5/1 146/6/1 147/2/1 148/1/1
f 149/5/1 150/6/1 151/2/1 152/1/1
f 153/5/1 154/6/1 155/2/1 156/1/1
f 157/5/1 158/6/1 159/2/1 160/1/1
f 161/5/1 162/6/1 163/2/1 164/1/1
f 165/5/1 166/6/1 167/2/1 168/1/1
f 169/5/1 170/6/1 171/2/1 172/1/1
f 173/5/1 174/6/1 175/2/1 176/1/1
f 177/5/1 178/6/1 179/2/1 180/1/1
f 181/5/1 182/6/1 183/2/1 184/1/1
f 185/5/1 186/6/1 187/2/1 188/1/1
f 189/5/1 190/6/1 191/2/1 192/1/1
f 193/5/1 194/6/1 195/2/1 196/1/1
f 197/7/1 198/8/1 199/9/1 200/6/1
f 201/7/1 202/8/1 203/9/1 204/6/1
f 205/7/1 206/8/1 207/9/1 208/6/1
f 209/7/1 210/8/1 211/9/1 212/6/1
f 213/7/1 214/8/1 215/9/1 216/6/1
f 217/7/1 218/8/1 219/9/1 220/6/1
f 221/7/1 222/8/1 223/9/1 224/6/1
f 225/7/1 226/8/1 227/9/1 228/6/1
f 229/7/1 230/8/1 231/9/1 232/6/1
f 233/7/1 234/8/1 235/9/1 236/6/1
f 237/7/1 238/8/1 239/9/1 240/6/1
f 241/7/1 242/8/1 243/9/1 244/6/1
f 245/7/1 246/8/1 247/9/1 248/6/1
f 249/7/1 250/8/1 251/9/1 252/6/1
f 253/7/1 254/8/1 255/9/1 256/6/1
f 257/7/1 258/8/1 259/9/1 260/6/1
f 261/7/1 262/8/1 263/9/1 264/6/1
f 265/7/1 266/8/1 267/9/1 268/6/1
f 269/7/1 270/8/1 271/9/1 272/6/1
f 273/7/1 274/8/1 275/9/1 276/6/1
f 277/7/1 278/8/1 279/9/1 280/6/1
f 281/7/1 282/8/1 283/9/1 284/6/1
f 285/7/1 286/8/1 287/9/1 288/6/1
f 289/7/1 290/8/1 291/9/1 292/6/1
f 293/7/1 294/8/1 295/9/1 296/6/1
f 297/7/1 298/8/1 299/9/1 300/6/1
f 301/7/1 302/8/1 303/9/1 304/6/1
f 305/7/1 306/8/1 307/9/1 308/6/1
f 309/7/1 310/8/1 311/9/1 312/6/1
f 313/7/1 314/8/1 315/9/1 316/6/1
f 317/7/1 318/8/1 319/9/1 320/6/1
f 321/7/1 322/8/1 323/9/1 324/6/1
f 325/7/1 326/8/1 327/9/1 328/6/1
f 329/7/1 330/8/1 331/9/1 332/6/1
f 333/7/1 334/8/1 335/9/1 336/6/1
f 337/7/1 338/8/1 339/9/1 340/6/1
f 341/7/1 342/8/1 343/9/1 344/6/1
f 345/7/1 346/8/1 347/9/1 348/6/1
f 349/7/1 350/8/1 351/9/1 352/6/1
f 353/7/1 354/8/1 355/9/1 356/6/1
f 357/7/1 358/8/1 359/9/1 360/6/1
f 361/7/1 362/8/1 363/9/1 364/6/1
f 365/7/1 366/8/1 367/9/1 368/6/1
f 369/7/1 370/8/1 371/9/1 372/6/1
f 373/7/1 374/8/1 375/9/1 376/6/1
f 377/7/1 378/8/1 379/9/1 380/6/1
f 381/7/1 382/8/1 383/9/1 384/6/1
f 385/7/1 386/8/1 387/9/1 388/6/1

