# Tiled2Unity generated file. Do not modify by hand.
# Wavefront file for 'asiatis_mesh_0049.obj'

# Vertices (Count = 320)
v -14.4 -1.6 0
v -16 -1.6 0
v -16 0 0
v -14.4 0 0
v -12.8 -1.6 0
v -14.4 -1.6 0
v -14.4 0 0
v -12.8 0 0
v -11.2 -1.6 0
v -12.8 -1.6 0
v -12.8 0 0
v -11.2 0 0
v -9.6 -1.6 0
v -11.2 -1.6 0
v -11.2 0 0
v -9.6 0 0
v -8 -1.6 0
v -9.6 -1.6 0
v -9.6 0 0
v -8 0 0
v -6.4 -1.6 0
v -8 -1.6 0
v -8 0 0
v -6.4 0 0
v -4.8 -1.6 0
v -6.4 -1.6 0
v -6.4 0 0
v -4.8 0 0
v -3.2 -1.6 0
v -4.8 -1.6 0
v -4.8 0 0
v -3.2 0 0
v -1.6 -1.6 0
v -3.2 -1.6 0
v -3.2 0 0
v -1.6 0 0
v 0 -1.6 0
v -1.6 -1.6 0
v -1.6 0 0
v 0 0 0
v -14.4 -3.2 0
v -16 -3.2 0
v -16 -1.6 0
v -14.4 -1.6 0
v -12.8 -3.2 0
v -14.4 -3.2 0
v -14.4 -1.6 0
v -12.8 -1.6 0
v -11.2 -3.2 0
v -12.8 -3.2 0
v -12.8 -1.6 0
v -11.2 -1.6 0
v -9.6 -3.2 0
v -11.2 -3.2 0
v -11.2 -1.6 0
v -9.6 -1.6 0
v -8 -3.2 0
v -9.6 -3.2 0
v -9.6 -1.6 0
v -8 -1.6 0
v -14.4 -4.8 0
v -16 -4.8 0
v -16 -3.2 0
v -14.4 -3.2 0
v -12.8 -4.8 0
v -14.4 -4.8 0
v -14.4 -3.2 0
v -12.8 -3.2 0
v -11.2 -4.8 0
v -12.8 -4.8 0
v -12.8 -3.2 0
v -11.2 -3.2 0
v -9.6 -4.8 0
v -11.2 -4.8 0
v -11.2 -3.2 0
v -9.6 -3.2 0
v -14.4 -6.4 0
v -16 -6.4 0
v -16 -4.8 0
v -14.4 -4.8 0
v -12.8 -6.4 0
v -14.4 -6.4 0
v -14.4 -4.8 0
v -12.8 -4.8 0
v -11.2 -6.4 0
v -12.8 -6.4 0
v -12.8 -4.8 0
v -11.2 -4.8 0
v -9.6 -6.4 0
v -11.2 -6.4 0
v -11.2 -4.8 0
v -9.6 -4.8 0
v -14.4 -8 0
v -16 -8 0
v -16 -6.4 0
v -14.4 -6.4 0
v -12.8 -8 0
v -14.4 -8 0
v -14.4 -6.4 0
v -12.8 -6.4 0
v -11.2 -8 0
v -12.8 -8 0
v -12.8 -6.4 0
v -11.2 -6.4 0
v -9.6 -8 0
v -11.2 -8 0
v -11.2 -6.4 0
v -9.6 -6.4 0
v -14.4 -9.6 0
v -16 -9.6 0
v -16 -8 0
v -14.4 -8 0
v -12.8 -9.6 0
v -14.4 -9.6 0
v -14.4 -8 0
v -12.8 -8 0
v -11.2 -9.6 0
v -12.8 -9.6 0
v -12.8 -8 0
v -11.2 -8 0
v -9.6 -9.6 0
v -11.2 -9.6 0
v -11.2 -8 0
v -9.6 -8 0
v -19.2 -11.2 0
v -20.8 -11.2 0
v -20.8 -9.6 0
v -19.2 -9.6 0
v -17.6 -11.2 0
v -19.2 -11.2 0
v -19.2 -9.6 0
v -17.6 -9.6 0
v -16 -11.2 0
v -17.6 -11.2 0
v -17.6 -9.6 0
v -16 -9.6 0
v -14.4 -11.2 0
v -16 -11.2 0
v -16 -9.6 0
v -14.4 -9.6 0
v -12.8 -11.2 0
v -14.4 -11.2 0
v -14.4 -9.6 0
v -12.8 -9.6 0
v -11.2 -11.2 0
v -12.8 -11.2 0
v -12.8 -9.6 0
v -11.2 -9.6 0
v -9.6 -11.2 0
v -11.2 -11.2 0
v -11.2 -9.6 0
v -9.6 -9.6 0
v -8 -11.2 0
v -9.6 -11.2 0
v -9.6 -9.6 0
v -8 -9.6 0
v -19.2 -12.8 0
v -20.8 -12.8 0
v -20.8 -11.2 0
v -19.2 -11.2 0
v -17.6 -12.8 0
v -19.2 -12.8 0
v -19.2 -11.2 0
v -17.6 -11.2 0
v -12.8 -12.8 0
v -14.4 -12.8 0
v -14.4 -11.2 0
v -12.8 -11.2 0
v -11.2 -12.8 0
v -12.8 -12.8 0
v -12.8 -11.2 0
v -11.2 -11.2 0
v -9.6 -12.8 0
v -11.2 -12.8 0
v -11.2 -11.2 0
v -9.6 -11.2 0
v -20.8 -14.4 0
v -22.4 -14.4 0
v -22.4 -12.8 0
v -20.8 -12.8 0
v -19.2 -14.4 0
v -20.8 -14.4 0
v -20.8 -12.8 0
v -19.2 -12.8 0
v -17.6 -14.4 0
v -19.2 -14.4 0
v -19.2 -12.8 0
v -17.6 -12.8 0
v -16 -14.4 0
v -17.6 -14.4 0
v -17.6 -12.8 0
v -16 -12.8 0
v -14.4 -14.4 0
v -16 -14.4 0
v -16 -12.8 0
v -14.4 -12.8 0
v -22.4 -16 0
v -24 -16 0
v -24 -14.4 0
v -22.4 -14.4 0
v -20.8 -16 0
v -22.4 -16 0
v -22.4 -14.4 0
v -20.8 -14.4 0
v -19.2 -16 0
v -20.8 -16 0
v -20.8 -14.4 0
v -19.2 -14.4 0
v -17.6 -16 0
v -19.2 -16 0
v -19.2 -14.4 0
v -17.6 -14.4 0
v -16 -16 0
v -17.6 -16 0
v -17.6 -14.4 0
v -16 -14.4 0
v -14.4 -16 0
v -16 -16 0
v -16 -14.4 0
v -14.4 -14.4 0
v -12.8 -16 0
v -14.4 -16 0
v -14.4 -14.4 0
v -12.8 -14.4 0
v -17.6 -17.6 0
v -19.2 -17.6 0
v -19.2 -16 0
v -17.6 -16 0
v -16 -17.6 0
v -17.6 -17.6 0
v -17.6 -16 0
v -16 -16 0
v -14.4 -17.6 0
v -16 -17.6 0
v -16 -16 0
v -14.4 -16 0
v -12.8 -17.6 0
v -14.4 -17.6 0
v -14.4 -16 0
v -12.8 -16 0
v -17.6 -19.2 0
v -19.2 -19.2 0
v -19.2 -17.6 0
v -17.6 -17.6 0
v -16 -19.2 0
v -17.6 -19.2 0
v -17.6 -17.6 0
v -16 -17.6 0
v -14.4 -19.2 0
v -16 -19.2 0
v -16 -17.6 0
v -14.4 -17.6 0
v -12.8 -19.2 0
v -14.4 -19.2 0
v -14.4 -17.6 0
v -12.8 -17.6 0
v -17.6 -20.8 0
v -19.2 -20.8 0
v -19.2 -19.2 0
v -17.6 -19.2 0
v -16 -20.8 0
v -17.6 -20.8 0
v -17.6 -19.2 0
v -16 -19.2 0
v -14.4 -20.8 0
v -16 -20.8 0
v -16 -19.2 0
v -14.4 -19.2 0
v -12.8 -20.8 0
v -14.4 -20.8 0
v -14.4 -19.2 0
v -12.8 -19.2 0
v -17.6 -22.4 0
v -19.2 -22.4 0
v -19.2 -20.8 0
v -17.6 -20.8 0
v -16 -22.4 0
v -17.6 -22.4 0
v -17.6 -20.8 0
v -16 -20.8 0
v -14.4 -22.4 0
v -16 -22.4 0
v -16 -20.8 0
v -14.4 -20.8 0
v -12.8 -22.4 0
v -14.4 -22.4 0
v -14.4 -20.8 0
v -12.8 -20.8 0
v -17.6 -24 0
v -19.2 -24 0
v -19.2 -22.4 0
v -17.6 -22.4 0
v -16 -24 0
v -17.6 -24 0
v -17.6 -22.4 0
v -16 -22.4 0
v -14.4 -24 0
v -16 -24 0
v -16 -22.4 0
v -14.4 -22.4 0
v -12.8 -24 0
v -14.4 -24 0
v -14.4 -22.4 0
v -12.8 -22.4 0
v -17.6 -25.6 0
v -19.2 -25.6 0
v -19.2 -24 0
v -17.6 -24 0
v -16 -25.6 0
v -17.6 -25.6 0
v -17.6 -24 0
v -16 -24 0
v -14.4 -25.6 0
v -16 -25.6 0
v -16 -24 0
v -14.4 -24 0
v -12.8 -25.6 0
v -14.4 -25.6 0
v -14.4 -24 0
v -12.8 -24 0

# Texture cooridinates (Count = 22)
vt 0 0.5
vt 0.3333333 0.5
vt 0.3333333 0.625
vt 0 0.625
vt 0.6666667 0.25
vt 1 0.25
vt 1 0.375
vt 0.6666667 0.375
vt 0.6666667 0.625
vt 1 0.625
vt 1 0.75
vt 0.6666667 0.75
vt 0.3333333 0.75
vt 0.6666667 0.5
vt 1 0.5
vt 1 0.875
vt 0.6666667 0.875
vt 0.3333333 0.875
vt 1 1
vt 0.6666667 1
vt 0.3333333 0.375
vt 0.3333333 1

# Normal
vn 0 0 -1

# Mesh description
g asiatis_mesh_0049

# Faces
f 1/1/1 2/2/1 3/3/1 4/4/1
f 5/5/1 6/6/1 7/7/1 8/8/1
f 9/5/1 10/6/1 11/7/1 12/8/1
f 13/9/1 14/10/1 15/11/1 16/12/1
f 17/3/1 18/9/1 19/12/1 20/13/1
f 21/3/1 22/9/1 23/12/1 24/13/1
f 25/3/1 26/9/1 27/12/1 28/13/1
f 29/3/1 30/9/1 31/12/1 32/13/1
f 33/3/1 34/9/1 35/12/1 36/13/1
f 37/3/1 38/9/1 39/12/1 40/13/1
f 41/1/1 42/2/1 43/3/1 44/4/1
f 45/5/1 46/6/1 47/7/1 48/8/1
f 49/5/1 50/6/1 51/7/1 52/8/1
f 53/14/1 54/15/1 55/10/1 56/9/1
f 57/2/1 58/14/1 59/9/1 60/3/1
f 61/1/1 62/2/1 63/3/1 64/4/1
f 65/5/1 66/6/1 67/7/1 68/8/1
f 69/5/1 70/6/1 71/7/1 72/8/1
f 73/14/1 74/15/1 75/10/1 76/9/1
f 77/1/1 78/2/1 79/3/1 80/4/1
f 81/5/1 82/6/1 83/7/1 84/8/1
f 85/5/1 86/6/1 87/7/1 88/8/1
f 89/14/1 90/15/1 91/10/1 92/9/1
f 93/1/1 94/2/1 95/3/1 96/4/1
f 97/5/1 98/6/1 99/7/1 100/8/1
f 101/5/1 102/6/1 103/7/1 104/8/1
f 105/14/1 106/15/1 107/10/1 108/9/1
f 109/12/1 110/11/1 111/16/1 112/17/1
f 113/3/1 114/9/1 115/12/1 116/13/1
f 117/3/1 118/9/1 119/12/1 120/13/1
f 121/13/1 122/12/1 123/17/1 124/18/1
f 125/2/1 126/14/1 127/9/1 128/3/1
f 129/2/1 130/14/1 131/9/1 132/3/1
f 133/2/1 134/14/1 135/9/1 136/3/1
f 137/2/1 138/14/1 139/9/1 140/3/1
f 141/2/1 142/14/1 143/9/1 144/3/1
f 145/2/1 146/14/1 147/9/1 148/3/1
f 149/2/1 150/14/1 151/9/1 152/3/1
f 153/2/1 154/14/1 155/9/1 156/3/1
f 157/2/1 158/14/1 159/9/1 160/3/1
f 161/2/1 162/14/1 163/9/1 164/3/1
f 165/2/1 166/14/1 167/9/1 168/3/1
f 169/2/1 170/14/1 171/9/1 172/3/1
f 173/2/1 174/14/1 175/9/1 176/3/1
f 177/2/1 178/14/1 179/9/1 180/3/1
f 181/2/1 182/14/1 183/9/1 184/3/1
f 185/2/1 186/14/1 187/9/1 188/3/1
f 189/2/1 190/14/1 191/9/1 192/3/1
f 193/2/1 194/14/1 195/9/1 196/3/1
f 197/2/1 198/14/1 199/9/1 200/3/1
f 201/2/1 202/14/1 203/9/1 204/3/1
f 205/2/1 206/14/1 207/9/1 208/3/1
f 209/17/1 210/16/1 211/19/1 212/20/1
f 213/21/1 214/8/1 215/14/1 216/2/1
f 217/21/1 218/8/1 219/14/1 220/2/1
f 221/18/1 222/17/1 223/20/1 224/22/1
f 225/1/1 226/2/1 227/3/1 228/4/1
f 229/5/1 230/6/1 231/7/1 232/8/1
f 233/5/1 234/6/1 235/7/1 236/8/1
f 237/14/1 238/15/1 239/10/1 240/9/1
f 241/1/1 242/2/1 243/3/1 244/4/1
f 245/5/1 246/6/1 247/7/1 248/8/1
f 249/5/1 250/6/1 251/7/1 252/8/1
f 253/14/1 254/15/1 255/10/1 256/9/1
f 257/1/1 258/2/1 259/3/1 260/4/1
f 261/5/1 262/6/1 263/7/1 264/8/1
f 265/5/1 266/6/1 267/7/1 268/8/1
f 269/14/1 270/15/1 271/10/1 272/9/1
f 273/1/1 274/2/1 275/3/1 276/4/1
f 277/5/1 278/6/1 279/7/1 280/8/1
f 281/5/1 282/6/1 283/7/1 284/8/1
f 285/14/1 286/15/1 287/10/1 288/9/1
f 289/1/1 290/2/1 291/3/1 292/4/1
f 293/5/1 294/6/1 295/7/1 296/8/1
f 297/5/1 298/6/1 299/7/1 300/8/1
f 301/14/1 302/15/1 303/10/1 304/9/1
f 305/1/1 306/2/1 307/3/1 308/4/1
f 309/5/1 310/6/1 311/7/1 312/8/1
f 313/5/1 314/6/1 315/7/1 316/8/1
f 317/14/1 318/15/1 319/10/1 320/9/1

