# Tiled2Unity generated file. Do not modify by hand.
# Wavefront file for 'asiatis_mesh_0131.obj'

# Vertices (Count = 192)
v -17.6 -1.6 0
v -19.2 -1.6 0
v -19.2 0 0
v -17.6 0 0
v -16 -1.6 0
v -17.6 -1.6 0
v -17.6 0 0
v -16 0 0
v -4.8 -1.6 0
v -6.4 -1.6 0
v -6.4 0 0
v -4.8 0 0
v -3.2 -1.6 0
v -4.8 -1.6 0
v -4.8 0 0
v -3.2 0 0
v -1.6 -1.6 0
v -3.2 -1.6 0
v -3.2 0 0
v -1.6 0 0
v 0 -1.6 0
v -1.6 -1.6 0
v -1.6 0 0
v 0 0 0
v -17.6 -3.2 0
v -19.2 -3.2 0
v -19.2 -1.6 0
v -17.6 -1.6 0
v -6.4 -3.2 0
v -8 -3.2 0
v -8 -1.6 0
v -6.4 -1.6 0
v -4.8 -3.2 0
v -6.4 -3.2 0
v -6.4 -1.6 0
v -4.8 -1.6 0
v -3.2 -3.2 0
v -4.8 -3.2 0
v -4.8 -1.6 0
v -3.2 -1.6 0
v -1.6 -3.2 0
v -3.2 -3.2 0
v -3.2 -1.6 0
v -1.6 -1.6 0
v 0 -3.2 0
v -1.6 -3.2 0
v -1.6 -1.6 0
v 0 -1.6 0
v -17.6 -4.8 0
v -19.2 -4.8 0
v -19.2 -3.2 0
v -17.6 -3.2 0
v -6.4 -4.8 0
v -8 -4.8 0
v -8 -3.2 0
v -6.4 -3.2 0
v -17.6 -6.4 0
v -19.2 -6.4 0
v -19.2 -4.8 0
v -17.6 -4.8 0
v -6.4 -6.4 0
v -8 -6.4 0
v -8 -4.8 0
v -6.4 -4.8 0
v -19.2 -8 0
v -20.8 -8 0
v -20.8 -6.4 0
v -19.2 -6.4 0
v -6.4 -8 0
v -8 -8 0
v -8 -6.4 0
v -6.4 -6.4 0
v -4.8 -8 0
v -6.4 -8 0
v -6.4 -6.4 0
v -4.8 -6.4 0
v -3.2 -8 0
v -4.8 -8 0
v -4.8 -6.4 0
v -3.2 -6.4 0
v -1.6 -8 0
v -3.2 -8 0
v -3.2 -6.4 0
v -1.6 -6.4 0
v 0 -8 0
v -1.6 -8 0
v -1.6 -6.4 0
v 0 -6.4 0
v -19.2 -9.6 0
v -20.8 -9.6 0
v -20.8 -8 0
v -19.2 -8 0
v -6.4 -9.6 0
v -8 -9.6 0
v -8 -8 0
v -6.4 -8 0
v -4.8 -9.6 0
v -6.4 -9.6 0
v -6.4 -8 0
v -4.8 -8 0
v -3.2 -9.6 0
v -4.8 -9.6 0
v -4.8 -8 0
v -3.2 -8 0
v -1.6 -9.6 0
v -3.2 -9.6 0
v -3.2 -8 0
v -1.6 -8 0
v 0 -9.6 0
v -1.6 -9.6 0
v -1.6 -8 0
v 0 -8 0
v -19.2 -11.2 0
v -20.8 -11.2 0
v -20.8 -9.6 0
v -19.2 -9.6 0
v -6.4 -11.2 0
v -8 -11.2 0
v -8 -9.6 0
v -6.4 -9.6 0
v -4.8 -11.2 0
v -6.4 -11.2 0
v -6.4 -9.6 0
v -4.8 -9.6 0
v -19.2 -12.8 0
v -20.8 -12.8 0
v -20.8 -11.2 0
v -19.2 -11.2 0
v -19.2 -14.4 0
v -20.8 -14.4 0
v -20.8 -12.8 0
v -19.2 -12.8 0
v -19.2 -16 0
v -20.8 -16 0
v -20.8 -14.4 0
v -19.2 -14.4 0
v -3.2 -19.2 0
v -4.8 -19.2 0
v -4.8 -17.6 0
v -3.2 -17.6 0
v -1.6 -19.2 0
v -3.2 -19.2 0
v -3.2 -17.6 0
v -1.6 -17.6 0
v 0 -19.2 0
v -1.6 -19.2 0
v -1.6 -17.6 0
v 0 -17.6 0
v -3.2 -20.8 0
v -4.8 -20.8 0
v -4.8 -19.2 0
v -3.2 -19.2 0
v -1.6 -20.8 0
v -3.2 -20.8 0
v -3.2 -19.2 0
v -1.6 -19.2 0
v 0 -20.8 0
v -1.6 -20.8 0
v -1.6 -19.2 0
v 0 -19.2 0
v -19.2 -22.4 0
v -20.8 -22.4 0
v -20.8 -20.8 0
v -19.2 -20.8 0
v -3.2 -22.4 0
v -4.8 -22.4 0
v -4.8 -20.8 0
v -3.2 -20.8 0
v -1.6 -22.4 0
v -3.2 -22.4 0
v -3.2 -20.8 0
v -1.6 -20.8 0
v -19.2 -24 0
v -20.8 -24 0
v -20.8 -22.4 0
v -19.2 -22.4 0
v -3.2 -24 0
v -4.8 -24 0
v -4.8 -22.4 0
v -3.2 -22.4 0
v -1.6 -24 0
v -3.2 -24 0
v -3.2 -22.4 0
v -1.6 -22.4 0
v -19.2 -25.6 0
v -20.8 -25.6 0
v -20.8 -24 0
v -19.2 -24 0
v -17.6 -25.6 0
v -19.2 -25.6 0
v -19.2 -24 0
v -17.6 -24 0

# Texture cooridinates (Count = 13)
vt 0 0.125
vt 0.3333333 0.125
vt 0.3333333 0.25
vt 0 0.25
vt 0 0
vt 0.3333333 0
vt 0.6666667 0.125
vt 0.6666667 0.25
vt 0.6666667 0
vt 0.3333333 0.5
vt 0.6666667 0.5
vt 0.6666667 0.625
vt 0.3333333 0.625

# Normal
vn 0 0 -1

# Mesh description
g asiatis_mesh_0131

# Faces
f 1/1/1 2/2/1 3/3/1 4/4/1
f 5/5/1 6/6/1 7/2/1 8/1/1
f 9/2/1 10/7/1 11/8/1 12/3/1
f 13/2/1 14/7/1 15/8/1 16/3/1
f 17/2/1 18/7/1 19/8/1 20/3/1
f 21/2/1 22/7/1 23/8/1 24/3/1
f 25/1/1 26/2/1 27/3/1 28/4/1
f 29/2/1 30/7/1 31/8/1 32/3/1
f 33/6/1 34/9/1 35/7/1 36/2/1
f 37/6/1 38/9/1 39/7/1 40/2/1
f 41/6/1 42/9/1 43/7/1 44/2/1
f 45/6/1 46/9/1 47/7/1 48/2/1
f 49/1/1 50/2/1 51/3/1 52/4/1
f 53/2/1 54/7/1 55/8/1 56/3/1
f 57/5/1 58/6/1 59/2/1 60/1/1
f 61/2/1 62/7/1 63/8/1 64/3/1
f 65/1/1 66/2/1 67/3/1 68/4/1
f 69/2/1 70/7/1 71/8/1 72/3/1
f 73/2/1 74/7/1 75/8/1 76/3/1
f 77/2/1 78/7/1 79/8/1 80/3/1
f 81/2/1 82/7/1 83/8/1 84/3/1
f 85/2/1 86/7/1 87/8/1 88/3/1
f 89/5/1 90/6/1 91/2/1 92/1/1
f 93/6/1 94/9/1 95/7/1 96/2/1
f 97/2/1 98/7/1 99/8/1 100/3/1
f 101/6/1 102/9/1 103/7/1 104/2/1
f 105/6/1 106/9/1 107/7/1 108/2/1
f 109/6/1 110/9/1 111/7/1 112/2/1
f 113/1/1 114/2/1 115/3/1 116/4/1
f 117/10/1 118/11/1 119/12/1 120/13/1
f 121/6/1 122/9/1 123/7/1 124/2/1
f 125/1/1 126/2/1 127/3/1 128/4/1
f 129/1/1 130/2/1 131/3/1 132/4/1
f 133/5/1 134/6/1 135/2/1 136/1/1
f 137/1/1 138/2/1 139/3/1 140/4/1
f 141/1/1 142/2/1 143/3/1 144/4/1
f 145/1/1 146/2/1 147/3/1 148/4/1
f 149/2/1 150/7/1 151/8/1 152/3/1
f 153/2/1 154/7/1 155/8/1 156/3/1
f 157/5/1 158/6/1 159/2/1 160/1/1
f 161/1/1 162/2/1 163/3/1 164/4/1
f 165/2/1 166/7/1 167/8/1 168/3/1
f 169/2/1 170/7/1 171/8/1 172/3/1
f 173/1/1 174/2/1 175/3/1 176/4/1
f 177/6/1 178/9/1 179/7/1 180/2/1
f 181/6/1 182/9/1 183/7/1 184/2/1
f 185/1/1 186/2/1 187/3/1 188/4/1
f 189/1/1 190/2/1 191/3/1 192/4/1

