# Tiled2Unity generated file. Do not modify by hand.
# Wavefront file for 'asiatis_mesh_0095.obj'

# Vertices (Count = 116)
v -14.4 -1.6 0
v -16 -1.6 0
v -16 0 0
v -14.4 0 0
v -12.8 -1.6 0
v -14.4 -1.6 0
v -14.4 0 0
v -12.8 0 0
v -12.8 -3.2 0
v -14.4 -3.2 0
v -14.4 -1.6 0
v -12.8 -1.6 0
v -11.2 -3.2 0
v -12.8 -3.2 0
v -12.8 -1.6 0
v -11.2 -1.6 0
v -12.8 -4.8 0
v -14.4 -4.8 0
v -14.4 -3.2 0
v -12.8 -3.2 0
v -11.2 -4.8 0
v -12.8 -4.8 0
v -12.8 -3.2 0
v -11.2 -3.2 0
v -6.4 -16 0
v -8 -16 0
v -8 -14.4 0
v -6.4 -14.4 0
v -4.8 -16 0
v -6.4 -16 0
v -6.4 -14.4 0
v -4.8 -14.4 0
v -3.2 -16 0
v -4.8 -16 0
v -4.8 -14.4 0
v -3.2 -14.4 0
v -1.6 -16 0
v -3.2 -16 0
v -3.2 -14.4 0
v -1.6 -14.4 0
v 0 -16 0
v -1.6 -16 0
v -1.6 -14.4 0
v 0 -14.4 0
v -8 -17.6 0
v -9.6 -17.6 0
v -9.6 -16 0
v -8 -16 0
v -6.4 -17.6 0
v -8 -17.6 0
v -8 -16 0
v -6.4 -16 0
v -4.8 -17.6 0
v -6.4 -17.6 0
v -6.4 -16 0
v -4.8 -16 0
v -1.6 -17.6 0
v -3.2 -17.6 0
v -3.2 -16 0
v -1.6 -16 0
v 0 -17.6 0
v -1.6 -17.6 0
v -1.6 -16 0
v 0 -16 0
v -9.6 -19.2 0
v -11.2 -19.2 0
v -11.2 -17.6 0
v -9.6 -17.6 0
v -8 -19.2 0
v -9.6 -19.2 0
v -9.6 -17.6 0
v -8 -17.6 0
v -6.4 -19.2 0
v -8 -19.2 0
v -8 -17.6 0
v -6.4 -17.6 0
v -4.8 -19.2 0
v -6.4 -19.2 0
v -6.4 -17.6 0
v -4.8 -17.6 0
v -3.2 -19.2 0
v -4.8 -19.2 0
v -4.8 -17.6 0
v -3.2 -17.6 0
v -1.6 -19.2 0
v -3.2 -19.2 0
v -3.2 -17.6 0
v -1.6 -17.6 0
v 0 -19.2 0
v -1.6 -19.2 0
v -1.6 -17.6 0
v 0 -17.6 0
v -9.6 -20.8 0
v -11.2 -20.8 0
v -11.2 -19.2 0
v -9.6 -19.2 0
v -8 -20.8 0
v -9.6 -20.8 0
v -9.6 -19.2 0
v -8 -19.2 0
v -6.4 -20.8 0
v -8 -20.8 0
v -8 -19.2 0
v -6.4 -19.2 0
v -4.8 -20.8 0
v -6.4 -20.8 0
v -6.4 -19.2 0
v -4.8 -19.2 0
v -3.2 -20.8 0
v -4.8 -20.8 0
v -4.8 -19.2 0
v -3.2 -19.2 0
v -1.6 -20.8 0
v -3.2 -20.8 0
v -3.2 -19.2 0
v -1.6 -19.2 0

# Texture cooridinates (Count = 10)
vt 0 0
vt 0.3333333 0
vt 0.3333333 0.125
vt 0 0.125
vt 0.3333333 0.25
vt 0 0.25
vt 0.3333333 0.5
vt 0.6666667 0.5
vt 0.6666667 0.625
vt 0.3333333 0.625

# Normal
vn 0 0 -1

# Mesh description
g asiatis_mesh_0095

# Faces
f 1/1/1 2/2/1 3/3/1 4/4/1
f 5/1/1 6/2/1 7/3/1 8/4/1
f 9/1/1 10/2/1 11/3/1 12/4/1
f 13/4/1 14/3/1 15/5/1 16/6/1
f 17/1/1 18/2/1 19/3/1 20/4/1
f 21/1/1 22/2/1 23/3/1 24/4/1
f 25/7/1 26/8/1 27/9/1 28/10/1
f 29/7/1 30/8/1 31/9/1 32/10/1
f 33/7/1 34/8/1 35/9/1 36/10/1
f 37/7/1 38/8/1 39/9/1 40/10/1
f 41/7/1 42/8/1 43/9/1 44/10/1
f 45/7/1 46/8/1 47/9/1 48/10/1
f 49/1/1 50/2/1 51/3/1 52/4/1
f 53/1/1 54/2/1 55/3/1 56/4/1
f 57/1/1 58/2/1 59/3/1 60/4/1
f 61/7/1 62/8/1 63/9/1 64/10/1
f 65/7/1 66/8/1 67/9/1 68/10/1
f 69/1/1 70/2/1 71/3/1 72/4/1
f 73/1/1 74/2/1 75/3/1 76/4/1
f 77/1/1 78/2/1 79/3/1 80/4/1
f 81/7/1 82/8/1 83/9/1 84/10/1
f 85/1/1 86/2/1 87/3/1 88/4/1
f 89/1/1 90/2/1 91/3/1 92/4/1
f 93/1/1 94/2/1 95/3/1 96/4/1
f 97/1/1 98/2/1 99/3/1 100/4/1
f 101/1/1 102/2/1 103/3/1 104/4/1
f 105/1/1 106/2/1 107/3/1 108/4/1
f 109/1/1 110/2/1 111/3/1 112/4/1
f 113/1/1 114/2/1 115/3/1 116/4/1

