# Tiled2Unity generated file. Do not modify by hand.
# Wavefront file for 'asiatis_mesh_0048.obj'

# Vertices (Count = 360)
v -24 -1.6 0
v -25.6 -1.6 0
v -25.6 0 0
v -24 0 0
v -22.4 -1.6 0
v -24 -1.6 0
v -24 0 0
v -22.4 0 0
v -20.8 -1.6 0
v -22.4 -1.6 0
v -22.4 0 0
v -20.8 0 0
v -19.2 -1.6 0
v -20.8 -1.6 0
v -20.8 0 0
v -19.2 0 0
v -17.6 -1.6 0
v -19.2 -1.6 0
v -19.2 0 0
v -17.6 0 0
v -16 -1.6 0
v -17.6 -1.6 0
v -17.6 0 0
v -16 0 0
v -14.4 -1.6 0
v -16 -1.6 0
v -16 0 0
v -14.4 0 0
v -12.8 -1.6 0
v -14.4 -1.6 0
v -14.4 0 0
v -12.8 0 0
v -11.2 -1.6 0
v -12.8 -1.6 0
v -12.8 0 0
v -11.2 0 0
v -17.6 -3.2 0
v -19.2 -3.2 0
v -19.2 -1.6 0
v -17.6 -1.6 0
v -16 -3.2 0
v -17.6 -3.2 0
v -17.6 -1.6 0
v -16 -1.6 0
v -14.4 -3.2 0
v -16 -3.2 0
v -16 -1.6 0
v -14.4 -1.6 0
v -12.8 -3.2 0
v -14.4 -3.2 0
v -14.4 -1.6 0
v -12.8 -1.6 0
v -11.2 -3.2 0
v -12.8 -3.2 0
v -12.8 -1.6 0
v -11.2 -1.6 0
v -9.6 -3.2 0
v -11.2 -3.2 0
v -11.2 -1.6 0
v -9.6 -1.6 0
v -16 -4.8 0
v -17.6 -4.8 0
v -17.6 -3.2 0
v -16 -3.2 0
v -14.4 -4.8 0
v -16 -4.8 0
v -16 -3.2 0
v -14.4 -3.2 0
v -12.8 -4.8 0
v -14.4 -4.8 0
v -14.4 -3.2 0
v -12.8 -3.2 0
v -11.2 -4.8 0
v -12.8 -4.8 0
v -12.8 -3.2 0
v -11.2 -3.2 0
v -9.6 -4.8 0
v -11.2 -4.8 0
v -11.2 -3.2 0
v -9.6 -3.2 0
v -16 -6.4 0
v -17.6 -6.4 0
v -17.6 -4.8 0
v -16 -4.8 0
v -14.4 -6.4 0
v -16 -6.4 0
v -16 -4.8 0
v -14.4 -4.8 0
v -12.8 -6.4 0
v -14.4 -6.4 0
v -14.4 -4.8 0
v -12.8 -4.8 0
v -11.2 -6.4 0
v -12.8 -6.4 0
v -12.8 -4.8 0
v -11.2 -4.8 0
v -9.6 -6.4 0
v -11.2 -6.4 0
v -11.2 -4.8 0
v -9.6 -4.8 0
v -8 -6.4 0
v -9.6 -6.4 0
v -9.6 -4.8 0
v -8 -4.8 0
v -14.4 -8 0
v -16 -8 0
v -16 -6.4 0
v -14.4 -6.4 0
v -12.8 -8 0
v -14.4 -8 0
v -14.4 -6.4 0
v -12.8 -6.4 0
v -11.2 -8 0
v -12.8 -8 0
v -12.8 -6.4 0
v -11.2 -6.4 0
v -9.6 -8 0
v -11.2 -8 0
v -11.2 -6.4 0
v -9.6 -6.4 0
v -8 -8 0
v -9.6 -8 0
v -9.6 -6.4 0
v -8 -6.4 0
v -12.8 -9.6 0
v -14.4 -9.6 0
v -14.4 -8 0
v -12.8 -8 0
v -11.2 -9.6 0
v -12.8 -9.6 0
v -12.8 -8 0
v -11.2 -8 0
v -9.6 -9.6 0
v -11.2 -9.6 0
v -11.2 -8 0
v -9.6 -8 0
v -8 -9.6 0
v -9.6 -9.6 0
v -9.6 -8 0
v -8 -8 0
v -6.4 -9.6 0
v -8 -9.6 0
v -8 -8 0
v -6.4 -8 0
v -12.8 -11.2 0
v -14.4 -11.2 0
v -14.4 -9.6 0
v -12.8 -9.6 0
v -11.2 -11.2 0
v -12.8 -11.2 0
v -12.8 -9.6 0
v -11.2 -9.6 0
v -9.6 -11.2 0
v -11.2 -11.2 0
v -11.2 -9.6 0
v -9.6 -9.6 0
v -8 -11.2 0
v -9.6 -11.2 0
v -9.6 -9.6 0
v -8 -9.6 0
v -6.4 -11.2 0
v -8 -11.2 0
v -8 -9.6 0
v -6.4 -9.6 0
v -11.2 -12.8 0
v -12.8 -12.8 0
v -12.8 -11.2 0
v -11.2 -11.2 0
v -9.6 -12.8 0
v -11.2 -12.8 0
v -11.2 -11.2 0
v -9.6 -11.2 0
v -8 -12.8 0
v -9.6 -12.8 0
v -9.6 -11.2 0
v -8 -11.2 0
v -6.4 -12.8 0
v -8 -12.8 0
v -8 -11.2 0
v -6.4 -11.2 0
v -11.2 -14.4 0
v -12.8 -14.4 0
v -12.8 -12.8 0
v -11.2 -12.8 0
v -9.6 -14.4 0
v -11.2 -14.4 0
v -11.2 -12.8 0
v -9.6 -12.8 0
v -8 -14.4 0
v -9.6 -14.4 0
v -9.6 -12.8 0
v -8 -12.8 0
v -6.4 -14.4 0
v -8 -14.4 0
v -8 -12.8 0
v -6.4 -12.8 0
v -11.2 -16 0
v -12.8 -16 0
v -12.8 -14.4 0
v -11.2 -14.4 0
v -9.6 -16 0
v -11.2 -16 0
v -11.2 -14.4 0
v -9.6 -14.4 0
v -8 -16 0
v -9.6 -16 0
v -9.6 -14.4 0
v -8 -14.4 0
v -6.4 -16 0
v -8 -16 0
v -8 -14.4 0
v -6.4 -14.4 0
v -1.6 -16 0
v -3.2 -16 0
v -3.2 -14.4 0
v -1.6 -14.4 0
v -11.2 -17.6 0
v -12.8 -17.6 0
v -12.8 -16 0
v -11.2 -16 0
v -9.6 -17.6 0
v -11.2 -17.6 0
v -11.2 -16 0
v -9.6 -16 0
v -8 -17.6 0
v -9.6 -17.6 0
v -9.6 -16 0
v -8 -16 0
v -6.4 -17.6 0
v -8 -17.6 0
v -8 -16 0
v -6.4 -16 0
v -1.6 -17.6 0
v -3.2 -17.6 0
v -3.2 -16 0
v -1.6 -16 0
v 0 -17.6 0
v -1.6 -17.6 0
v -1.6 -16 0
v 0 -16 0
v -11.2 -19.2 0
v -12.8 -19.2 0
v -12.8 -17.6 0
v -11.2 -17.6 0
v -9.6 -19.2 0
v -11.2 -19.2 0
v -11.2 -17.6 0
v -9.6 -17.6 0
v -8 -19.2 0
v -9.6 -19.2 0
v -9.6 -17.6 0
v -8 -17.6 0
v -6.4 -19.2 0
v -8 -19.2 0
v -8 -17.6 0
v -6.4 -17.6 0
v -1.6 -19.2 0
v -3.2 -19.2 0
v -3.2 -17.6 0
v -1.6 -17.6 0
v 0 -19.2 0
v -1.6 -19.2 0
v -1.6 -17.6 0
v 0 -17.6 0
v -11.2 -20.8 0
v -12.8 -20.8 0
v -12.8 -19.2 0
v -11.2 -19.2 0
v -9.6 -20.8 0
v -11.2 -20.8 0
v -11.2 -19.2 0
v -9.6 -19.2 0
v -8 -20.8 0
v -9.6 -20.8 0
v -9.6 -19.2 0
v -8 -19.2 0
v -6.4 -20.8 0
v -8 -20.8 0
v -8 -19.2 0
v -6.4 -19.2 0
v -1.6 -20.8 0
v -3.2 -20.8 0
v -3.2 -19.2 0
v -1.6 -19.2 0
v 0 -20.8 0
v -1.6 -20.8 0
v -1.6 -19.2 0
v 0 -19.2 0
v -11.2 -22.4 0
v -12.8 -22.4 0
v -12.8 -20.8 0
v -11.2 -20.8 0
v -9.6 -22.4 0
v -11.2 -22.4 0
v -11.2 -20.8 0
v -9.6 -20.8 0
v -8 -22.4 0
v -9.6 -22.4 0
v -9.6 -20.8 0
v -8 -20.8 0
v -6.4 -22.4 0
v -8 -22.4 0
v -8 -20.8 0
v -6.4 -20.8 0
v -1.6 -22.4 0
v -3.2 -22.4 0
v -3.2 -20.8 0
v -1.6 -20.8 0
v 0 -22.4 0
v -1.6 -22.4 0
v -1.6 -20.8 0
v 0 -20.8 0
v -11.2 -24 0
v -12.8 -24 0
v -12.8 -22.4 0
v -11.2 -22.4 0
v -9.6 -24 0
v -11.2 -24 0
v -11.2 -22.4 0
v -9.6 -22.4 0
v -8 -24 0
v -9.6 -24 0
v -9.6 -22.4 0
v -8 -22.4 0
v -6.4 -24 0
v -8 -24 0
v -8 -22.4 0
v -6.4 -22.4 0
v -1.6 -24 0
v -3.2 -24 0
v -3.2 -22.4 0
v -1.6 -22.4 0
v 0 -24 0
v -1.6 -24 0
v -1.6 -22.4 0
v 0 -22.4 0
v -14.4 -25.6 0
v -16 -25.6 0
v -16 -24 0
v -14.4 -24 0
v -12.8 -25.6 0
v -14.4 -25.6 0
v -14.4 -24 0
v -12.8 -24 0
v -11.2 -25.6 0
v -12.8 -25.6 0
v -12.8 -24 0
v -11.2 -24 0
v -9.6 -25.6 0
v -11.2 -25.6 0
v -11.2 -24 0
v -9.6 -24 0
v -8 -25.6 0
v -9.6 -25.6 0
v -9.6 -24 0
v -8 -24 0
v -6.4 -25.6 0
v -8 -25.6 0
v -8 -24 0
v -6.4 -24 0

# Texture cooridinates (Count = 24)
vt 0.3333333 0.625
vt 0.6666667 0.625
vt 0.6666667 0.75
vt 0.3333333 0.75
vt 0 0.625
vt 0 0.75
vt 0.6666667 0.25
vt 1 0.25
vt 1 0.375
vt 0.6666667 0.375
vt 1 0.5
vt 0.6666667 0.5
vt 0.3333333 0.875
vt 0.6666667 0.875
vt 0.6666667 1
vt 0.3333333 1
vt 1 0.75
vt 1 0.875
vt 1 0.625
vt 0.3333333 0.5
vt 0 0.5
vt 1 1
vt 0.3333333 0.375
vt 0 0.375

# Normal
vn 0 0 -1

# Mesh description
g asiatis_mesh_0048

# Faces
f 1/1/1 2/2/1 3/3/1 4/4/1
f 5/1/1 6/2/1 7/3/1 8/4/1
f 9/1/1 10/2/1 11/3/1 12/4/1
f 13/1/1 14/2/1 15/3/1 16/4/1
f 17/5/1 18/1/1 19/4/1 20/6/1
f 21/7/1 22/8/1 23/9/1 24/10/1
f 25/7/1 26/8/1 27/9/1 28/10/1
f 29/10/1 30/9/1 31/11/1 32/12/1
f 33/13/1 34/14/1 35/15/1 36/16/1
f 37/3/1 38/17/1 39/18/1 40/14/1
f 41/5/1 42/1/1 43/4/1 44/6/1
f 45/7/1 46/8/1 47/9/1 48/10/1
f 49/7/1 50/8/1 51/9/1 52/10/1
f 53/10/1 54/9/1 55/11/1 56/12/1
f 57/13/1 58/14/1 59/15/1 60/16/1
f 61/3/1 62/17/1 63/18/1 64/14/1
f 65/5/1 66/1/1 67/4/1 68/6/1
f 69/7/1 70/8/1 71/9/1 72/10/1
f 73/7/1 74/8/1 75/9/1 76/10/1
f 77/12/1 78/11/1 79/19/1 80/2/1
f 81/20/1 82/12/1 83/2/1 84/1/1
f 85/3/1 86/17/1 87/18/1 88/14/1
f 89/5/1 90/1/1 91/4/1 92/6/1
f 93/7/1 94/8/1 95/9/1 96/10/1
f 97/10/1 98/9/1 99/11/1 100/12/1
f 101/13/1 102/14/1 103/15/1 104/16/1
f 105/20/1 106/12/1 107/2/1 108/1/1
f 109/21/1 110/20/1 111/1/1 112/5/1
f 113/7/1 114/8/1 115/9/1 116/10/1
f 117/7/1 118/8/1 119/9/1 120/10/1
f 121/12/1 122/11/1 123/19/1 124/2/1
f 125/21/1 126/20/1 127/1/1 128/5/1
f 129/7/1 130/8/1 131/9/1 132/10/1
f 133/7/1 134/8/1 135/9/1 136/10/1
f 137/10/1 138/9/1 139/11/1 140/12/1
f 141/13/1 142/14/1 143/15/1 144/16/1
f 145/3/1 146/17/1 147/18/1 148/14/1
f 149/5/1 150/1/1 151/4/1 152/6/1
f 153/7/1 154/8/1 155/9/1 156/10/1
f 157/7/1 158/8/1 159/9/1 160/10/1
f 161/12/1 162/11/1 163/19/1 164/2/1
f 165/21/1 166/20/1 167/1/1 168/5/1
f 169/7/1 170/8/1 171/9/1 172/10/1
f 173/7/1 174/8/1 175/9/1 176/10/1
f 177/12/1 178/11/1 179/19/1 180/2/1
f 181/21/1 182/20/1 183/1/1 184/5/1
f 185/7/1 186/8/1 187/9/1 188/10/1
f 189/7/1 190/8/1 191/9/1 192/10/1
f 193/12/1 194/11/1 195/19/1 196/2/1
f 197/21/1 198/20/1 199/1/1 200/5/1
f 201/7/1 202/8/1 203/9/1 204/10/1
f 205/7/1 206/8/1 207/9/1 208/10/1
f 209/12/1 210/11/1 211/19/1 212/2/1
f 213/20/1 214/12/1 215/2/1 216/1/1
f 217/21/1 218/20/1 219/1/1 220/5/1
f 221/7/1 222/8/1 223/9/1 224/10/1
f 225/7/1 226/8/1 227/9/1 228/10/1
f 229/12/1 230/11/1 231/19/1 232/2/1
f 233/20/1 234/12/1 235/2/1 236/1/1
f 237/20/1 238/12/1 239/2/1 240/1/1
f 241/21/1 242/20/1 243/1/1 244/5/1
f 245/7/1 246/8/1 247/9/1 248/10/1
f 249/7/1 250/8/1 251/9/1 252/10/1
f 253/12/1 254/11/1 255/19/1 256/2/1
f 257/20/1 258/12/1 259/2/1 260/1/1
f 261/20/1 262/12/1 263/2/1 264/1/1
f 265/21/1 266/20/1 267/1/1 268/5/1
f 269/7/1 270/8/1 271/9/1 272/10/1
f 273/7/1 274/8/1 275/9/1 276/10/1
f 277/12/1 278/11/1 279/19/1 280/2/1
f 281/20/1 282/12/1 283/2/1 284/1/1
f 285/20/1 286/12/1 287/2/1 288/1/1
f 289/21/1 290/20/1 291/1/1 292/5/1
f 293/7/1 294/8/1 295/9/1 296/10/1
f 297/7/1 298/8/1 299/9/1 300/10/1
f 301/12/1 302/11/1 303/19/1 304/2/1
f 305/20/1 306/12/1 307/2/1 308/1/1
f 309/20/1 310/12/1 311/2/1 312/1/1
f 313/21/1 314/20/1 315/1/1 316/5/1
f 317/7/1 318/8/1 319/9/1 320/10/1
f 321/7/1 322/8/1 323/9/1 324/10/1
f 325/12/1 326/11/1 327/19/1 328/2/1
f 329/20/1 330/12/1 331/2/1 332/1/1
f 333/20/1 334/12/1 335/2/1 336/1/1
f 337/14/1 338/18/1 339/22/1 340/15/1
f 341/23/1 342/10/1 343/12/1 344/20/1
f 345/24/1 346/23/1 347/20/1 348/21/1
f 349/7/1 350/8/1 351/9/1 352/10/1
f 353/7/1 354/8/1 355/9/1 356/10/1
f 357/12/1 358/11/1 359/19/1 360/2/1

