# Tiled2Unity generated file. Do not modify by hand.
# Wavefront file for 'asiatis_mesh_0126.obj'

# Vertices (Count = 104)
v -14.4 -1.6 0
v -16 -1.6 0
v -16 0 0
v -14.4 0 0
v -12.8 -1.6 0
v -14.4 -1.6 0
v -14.4 0 0
v -12.8 0 0
v -12.8 -3.2 0
v -14.4 -3.2 0
v -14.4 -1.6 0
v -12.8 -1.6 0
v -11.2 -3.2 0
v -12.8 -3.2 0
v -12.8 -1.6 0
v -11.2 -1.6 0
v -12.8 -4.8 0
v -14.4 -4.8 0
v -14.4 -3.2 0
v -12.8 -3.2 0
v -11.2 -4.8 0
v -12.8 -4.8 0
v -12.8 -3.2 0
v -11.2 -3.2 0
v -6.4 -16 0
v -8 -16 0
v -8 -14.4 0
v -6.4 -14.4 0
v -1.6 -16 0
v -3.2 -16 0
v -3.2 -14.4 0
v -1.6 -14.4 0
v -8 -17.6 0
v -9.6 -17.6 0
v -9.6 -16 0
v -8 -16 0
v -6.4 -17.6 0
v -8 -17.6 0
v -8 -16 0
v -6.4 -16 0
v -4.8 -17.6 0
v -6.4 -17.6 0
v -6.4 -16 0
v -4.8 -16 0
v -1.6 -17.6 0
v -3.2 -17.6 0
v -3.2 -16 0
v -1.6 -16 0
v 0 -17.6 0
v -1.6 -17.6 0
v -1.6 -16 0
v 0 -16 0
v -9.6 -19.2 0
v -11.2 -19.2 0
v -11.2 -17.6 0
v -9.6 -17.6 0
v -8 -19.2 0
v -9.6 -19.2 0
v -9.6 -17.6 0
v -8 -17.6 0
v -6.4 -19.2 0
v -8 -19.2 0
v -8 -17.6 0
v -6.4 -17.6 0
v -4.8 -19.2 0
v -6.4 -19.2 0
v -6.4 -17.6 0
v -4.8 -17.6 0
v -3.2 -19.2 0
v -4.8 -19.2 0
v -4.8 -17.6 0
v -3.2 -17.6 0
v -1.6 -19.2 0
v -3.2 -19.2 0
v -3.2 -17.6 0
v -1.6 -17.6 0
v 0 -19.2 0
v -1.6 -19.2 0
v -1.6 -17.6 0
v 0 -17.6 0
v -9.6 -20.8 0
v -11.2 -20.8 0
v -11.2 -19.2 0
v -9.6 -19.2 0
v -8 -20.8 0
v -9.6 -20.8 0
v -9.6 -19.2 0
v -8 -19.2 0
v -6.4 -20.8 0
v -8 -20.8 0
v -8 -19.2 0
v -6.4 -19.2 0
v -4.8 -20.8 0
v -6.4 -20.8 0
v -6.4 -19.2 0
v -4.8 -19.2 0
v -3.2 -20.8 0
v -4.8 -20.8 0
v -4.8 -19.2 0
v -3.2 -19.2 0
v -1.6 -20.8 0
v -3.2 -20.8 0
v -3.2 -19.2 0
v -1.6 -19.2 0

# Texture cooridinates (Count = 6)
vt 0 0
vt 0.3333333 0
vt 0.3333333 0.125
vt 0 0.125
vt 0.3333333 0.25
vt 0 0.25

# Normal
vn 0 0 -1

# Mesh description
g asiatis_mesh_0126

# Faces
f 1/1/1 2/2/1 3/3/1 4/4/1
f 5/4/1 6/3/1 7/5/1 8/6/1
f 9/4/1 10/3/1 11/5/1 12/6/1
f 13/4/1 14/3/1 15/5/1 16/6/1
f 17/1/1 18/2/1 19/3/1 20/4/1
f 21/1/1 22/2/1 23/3/1 24/4/1
f 25/4/1 26/3/1 27/5/1 28/6/1
f 29/4/1 30/3/1 31/5/1 32/6/1
f 33/4/1 34/3/1 35/5/1 36/6/1
f 37/4/1 38/3/1 39/5/1 40/6/1
f 41/4/1 42/3/1 43/5/1 44/6/1
f 45/4/1 46/3/1 47/5/1 48/6/1
f 49/4/1 50/3/1 51/5/1 52/6/1
f 53/4/1 54/3/1 55/5/1 56/6/1
f 57/4/1 58/3/1 59/5/1 60/6/1
f 61/4/1 62/3/1 63/5/1 64/6/1
f 65/4/1 66/3/1 67/5/1 68/6/1
f 69/4/1 70/3/1 71/5/1 72/6/1
f 73/4/1 74/3/1 75/5/1 76/6/1
f 77/1/1 78/2/1 79/3/1 80/4/1
f 81/1/1 82/2/1 83/3/1 84/4/1
f 85/1/1 86/2/1 87/3/1 88/4/1
f 89/1/1 90/2/1 91/3/1 92/4/1
f 93/1/1 94/2/1 95/3/1 96/4/1
f 97/1/1 98/2/1 99/3/1 100/4/1
f 101/1/1 102/2/1 103/3/1 104/4/1

