# Tiled2Unity generated file. Do not modify by hand.
# Wavefront file for 'asiatis_mesh_0053.obj'

# Vertices (Count = 660)
v -24 -1.6 0
v -25.6 -1.6 0
v -25.6 0 0
v -24 0 0
v -22.4 -1.6 0
v -24 -1.6 0
v -24 0 0
v -22.4 0 0
v -3.2 -1.6 0
v -4.8 -1.6 0
v -4.8 0 0
v -3.2 0 0
v -1.6 -1.6 0
v -3.2 -1.6 0
v -3.2 0 0
v -1.6 0 0
v 0 -1.6 0
v -1.6 -1.6 0
v -1.6 0 0
v 0 0 0
v -24 -3.2 0
v -25.6 -3.2 0
v -25.6 -1.6 0
v -24 -1.6 0
v -22.4 -3.2 0
v -24 -3.2 0
v -24 -1.6 0
v -22.4 -1.6 0
v -20.8 -3.2 0
v -22.4 -3.2 0
v -22.4 -1.6 0
v -20.8 -1.6 0
v -3.2 -3.2 0
v -4.8 -3.2 0
v -4.8 -1.6 0
v -3.2 -1.6 0
v -1.6 -3.2 0
v -3.2 -3.2 0
v -3.2 -1.6 0
v -1.6 -1.6 0
v 0 -3.2 0
v -1.6 -3.2 0
v -1.6 -1.6 0
v 0 -1.6 0
v -24 -4.8 0
v -25.6 -4.8 0
v -25.6 -3.2 0
v -24 -3.2 0
v -22.4 -4.8 0
v -24 -4.8 0
v -24 -3.2 0
v -22.4 -3.2 0
v -20.8 -4.8 0
v -22.4 -4.8 0
v -22.4 -3.2 0
v -20.8 -3.2 0
v -19.2 -4.8 0
v -20.8 -4.8 0
v -20.8 -3.2 0
v -19.2 -3.2 0
v -3.2 -4.8 0
v -4.8 -4.8 0
v -4.8 -3.2 0
v -3.2 -3.2 0
v -1.6 -4.8 0
v -3.2 -4.8 0
v -3.2 -3.2 0
v -1.6 -3.2 0
v 0 -4.8 0
v -1.6 -4.8 0
v -1.6 -3.2 0
v 0 -3.2 0
v -24 -6.4 0
v -25.6 -6.4 0
v -25.6 -4.8 0
v -24 -4.8 0
v -22.4 -6.4 0
v -24 -6.4 0
v -24 -4.8 0
v -22.4 -4.8 0
v -20.8 -6.4 0
v -22.4 -6.4 0
v -22.4 -4.8 0
v -20.8 -4.8 0
v -19.2 -6.4 0
v -20.8 -6.4 0
v -20.8 -4.8 0
v -19.2 -4.8 0
v -17.6 -6.4 0
v -19.2 -6.4 0
v -19.2 -4.8 0
v -17.6 -4.8 0
v -3.2 -6.4 0
v -4.8 -6.4 0
v -4.8 -4.8 0
v -3.2 -4.8 0
v -1.6 -6.4 0
v -3.2 -6.4 0
v -3.2 -4.8 0
v -1.6 -4.8 0
v 0 -6.4 0
v -1.6 -6.4 0
v -1.6 -4.8 0
v 0 -4.8 0
v -24 -8 0
v -25.6 -8 0
v -25.6 -6.4 0
v -24 -6.4 0
v -22.4 -8 0
v -24 -8 0
v -24 -6.4 0
v -22.4 -6.4 0
v -20.8 -8 0
v -22.4 -8 0
v -22.4 -6.4 0
v -20.8 -6.4 0
v -19.2 -8 0
v -20.8 -8 0
v -20.8 -6.4 0
v -19.2 -6.4 0
v -17.6 -8 0
v -19.2 -8 0
v -19.2 -6.4 0
v -17.6 -6.4 0
v -16 -8 0
v -17.6 -8 0
v -17.6 -6.4 0
v -16 -6.4 0
v -3.2 -8 0
v -4.8 -8 0
v -4.8 -6.4 0
v -3.2 -6.4 0
v -1.6 -8 0
v -3.2 -8 0
v -3.2 -6.4 0
v -1.6 -6.4 0
v 0 -8 0
v -1.6 -8 0
v -1.6 -6.4 0
v 0 -6.4 0
v -24 -9.6 0
v -25.6 -9.6 0
v -25.6 -8 0
v -24 -8 0
v -22.4 -9.6 0
v -24 -9.6 0
v -24 -8 0
v -22.4 -8 0
v -20.8 -9.6 0
v -22.4 -9.6 0
v -22.4 -8 0
v -20.8 -8 0
v -19.2 -9.6 0
v -20.8 -9.6 0
v -20.8 -8 0
v -19.2 -8 0
v -17.6 -9.6 0
v -19.2 -9.6 0
v -19.2 -8 0
v -17.6 -8 0
v -16 -9.6 0
v -17.6 -9.6 0
v -17.6 -8 0
v -16 -8 0
v -4.8 -9.6 0
v -6.4 -9.6 0
v -6.4 -8 0
v -4.8 -8 0
v -3.2 -9.6 0
v -4.8 -9.6 0
v -4.8 -8 0
v -3.2 -8 0
v -1.6 -9.6 0
v -3.2 -9.6 0
v -3.2 -8 0
v -1.6 -8 0
v 0 -9.6 0
v -1.6 -9.6 0
v -1.6 -8 0
v 0 -8 0
v -24 -11.2 0
v -25.6 -11.2 0
v -25.6 -9.6 0
v -24 -9.6 0
v -22.4 -11.2 0
v -24 -11.2 0
v -24 -9.6 0
v -22.4 -9.6 0
v -20.8 -11.2 0
v -22.4 -11.2 0
v -22.4 -9.6 0
v -20.8 -9.6 0
v -19.2 -11.2 0
v -20.8 -11.2 0
v -20.8 -9.6 0
v -19.2 -9.6 0
v -17.6 -11.2 0
v -19.2 -11.2 0
v -19.2 -9.6 0
v -17.6 -9.6 0
v -16 -11.2 0
v -17.6 -11.2 0
v -17.6 -9.6 0
v -16 -9.6 0
v -4.8 -11.2 0
v -6.4 -11.2 0
v -6.4 -9.6 0
v -4.8 -9.6 0
v -3.2 -11.2 0
v -4.8 -11.2 0
v -4.8 -9.6 0
v -3.2 -9.6 0
v -1.6 -11.2 0
v -3.2 -11.2 0
v -3.2 -9.6 0
v -1.6 -9.6 0
v 0 -11.2 0
v -1.6 -11.2 0
v -1.6 -9.6 0
v 0 -9.6 0
v -24 -12.8 0
v -25.6 -12.8 0
v -25.6 -11.2 0
v -24 -11.2 0
v -22.4 -12.8 0
v -24 -12.8 0
v -24 -11.2 0
v -22.4 -11.2 0
v -20.8 -12.8 0
v -22.4 -12.8 0
v -22.4 -11.2 0
v -20.8 -11.2 0
v -19.2 -12.8 0
v -20.8 -12.8 0
v -20.8 -11.2 0
v -19.2 -11.2 0
v -17.6 -12.8 0
v -19.2 -12.8 0
v -19.2 -11.2 0
v -17.6 -11.2 0
v -6.4 -12.8 0
v -8 -12.8 0
v -8 -11.2 0
v -6.4 -11.2 0
v -4.8 -12.8 0
v -6.4 -12.8 0
v -6.4 -11.2 0
v -4.8 -11.2 0
v -3.2 -12.8 0
v -4.8 -12.8 0
v -4.8 -11.2 0
v -3.2 -11.2 0
v -1.6 -12.8 0
v -3.2 -12.8 0
v -3.2 -11.2 0
v -1.6 -11.2 0
v 0 -12.8 0
v -1.6 -12.8 0
v -1.6 -11.2 0
v 0 -11.2 0
v -24 -14.4 0
v -25.6 -14.4 0
v -25.6 -12.8 0
v -24 -12.8 0
v -22.4 -14.4 0
v -24 -14.4 0
v -24 -12.8 0
v -22.4 -12.8 0
v -20.8 -14.4 0
v -22.4 -14.4 0
v -22.4 -12.8 0
v -20.8 -12.8 0
v -19.2 -14.4 0
v -20.8 -14.4 0
v -20.8 -12.8 0
v -19.2 -12.8 0
v -17.6 -14.4 0
v -19.2 -14.4 0
v -19.2 -12.8 0
v -17.6 -12.8 0
v -9.6 -14.4 0
v -11.2 -14.4 0
v -11.2 -12.8 0
v -9.6 -12.8 0
v -8 -14.4 0
v -9.6 -14.4 0
v -9.6 -12.8 0
v -8 -12.8 0
v -6.4 -14.4 0
v -8 -14.4 0
v -8 -12.8 0
v -6.4 -12.8 0
v -4.8 -14.4 0
v -6.4 -14.4 0
v -6.4 -12.8 0
v -4.8 -12.8 0
v -3.2 -14.4 0
v -4.8 -14.4 0
v -4.8 -12.8 0
v -3.2 -12.8 0
v -1.6 -14.4 0
v -3.2 -14.4 0
v -3.2 -12.8 0
v -1.6 -12.8 0
v 0 -14.4 0
v -1.6 -14.4 0
v -1.6 -12.8 0
v 0 -12.8 0
v -24 -16 0
v -25.6 -16 0
v -25.6 -14.4 0
v -24 -14.4 0
v -22.4 -16 0
v -24 -16 0
v -24 -14.4 0
v -22.4 -14.4 0
v -20.8 -16 0
v -22.4 -16 0
v -22.4 -14.4 0
v -20.8 -14.4 0
v -19.2 -16 0
v -20.8 -16 0
v -20.8 -14.4 0
v -19.2 -14.4 0
v -17.6 -16 0
v -19.2 -16 0
v -19.2 -14.4 0
v -17.6 -14.4 0
v -12.8 -16 0
v -14.4 -16 0
v -14.4 -14.4 0
v -12.8 -14.4 0
v -11.2 -16 0
v -12.8 -16 0
v -12.8 -14.4 0
v -11.2 -14.4 0
v -9.6 -16 0
v -11.2 -16 0
v -11.2 -14.4 0
v -9.6 -14.4 0
v -8 -16 0
v -9.6 -16 0
v -9.6 -14.4 0
v -8 -14.4 0
v -6.4 -16 0
v -8 -16 0
v -8 -14.4 0
v -6.4 -14.4 0
v -4.8 -16 0
v -6.4 -16 0
v -6.4 -14.4 0
v -4.8 -14.4 0
v -3.2 -16 0
v -4.8 -16 0
v -4.8 -14.4 0
v -3.2 -14.4 0
v -1.6 -16 0
v -3.2 -16 0
v -3.2 -14.4 0
v -1.6 -14.4 0
v 0 -16 0
v -1.6 -16 0
v -1.6 -14.4 0
v 0 -14.4 0
v -24 -17.6 0
v -25.6 -17.6 0
v -25.6 -16 0
v -24 -16 0
v -22.4 -17.6 0
v -24 -17.6 0
v -24 -16 0
v -22.4 -16 0
v -20.8 -17.6 0
v -22.4 -17.6 0
v -22.4 -16 0
v -20.8 -16 0
v -19.2 -17.6 0
v -20.8 -17.6 0
v -20.8 -16 0
v -19.2 -16 0
v -11.2 -17.6 0
v -12.8 -17.6 0
v -12.8 -16 0
v -11.2 -16 0
v -9.6 -17.6 0
v -11.2 -17.6 0
v -11.2 -16 0
v -9.6 -16 0
v -8 -17.6 0
v -9.6 -17.6 0
v -9.6 -16 0
v -8 -16 0
v -6.4 -17.6 0
v -8 -17.6 0
v -8 -16 0
v -6.4 -16 0
v -4.8 -17.6 0
v -6.4 -17.6 0
v -6.4 -16 0
v -4.8 -16 0
v -3.2 -17.6 0
v -4.8 -17.6 0
v -4.8 -16 0
v -3.2 -16 0
v -1.6 -17.6 0
v -3.2 -17.6 0
v -3.2 -16 0
v -1.6 -16 0
v 0 -17.6 0
v -1.6 -17.6 0
v -1.6 -16 0
v 0 -16 0
v -24 -19.2 0
v -25.6 -19.2 0
v -25.6 -17.6 0
v -24 -17.6 0
v -22.4 -19.2 0
v -24 -19.2 0
v -24 -17.6 0
v -22.4 -17.6 0
v -20.8 -19.2 0
v -22.4 -19.2 0
v -22.4 -17.6 0
v -20.8 -17.6 0
v -19.2 -19.2 0
v -20.8 -19.2 0
v -20.8 -17.6 0
v -19.2 -17.6 0
v -11.2 -19.2 0
v -12.8 -19.2 0
v -12.8 -17.6 0
v -11.2 -17.6 0
v -9.6 -19.2 0
v -11.2 -19.2 0
v -11.2 -17.6 0
v -9.6 -17.6 0
v -8 -19.2 0
v -9.6 -19.2 0
v -9.6 -17.6 0
v -8 -17.6 0
v -6.4 -19.2 0
v -8 -19.2 0
v -8 -17.6 0
v -6.4 -17.6 0
v -4.8 -19.2 0
v -6.4 -19.2 0
v -6.4 -17.6 0
v -4.8 -17.6 0
v -3.2 -19.2 0
v -4.8 -19.2 0
v -4.8 -17.6 0
v -3.2 -17.6 0
v -1.6 -19.2 0
v -3.2 -19.2 0
v -3.2 -17.6 0
v -1.6 -17.6 0
v 0 -19.2 0
v -1.6 -19.2 0
v -1.6 -17.6 0
v 0 -17.6 0
v -24 -20.8 0
v -25.6 -20.8 0
v -25.6 -19.2 0
v -24 -19.2 0
v -22.4 -20.8 0
v -24 -20.8 0
v -24 -19.2 0
v -22.4 -19.2 0
v -20.8 -20.8 0
v -22.4 -20.8 0
v -22.4 -19.2 0
v -20.8 -19.2 0
v -19.2 -20.8 0
v -20.8 -20.8 0
v -20.8 -19.2 0
v -19.2 -19.2 0
v -11.2 -20.8 0
v -12.8 -20.8 0
v -12.8 -19.2 0
v -11.2 -19.2 0
v -9.6 -20.8 0
v -11.2 -20.8 0
v -11.2 -19.2 0
v -9.6 -19.2 0
v -8 -20.8 0
v -9.6 -20.8 0
v -9.6 -19.2 0
v -8 -19.2 0
v -6.4 -20.8 0
v -8 -20.8 0
v -8 -19.2 0
v -6.4 -19.2 0
v -4.8 -20.8 0
v -6.4 -20.8 0
v -6.4 -19.2 0
v -4.8 -19.2 0
v -3.2 -20.8 0
v -4.8 -20.8 0
v -4.8 -19.2 0
v -3.2 -19.2 0
v -1.6 -20.8 0
v -3.2 -20.8 0
v -3.2 -19.2 0
v -1.6 -19.2 0
v 0 -20.8 0
v -1.6 -20.8 0
v -1.6 -19.2 0
v 0 -19.2 0
v -24 -22.4 0
v -25.6 -22.4 0
v -25.6 -20.8 0
v -24 -20.8 0
v -22.4 -22.4 0
v -24 -22.4 0
v -24 -20.8 0
v -22.4 -20.8 0
v -20.8 -22.4 0
v -22.4 -22.4 0
v -22.4 -20.8 0
v -20.8 -20.8 0
v -19.2 -22.4 0
v -20.8 -22.4 0
v -20.8 -20.8 0
v -19.2 -20.8 0
v -11.2 -22.4 0
v -12.8 -22.4 0
v -12.8 -20.8 0
v -11.2 -20.8 0
v -9.6 -22.4 0
v -11.2 -22.4 0
v -11.2 -20.8 0
v -9.6 -20.8 0
v -8 -22.4 0
v -9.6 -22.4 0
v -9.6 -20.8 0
v -8 -20.8 0
v -6.4 -22.4 0
v -8 -22.4 0
v -8 -20.8 0
v -6.4 -20.8 0
v -4.8 -22.4 0
v -6.4 -22.4 0
v -6.4 -20.8 0
v -4.8 -20.8 0
v -3.2 -22.4 0
v -4.8 -22.4 0
v -4.8 -20.8 0
v -3.2 -20.8 0
v -1.6 -22.4 0
v -3.2 -22.4 0
v -3.2 -20.8 0
v -1.6 -20.8 0
v 0 -22.4 0
v -1.6 -22.4 0
v -1.6 -20.8 0
v 0 -20.8 0
v -24 -24 0
v -25.6 -24 0
v -25.6 -22.4 0
v -24 -22.4 0
v -22.4 -24 0
v -24 -24 0
v -24 -22.4 0
v -22.4 -22.4 0
v -20.8 -24 0
v -22.4 -24 0
v -22.4 -22.4 0
v -20.8 -22.4 0
v -19.2 -24 0
v -20.8 -24 0
v -20.8 -22.4 0
v -19.2 -22.4 0
v -17.6 -24 0
v -19.2 -24 0
v -19.2 -22.4 0
v -17.6 -22.4 0
v -11.2 -24 0
v -12.8 -24 0
v -12.8 -22.4 0
v -11.2 -22.4 0
v -9.6 -24 0
v -11.2 -24 0
v -11.2 -22.4 0
v -9.6 -22.4 0
v -8 -24 0
v -9.6 -24 0
v -9.6 -22.4 0
v -8 -22.4 0
v -6.4 -24 0
v -8 -24 0
v -8 -22.4 0
v -6.4 -22.4 0
v -4.8 -24 0
v -6.4 -24 0
v -6.4 -22.4 0
v -4.8 -22.4 0
v -3.2 -24 0
v -4.8 -24 0
v -4.8 -22.4 0
v -3.2 -22.4 0
v -1.6 -24 0
v -3.2 -24 0
v -3.2 -22.4 0
v -1.6 -22.4 0
v 0 -24 0
v -1.6 -24 0
v -1.6 -22.4 0
v 0 -22.4 0
v -24 -25.6 0
v -25.6 -25.6 0
v -25.6 -24 0
v -24 -24 0
v -22.4 -25.6 0
v -24 -25.6 0
v -24 -24 0
v -22.4 -24 0
v -20.8 -25.6 0
v -22.4 -25.6 0
v -22.4 -24 0
v -20.8 -24 0
v -19.2 -25.6 0
v -20.8 -25.6 0
v -20.8 -24 0
v -19.2 -24 0
v -17.6 -25.6 0
v -19.2 -25.6 0
v -19.2 -24 0
v -17.6 -24 0
v -11.2 -25.6 0
v -12.8 -25.6 0
v -12.8 -24 0
v -11.2 -24 0
v -9.6 -25.6 0
v -11.2 -25.6 0
v -11.2 -24 0
v -9.6 -24 0
v -8 -25.6 0
v -9.6 -25.6 0
v -9.6 -24 0
v -8 -24 0
v -6.4 -25.6 0
v -8 -25.6 0
v -8 -24 0
v -6.4 -24 0
v -4.8 -25.6 0
v -6.4 -25.6 0
v -6.4 -24 0
v -4.8 -24 0
v -3.2 -25.6 0
v -4.8 -25.6 0
v -4.8 -24 0
v -3.2 -24 0
v -1.6 -25.6 0
v -3.2 -25.6 0
v -3.2 -24 0
v -1.6 -24 0
v 0 -25.6 0
v -1.6 -25.6 0
v -1.6 -24 0
v 0 -24 0

# Texture cooridinates (Count = 24)
vt 0.6666667 0.375
vt 1 0.375
vt 1 0.5
vt 0.6666667 0.5
vt 0.3333333 0.875
vt 0.6666667 0.875
vt 0.6666667 1
vt 0.3333333 1
vt 0 0.5
vt 0.3333333 0.5
vt 0.3333333 0.625
vt 0 0.625
vt 0.6666667 0.25
vt 1 0.25
vt 1 0.625
vt 0.6666667 0.625
vt 1 0.75
vt 0.6666667 0.75
vt 0.3333333 0.75
vt 1 0.875
vt 1 1
vt 0 0.375
vt 0.3333333 0.375
vt 0 0.75

# Normal
vn 0 0 -1

# Mesh description
g asiatis_mesh_0053

# Faces
f 1/1/1 2/2/1 3/3/1 4/4/1
f 5/5/1 6/6/1 7/7/1 8/8/1
f 9/9/1 10/10/1 11/11/1 12/12/1
f 13/13/1 14/14/1 15/2/1 16/1/1
f 17/13/1 18/14/1 19/2/1 20/1/1
f 21/13/1 22/14/1 23/2/1 24/1/1
f 25/1/1 26/2/1 27/3/1 28/4/1
f 29/5/1 30/6/1 31/7/1 32/8/1
f 33/9/1 34/10/1 35/11/1 36/12/1
f 37/13/1 38/14/1 39/2/1 40/1/1
f 41/13/1 42/14/1 43/2/1 44/1/1
f 45/13/1 46/14/1 47/2/1 48/1/1
f 49/13/1 50/14/1 51/2/1 52/1/1
f 53/1/1 54/2/1 55/3/1 56/4/1
f 57/5/1 58/6/1 59/7/1 60/8/1
f 61/9/1 62/10/1 63/11/1 64/12/1
f 65/13/1 66/14/1 67/2/1 68/1/1
f 69/13/1 70/14/1 71/2/1 72/1/1
f 73/13/1 74/14/1 75/2/1 76/1/1
f 77/13/1 78/14/1 79/2/1 80/1/1
f 81/13/1 82/14/1 83/2/1 84/1/1
f 85/1/1 86/2/1 87/3/1 88/4/1
f 89/5/1 90/6/1 91/7/1 92/8/1
f 93/9/1 94/10/1 95/11/1 96/12/1
f 97/13/1 98/14/1 99/2/1 100/1/1
f 101/13/1 102/14/1 103/2/1 104/1/1
f 105/13/1 106/14/1 107/2/1 108/1/1
f 109/13/1 110/14/1 111/2/1 112/1/1
f 113/13/1 114/14/1 115/2/1 116/1/1
f 117/13/1 118/14/1 119/2/1 120/1/1
f 121/1/1 122/2/1 123/3/1 124/4/1
f 125/5/1 126/6/1 127/7/1 128/8/1
f 129/9/1 130/10/1 131/11/1 132/12/1
f 133/13/1 134/14/1 135/2/1 136/1/1
f 137/13/1 138/14/1 139/2/1 140/1/1
f 141/13/1 142/14/1 143/2/1 144/1/1
f 145/13/1 146/14/1 147/2/1 148/1/1
f 149/13/1 150/14/1 151/2/1 152/1/1
f 153/13/1 154/14/1 155/2/1 156/1/1
f 157/13/1 158/14/1 159/2/1 160/1/1
f 161/4/1 162/3/1 163/15/1 164/16/1
f 165/10/1 166/4/1 167/16/1 168/11/1
f 169/9/1 170/10/1 171/11/1 172/12/1
f 173/13/1 174/14/1 175/2/1 176/1/1
f 177/13/1 178/14/1 179/2/1 180/1/1
f 181/13/1 182/14/1 183/2/1 184/1/1
f 185/13/1 186/14/1 187/2/1 188/1/1
f 189/13/1 190/14/1 191/2/1 192/1/1
f 193/13/1 194/14/1 195/2/1 196/1/1
f 197/16/1 198/15/1 199/17/1 200/18/1
f 201/19/1 202/18/1 203/6/1 204/5/1
f 205/6/1 206/20/1 207/21/1 208/7/1
f 209/22/1 210/23/1 211/10/1 212/9/1
f 213/13/1 214/14/1 215/2/1 216/1/1
f 217/13/1 218/14/1 219/2/1 220/1/1
f 221/13/1 222/14/1 223/2/1 224/1/1
f 225/13/1 226/14/1 227/2/1 228/1/1
f 229/13/1 230/14/1 231/2/1 232/1/1
f 233/13/1 234/14/1 235/2/1 236/1/1
f 237/4/1 238/3/1 239/15/1 240/16/1
f 241/6/1 242/20/1 243/21/1 244/7/1
f 245/22/1 246/23/1 247/10/1 248/9/1
f 249/13/1 250/14/1 251/2/1 252/1/1
f 253/13/1 254/14/1 255/2/1 256/1/1
f 257/13/1 258/14/1 259/2/1 260/1/1
f 261/13/1 262/14/1 263/2/1 264/1/1
f 265/13/1 266/14/1 267/2/1 268/1/1
f 269/13/1 270/14/1 271/2/1 272/1/1
f 273/13/1 274/14/1 275/2/1 276/1/1
f 277/4/1 278/3/1 279/15/1 280/16/1
f 281/6/1 282/20/1 283/21/1 284/7/1
f 285/23/1 286/1/1 287/4/1 288/10/1
f 289/22/1 290/23/1 291/10/1 292/9/1
f 293/13/1 294/14/1 295/2/1 296/1/1
f 297/13/1 298/14/1 299/2/1 300/1/1
f 301/13/1 302/14/1 303/2/1 304/1/1
f 305/13/1 306/14/1 307/2/1 308/1/1
f 309/13/1 310/14/1 311/2/1 312/1/1
f 313/13/1 314/14/1 315/2/1 316/1/1
f 317/13/1 318/14/1 319/2/1 320/1/1
f 321/16/1 322/15/1 323/17/1 324/18/1
f 325/19/1 326/18/1 327/6/1 328/5/1
f 329/10/1 330/4/1 331/16/1 332/11/1
f 333/6/1 334/20/1 335/21/1 336/7/1
f 337/22/1 338/23/1 339/10/1 340/9/1
f 341/13/1 342/14/1 343/2/1 344/1/1
f 345/13/1 346/14/1 347/2/1 348/1/1
f 349/13/1 350/14/1 351/2/1 352/1/1
f 353/13/1 354/14/1 355/2/1 356/1/1
f 357/13/1 358/14/1 359/2/1 360/1/1
f 361/13/1 362/14/1 363/2/1 364/1/1
f 365/13/1 366/14/1 367/2/1 368/1/1
f 369/13/1 370/14/1 371/2/1 372/1/1
f 373/13/1 374/14/1 375/2/1 376/1/1
f 377/4/1 378/3/1 379/15/1 380/16/1
f 381/9/1 382/10/1 383/11/1 384/12/1
f 385/13/1 386/14/1 387/2/1 388/1/1
f 389/13/1 390/14/1 391/2/1 392/1/1
f 393/13/1 394/14/1 395/2/1 396/1/1
f 397/13/1 398/14/1 399/2/1 400/1/1
f 401/13/1 402/14/1 403/2/1 404/1/1
f 405/13/1 406/14/1 407/2/1 408/1/1
f 409/13/1 410/14/1 411/2/1 412/1/1
f 413/13/1 414/14/1 415/2/1 416/1/1
f 417/13/1 418/14/1 419/2/1 420/1/1
f 421/13/1 422/14/1 423/2/1 424/1/1
f 425/4/1 426/3/1 427/15/1 428/16/1
f 429/9/1 430/10/1 431/11/1 432/12/1
f 433/13/1 434/14/1 435/2/1 436/1/1
f 437/13/1 438/14/1 439/2/1 440/1/1
f 441/13/1 442/14/1 443/2/1 444/1/1
f 445/13/1 446/14/1 447/2/1 448/1/1
f 449/13/1 450/14/1 451/2/1 452/1/1
f 453/13/1 454/14/1 455/2/1 456/1/1
f 457/13/1 458/14/1 459/2/1 460/1/1
f 461/13/1 462/14/1 463/2/1 464/1/1
f 465/13/1 466/14/1 467/2/1 468/1/1
f 469/13/1 470/14/1 471/2/1 472/1/1
f 473/4/1 474/3/1 475/15/1 476/16/1
f 477/9/1 478/10/1 479/11/1 480/12/1
f 481/13/1 482/14/1 483/2/1 484/1/1
f 485/13/1 486/14/1 487/2/1 488/1/1
f 489/13/1 490/14/1 491/2/1 492/1/1
f 493/13/1 494/14/1 495/2/1 496/1/1
f 497/13/1 498/14/1 499/2/1 500/1/1
f 501/13/1 502/14/1 503/2/1 504/1/1
f 505/13/1 506/14/1 507/2/1 508/1/1
f 509/13/1 510/14/1 511/2/1 512/1/1
f 513/13/1 514/14/1 515/2/1 516/1/1
f 517/13/1 518/14/1 519/2/1 520/1/1
f 521/4/1 522/3/1 523/15/1 524/16/1
f 525/9/1 526/10/1 527/11/1 528/12/1
f 529/13/1 530/14/1 531/2/1 532/1/1
f 533/13/1 534/14/1 535/2/1 536/1/1
f 537/13/1 538/14/1 539/2/1 540/1/1
f 541/13/1 542/14/1 543/2/1 544/1/1
f 545/13/1 546/14/1 547/2/1 548/1/1
f 549/13/1 550/14/1 551/2/1 552/1/1
f 553/13/1 554/14/1 555/2/1 556/1/1
f 557/13/1 558/14/1 559/2/1 560/1/1
f 561/13/1 562/14/1 563/2/1 564/1/1
f 565/13/1 566/14/1 567/2/1 568/1/1
f 569/1/1 570/2/1 571/3/1 572/4/1
f 573/5/1 574/6/1 575/7/1 576/8/1
f 577/9/1 578/10/1 579/11/1 580/12/1
f 581/13/1 582/14/1 583/2/1 584/1/1
f 585/13/1 586/14/1 587/2/1 588/1/1
f 589/13/1 590/14/1 591/2/1 592/1/1
f 593/13/1 594/14/1 595/2/1 596/1/1
f 597/13/1 598/14/1 599/2/1 600/1/1
f 601/13/1 602/14/1 603/2/1 604/1/1
f 605/13/1 606/14/1 607/2/1 608/1/1
f 609/13/1 610/14/1 611/2/1 612/1/1
f 613/13/1 614/14/1 615/2/1 616/1/1
f 617/13/1 618/14/1 619/2/1 620/1/1
f 621/13/1 622/14/1 623/2/1 624/1/1
f 625/4/1 626/3/1 627/15/1 628/16/1
f 629/18/1 630/17/1 631/20/1 632/6/1
f 633/12/1 634/11/1 635/19/1 636/24/1
f 637/13/1 638/14/1 639/2/1 640/1/1
f 641/13/1 642/14/1 643/2/1 644/1/1
f 645/13/1 646/14/1 647/2/1 648/1/1
f 649/13/1 650/14/1 651/2/1 652/1/1
f 653/13/1 654/14/1 655/2/1 656/1/1
f 657/13/1 658/14/1 659/2/1 660/1/1

