# Tiled2Unity generated file. Do not modify by hand.
# Wavefront file for 'asiatis_mesh_0082.obj'

# Vertices (Count = 12)
v -6.4 -24 0
v -8 -24 0
v -8 -22.4 0
v -6.4 -22.4 0
v -6.4 -25.6 0
v -8 -25.6 0
v -8 -24 0
v -6.4 -24 0
v -4.8 -25.6 0
v -6.4 -25.6 0
v -6.4 -24 0
v -4.8 -24 0

# Texture cooridinates (Count = 8)
vt 0.3333333 0.5
vt 0.6666667 0.5
vt 0.6666667 0.625
vt 0.3333333 0.625
vt 0.3333333 0
vt 0.6666667 0
vt 0.6666667 0.125
vt 0.3333333 0.125

# Normal
vn 0 0 -1

# Mesh description
g asiatis_mesh_0082

# Faces
f 1/1/1 2/2/1 3/3/1 4/4/1
f 5/5/1 6/6/1 7/7/1 8/8/1
f 9/1/1 10/2/1 11/3/1 12/4/1

