# Tiled2Unity generated file. Do not modify by hand.
# Wavefront file for 'asiatis_mesh_0040.obj'

# Vertices (Count = 192)
v -24 -1.6 0
v -25.6 -1.6 0
v -25.6 0 0
v -24 0 0
v -22.4 -1.6 0
v -24 -1.6 0
v -24 0 0
v -22.4 0 0
v -20.8 -1.6 0
v -22.4 -1.6 0
v -22.4 0 0
v -20.8 0 0
v -19.2 -1.6 0
v -20.8 -1.6 0
v -20.8 0 0
v -19.2 0 0
v -17.6 -1.6 0
v -19.2 -1.6 0
v -19.2 0 0
v -17.6 0 0
v -16 -1.6 0
v -17.6 -1.6 0
v -17.6 0 0
v -16 0 0
v -14.4 -1.6 0
v -16 -1.6 0
v -16 0 0
v -14.4 0 0
v -12.8 -1.6 0
v -14.4 -1.6 0
v -14.4 0 0
v -12.8 0 0
v -11.2 -1.6 0
v -12.8 -1.6 0
v -12.8 0 0
v -11.2 0 0
v -9.6 -1.6 0
v -11.2 -1.6 0
v -11.2 0 0
v -9.6 0 0
v -8 -1.6 0
v -9.6 -1.6 0
v -9.6 0 0
v -8 0 0
v -6.4 -1.6 0
v -8 -1.6 0
v -8 0 0
v -6.4 0 0
v -4.8 -1.6 0
v -6.4 -1.6 0
v -6.4 0 0
v -4.8 0 0
v -3.2 -1.6 0
v -4.8 -1.6 0
v -4.8 0 0
v -3.2 0 0
v -1.6 -1.6 0
v -3.2 -1.6 0
v -3.2 0 0
v -1.6 0 0
v 0 -1.6 0
v -1.6 -1.6 0
v -1.6 0 0
v 0 0 0
v -24 -3.2 0
v -25.6 -3.2 0
v -25.6 -1.6 0
v -24 -1.6 0
v -22.4 -3.2 0
v -24 -3.2 0
v -24 -1.6 0
v -22.4 -1.6 0
v -20.8 -3.2 0
v -22.4 -3.2 0
v -22.4 -1.6 0
v -20.8 -1.6 0
v -19.2 -3.2 0
v -20.8 -3.2 0
v -20.8 -1.6 0
v -19.2 -1.6 0
v -17.6 -3.2 0
v -19.2 -3.2 0
v -19.2 -1.6 0
v -17.6 -1.6 0
v -16 -3.2 0
v -17.6 -3.2 0
v -17.6 -1.6 0
v -16 -1.6 0
v -14.4 -3.2 0
v -16 -3.2 0
v -16 -1.6 0
v -14.4 -1.6 0
v -12.8 -3.2 0
v -14.4 -3.2 0
v -14.4 -1.6 0
v -12.8 -1.6 0
v -11.2 -3.2 0
v -12.8 -3.2 0
v -12.8 -1.6 0
v -11.2 -1.6 0
v -9.6 -3.2 0
v -11.2 -3.2 0
v -11.2 -1.6 0
v -9.6 -1.6 0
v -8 -3.2 0
v -9.6 -3.2 0
v -9.6 -1.6 0
v -8 -1.6 0
v -6.4 -3.2 0
v -8 -3.2 0
v -8 -1.6 0
v -6.4 -1.6 0
v -4.8 -3.2 0
v -6.4 -3.2 0
v -6.4 -1.6 0
v -4.8 -1.6 0
v -3.2 -3.2 0
v -4.8 -3.2 0
v -4.8 -1.6 0
v -3.2 -1.6 0
v -1.6 -3.2 0
v -3.2 -3.2 0
v -3.2 -1.6 0
v -1.6 -1.6 0
v 0 -3.2 0
v -1.6 -3.2 0
v -1.6 -1.6 0
v 0 -1.6 0
v -24 -4.8 0
v -25.6 -4.8 0
v -25.6 -3.2 0
v -24 -3.2 0
v -22.4 -4.8 0
v -24 -4.8 0
v -24 -3.2 0
v -22.4 -3.2 0
v -20.8 -4.8 0
v -22.4 -4.8 0
v -22.4 -3.2 0
v -20.8 -3.2 0
v -19.2 -4.8 0
v -20.8 -4.8 0
v -20.8 -3.2 0
v -19.2 -3.2 0
v -17.6 -4.8 0
v -19.2 -4.8 0
v -19.2 -3.2 0
v -17.6 -3.2 0
v -16 -4.8 0
v -17.6 -4.8 0
v -17.6 -3.2 0
v -16 -3.2 0
v -14.4 -4.8 0
v -16 -4.8 0
v -16 -3.2 0
v -14.4 -3.2 0
v -12.8 -4.8 0
v -14.4 -4.8 0
v -14.4 -3.2 0
v -12.8 -3.2 0
v -11.2 -4.8 0
v -12.8 -4.8 0
v -12.8 -3.2 0
v -11.2 -3.2 0
v -9.6 -4.8 0
v -11.2 -4.8 0
v -11.2 -3.2 0
v -9.6 -3.2 0
v -8 -4.8 0
v -9.6 -4.8 0
v -9.6 -3.2 0
v -8 -3.2 0
v -6.4 -4.8 0
v -8 -4.8 0
v -8 -3.2 0
v -6.4 -3.2 0
v -4.8 -4.8 0
v -6.4 -4.8 0
v -6.4 -3.2 0
v -4.8 -3.2 0
v -3.2 -4.8 0
v -4.8 -4.8 0
v -4.8 -3.2 0
v -3.2 -3.2 0
v -1.6 -4.8 0
v -3.2 -4.8 0
v -3.2 -3.2 0
v -1.6 -3.2 0
v 0 -4.8 0
v -1.6 -4.8 0
v -1.6 -3.2 0
v 0 -3.2 0

# Texture cooridinates (Count = 8)
vt 0.6666667 0.25
vt 1 0.25
vt 1 0.375
vt 0.6666667 0.375
vt 0.3333333 0.625
vt 0.6666667 0.625
vt 0.6666667 0.75
vt 0.3333333 0.75

# Normal
vn 0 0 -1

# Mesh description
g asiatis_mesh_0040

# Faces
f 1/1/1 2/2/1 3/3/1 4/4/1
f 5/1/1 6/2/1 7/3/1 8/4/1
f 9/1/1 10/2/1 11/3/1 12/4/1
f 13/1/1 14/2/1 15/3/1 16/4/1
f 17/1/1 18/2/1 19/3/1 20/4/1
f 21/1/1 22/2/1 23/3/1 24/4/1
f 25/1/1 26/2/1 27/3/1 28/4/1
f 29/1/1 30/2/1 31/3/1 32/4/1
f 33/1/1 34/2/1 35/3/1 36/4/1
f 37/1/1 38/2/1 39/3/1 40/4/1
f 41/1/1 42/2/1 43/3/1 44/4/1
f 45/1/1 46/2/1 47/3/1 48/4/1
f 49/1/1 50/2/1 51/3/1 52/4/1
f 53/1/1 54/2/1 55/3/1 56/4/1
f 57/1/1 58/2/1 59/3/1 60/4/1
f 61/1/1 62/2/1 63/3/1 64/4/1
f 65/1/1 66/2/1 67/3/1 68/4/1
f 69/1/1 70/2/1 71/3/1 72/4/1
f 73/1/1 74/2/1 75/3/1 76/4/1
f 77/1/1 78/2/1 79/3/1 80/4/1
f 81/1/1 82/2/1 83/3/1 84/4/1
f 85/1/1 86/2/1 87/3/1 88/4/1
f 89/1/1 90/2/1 91/3/1 92/4/1
f 93/1/1 94/2/1 95/3/1 96/4/1
f 97/1/1 98/2/1 99/3/1 100/4/1
f 101/1/1 102/2/1 103/3/1 104/4/1
f 105/1/1 106/2/1 107/3/1 108/4/1
f 109/1/1 110/2/1 111/3/1 112/4/1
f 113/1/1 114/2/1 115/3/1 116/4/1
f 117/1/1 118/2/1 119/3/1 120/4/1
f 121/1/1 122/2/1 123/3/1 124/4/1
f 125/1/1 126/2/1 127/3/1 128/4/1
f 129/5/1 130/6/1 131/7/1 132/8/1
f 133/5/1 134/6/1 135/7/1 136/8/1
f 137/5/1 138/6/1 139/7/1 140/8/1
f 141/5/1 142/6/1 143/7/1 144/8/1
f 145/5/1 146/6/1 147/7/1 148/8/1
f 149/5/1 150/6/1 151/7/1 152/8/1
f 153/5/1 154/6/1 155/7/1 156/8/1
f 157/5/1 158/6/1 159/7/1 160/8/1
f 161/5/1 162/6/1 163/7/1 164/8/1
f 165/5/1 166/6/1 167/7/1 168/8/1
f 169/5/1 170/6/1 171/7/1 172/8/1
f 173/5/1 174/6/1 175/7/1 176/8/1
f 177/5/1 178/6/1 179/7/1 180/8/1
f 181/5/1 182/6/1 183/7/1 184/8/1
f 185/5/1 186/6/1 187/7/1 188/8/1
f 189/5/1 190/6/1 191/7/1 192/8/1

