# Tiled2Unity generated file. Do not modify by hand.
# Wavefront file for 'asiatis_mesh_0063.obj'

# Vertices (Count = 512)
v -24 -3.2 0
v -25.6 -3.2 0
v -25.6 -1.6 0
v -24 -1.6 0
v -24 -4.8 0
v -25.6 -4.8 0
v -25.6 -3.2 0
v -24 -3.2 0
v -22.4 -4.8 0
v -24 -4.8 0
v -24 -3.2 0
v -22.4 -3.2 0
v -24 -6.4 0
v -25.6 -6.4 0
v -25.6 -4.8 0
v -24 -4.8 0
v -22.4 -6.4 0
v -24 -6.4 0
v -24 -4.8 0
v -22.4 -4.8 0
v -20.8 -6.4 0
v -22.4 -6.4 0
v -22.4 -4.8 0
v -20.8 -4.8 0
v -24 -8 0
v -25.6 -8 0
v -25.6 -6.4 0
v -24 -6.4 0
v -22.4 -8 0
v -24 -8 0
v -24 -6.4 0
v -22.4 -6.4 0
v -20.8 -8 0
v -22.4 -8 0
v -22.4 -6.4 0
v -20.8 -6.4 0
v -3.2 -8 0
v -4.8 -8 0
v -4.8 -6.4 0
v -3.2 -6.4 0
v -1.6 -8 0
v -3.2 -8 0
v -3.2 -6.4 0
v -1.6 -6.4 0
v 0 -8 0
v -1.6 -8 0
v -1.6 -6.4 0
v 0 -6.4 0
v -24 -9.6 0
v -25.6 -9.6 0
v -25.6 -8 0
v -24 -8 0
v -22.4 -9.6 0
v -24 -9.6 0
v -24 -8 0
v -22.4 -8 0
v -20.8 -9.6 0
v -22.4 -9.6 0
v -22.4 -8 0
v -20.8 -8 0
v -9.6 -9.6 0
v -11.2 -9.6 0
v -11.2 -8 0
v -9.6 -8 0
v -8 -9.6 0
v -9.6 -9.6 0
v -9.6 -8 0
v -8 -8 0
v -6.4 -9.6 0
v -8 -9.6 0
v -8 -8 0
v -6.4 -8 0
v -4.8 -9.6 0
v -6.4 -9.6 0
v -6.4 -8 0
v -4.8 -8 0
v -3.2 -9.6 0
v -4.8 -9.6 0
v -4.8 -8 0
v -3.2 -8 0
v -1.6 -9.6 0
v -3.2 -9.6 0
v -3.2 -8 0
v -1.6 -8 0
v 0 -9.6 0
v -1.6 -9.6 0
v -1.6 -8 0
v 0 -8 0
v -24 -11.2 0
v -25.6 -11.2 0
v -25.6 -9.6 0
v -24 -9.6 0
v -22.4 -11.2 0
v -24 -11.2 0
v -24 -9.6 0
v -22.4 -9.6 0
v -20.8 -11.2 0
v -22.4 -11.2 0
v -22.4 -9.6 0
v -20.8 -9.6 0
v -19.2 -11.2 0
v -20.8 -11.2 0
v -20.8 -9.6 0
v -19.2 -9.6 0
v -17.6 -11.2 0
v -19.2 -11.2 0
v -19.2 -9.6 0
v -17.6 -9.6 0
v -16 -11.2 0
v -17.6 -11.2 0
v -17.6 -9.6 0
v -16 -9.6 0
v -14.4 -11.2 0
v -16 -11.2 0
v -16 -9.6 0
v -14.4 -9.6 0
v -12.8 -11.2 0
v -14.4 -11.2 0
v -14.4 -9.6 0
v -12.8 -9.6 0
v -11.2 -11.2 0
v -12.8 -11.2 0
v -12.8 -9.6 0
v -11.2 -9.6 0
v -9.6 -11.2 0
v -11.2 -11.2 0
v -11.2 -9.6 0
v -9.6 -9.6 0
v -8 -11.2 0
v -9.6 -11.2 0
v -9.6 -9.6 0
v -8 -9.6 0
v -6.4 -11.2 0
v -8 -11.2 0
v -8 -9.6 0
v -6.4 -9.6 0
v -4.8 -11.2 0
v -6.4 -11.2 0
v -6.4 -9.6 0
v -4.8 -9.6 0
v -3.2 -11.2 0
v -4.8 -11.2 0
v -4.8 -9.6 0
v -3.2 -9.6 0
v -1.6 -11.2 0
v -3.2 -11.2 0
v -3.2 -9.6 0
v -1.6 -9.6 0
v 0 -11.2 0
v -1.6 -11.2 0
v -1.6 -9.6 0
v 0 -9.6 0
v -24 -12.8 0
v -25.6 -12.8 0
v -25.6 -11.2 0
v -24 -11.2 0
v -22.4 -12.8 0
v -24 -12.8 0
v -24 -11.2 0
v -22.4 -11.2 0
v -20.8 -12.8 0
v -22.4 -12.8 0
v -22.4 -11.2 0
v -20.8 -11.2 0
v -19.2 -12.8 0
v -20.8 -12.8 0
v -20.8 -11.2 0
v -19.2 -11.2 0
v -17.6 -12.8 0
v -19.2 -12.8 0
v -19.2 -11.2 0
v -17.6 -11.2 0
v -16 -12.8 0
v -17.6 -12.8 0
v -17.6 -11.2 0
v -16 -11.2 0
v -14.4 -12.8 0
v -16 -12.8 0
v -16 -11.2 0
v -14.4 -11.2 0
v -12.8 -12.8 0
v -14.4 -12.8 0
v -14.4 -11.2 0
v -12.8 -11.2 0
v -11.2 -12.8 0
v -12.8 -12.8 0
v -12.8 -11.2 0
v -11.2 -11.2 0
v -9.6 -12.8 0
v -11.2 -12.8 0
v -11.2 -11.2 0
v -9.6 -11.2 0
v -8 -12.8 0
v -9.6 -12.8 0
v -9.6 -11.2 0
v -8 -11.2 0
v -6.4 -12.8 0
v -8 -12.8 0
v -8 -11.2 0
v -6.4 -11.2 0
v -4.8 -12.8 0
v -6.4 -12.8 0
v -6.4 -11.2 0
v -4.8 -11.2 0
v -3.2 -12.8 0
v -4.8 -12.8 0
v -4.8 -11.2 0
v -3.2 -11.2 0
v -1.6 -12.8 0
v -3.2 -12.8 0
v -3.2 -11.2 0
v -1.6 -11.2 0
v 0 -12.8 0
v -1.6 -12.8 0
v -1.6 -11.2 0
v 0 -11.2 0
v -24 -14.4 0
v -25.6 -14.4 0
v -25.6 -12.8 0
v -24 -12.8 0
v -22.4 -14.4 0
v -24 -14.4 0
v -24 -12.8 0
v -22.4 -12.8 0
v -20.8 -14.4 0
v -22.4 -14.4 0
v -22.4 -12.8 0
v -20.8 -12.8 0
v -19.2 -14.4 0
v -20.8 -14.4 0
v -20.8 -12.8 0
v -19.2 -12.8 0
v -17.6 -14.4 0
v -19.2 -14.4 0
v -19.2 -12.8 0
v -17.6 -12.8 0
v -16 -14.4 0
v -17.6 -14.4 0
v -17.6 -12.8 0
v -16 -12.8 0
v -14.4 -14.4 0
v -16 -14.4 0
v -16 -12.8 0
v -14.4 -12.8 0
v -12.8 -14.4 0
v -14.4 -14.4 0
v -14.4 -12.8 0
v -12.8 -12.8 0
v -11.2 -14.4 0
v -12.8 -14.4 0
v -12.8 -12.8 0
v -11.2 -12.8 0
v -9.6 -14.4 0
v -11.2 -14.4 0
v -11.2 -12.8 0
v -9.6 -12.8 0
v -8 -14.4 0
v -9.6 -14.4 0
v -9.6 -12.8 0
v -8 -12.8 0
v -6.4 -14.4 0
v -8 -14.4 0
v -8 -12.8 0
v -6.4 -12.8 0
v -4.8 -14.4 0
v -6.4 -14.4 0
v -6.4 -12.8 0
v -4.8 -12.8 0
v -3.2 -14.4 0
v -4.8 -14.4 0
v -4.8 -12.8 0
v -3.2 -12.8 0
v -1.6 -14.4 0
v -3.2 -14.4 0
v -3.2 -12.8 0
v -1.6 -12.8 0
v 0 -14.4 0
v -1.6 -14.4 0
v -1.6 -12.8 0
v 0 -12.8 0
v -22.4 -16 0
v -24 -16 0
v -24 -14.4 0
v -22.4 -14.4 0
v -20.8 -16 0
v -22.4 -16 0
v -22.4 -14.4 0
v -20.8 -14.4 0
v -19.2 -16 0
v -20.8 -16 0
v -20.8 -14.4 0
v -19.2 -14.4 0
v -17.6 -16 0
v -19.2 -16 0
v -19.2 -14.4 0
v -17.6 -14.4 0
v -16 -16 0
v -17.6 -16 0
v -17.6 -14.4 0
v -16 -14.4 0
v -14.4 -16 0
v -16 -16 0
v -16 -14.4 0
v -14.4 -14.4 0
v -12.8 -16 0
v -14.4 -16 0
v -14.4 -14.4 0
v -12.8 -14.4 0
v -11.2 -16 0
v -12.8 -16 0
v -12.8 -14.4 0
v -11.2 -14.4 0
v -9.6 -16 0
v -11.2 -16 0
v -11.2 -14.4 0
v -9.6 -14.4 0
v -22.4 -17.6 0
v -24 -17.6 0
v -24 -16 0
v -22.4 -16 0
v -20.8 -17.6 0
v -22.4 -17.6 0
v -22.4 -16 0
v -20.8 -16 0
v -19.2 -17.6 0
v -20.8 -17.6 0
v -20.8 -16 0
v -19.2 -16 0
v -17.6 -17.6 0
v -19.2 -17.6 0
v -19.2 -16 0
v -17.6 -16 0
v -16 -17.6 0
v -17.6 -17.6 0
v -17.6 -16 0
v -16 -16 0
v -14.4 -17.6 0
v -16 -17.6 0
v -16 -16 0
v -14.4 -16 0
v -12.8 -17.6 0
v -14.4 -17.6 0
v -14.4 -16 0
v -12.8 -16 0
v -11.2 -17.6 0
v -12.8 -17.6 0
v -12.8 -16 0
v -11.2 -16 0
v -22.4 -19.2 0
v -24 -19.2 0
v -24 -17.6 0
v -22.4 -17.6 0
v -20.8 -19.2 0
v -22.4 -19.2 0
v -22.4 -17.6 0
v -20.8 -17.6 0
v -19.2 -19.2 0
v -20.8 -19.2 0
v -20.8 -17.6 0
v -19.2 -17.6 0
v -17.6 -19.2 0
v -19.2 -19.2 0
v -19.2 -17.6 0
v -17.6 -17.6 0
v -16 -19.2 0
v -17.6 -19.2 0
v -17.6 -17.6 0
v -16 -17.6 0
v -14.4 -19.2 0
v -16 -19.2 0
v -16 -17.6 0
v -14.4 -17.6 0
v -12.8 -19.2 0
v -14.4 -19.2 0
v -14.4 -17.6 0
v -12.8 -17.6 0
v -22.4 -20.8 0
v -24 -20.8 0
v -24 -19.2 0
v -22.4 -19.2 0
v -20.8 -20.8 0
v -22.4 -20.8 0
v -22.4 -19.2 0
v -20.8 -19.2 0
v -19.2 -20.8 0
v -20.8 -20.8 0
v -20.8 -19.2 0
v -19.2 -19.2 0
v -17.6 -20.8 0
v -19.2 -20.8 0
v -19.2 -19.2 0
v -17.6 -19.2 0
v -16 -20.8 0
v -17.6 -20.8 0
v -17.6 -19.2 0
v -16 -19.2 0
v -14.4 -20.8 0
v -16 -20.8 0
v -16 -19.2 0
v -14.4 -19.2 0
v -12.8 -20.8 0
v -14.4 -20.8 0
v -14.4 -19.2 0
v -12.8 -19.2 0
v -11.2 -20.8 0
v -12.8 -20.8 0
v -12.8 -19.2 0
v -11.2 -19.2 0
v -22.4 -22.4 0
v -24 -22.4 0
v -24 -20.8 0
v -22.4 -20.8 0
v -20.8 -22.4 0
v -22.4 -22.4 0
v -22.4 -20.8 0
v -20.8 -20.8 0
v -19.2 -22.4 0
v -20.8 -22.4 0
v -20.8 -20.8 0
v -19.2 -20.8 0
v -17.6 -22.4 0
v -19.2 -22.4 0
v -19.2 -20.8 0
v -17.6 -20.8 0
v -16 -22.4 0
v -17.6 -22.4 0
v -17.6 -20.8 0
v -16 -20.8 0
v -14.4 -22.4 0
v -16 -22.4 0
v -16 -20.8 0
v -14.4 -20.8 0
v -12.8 -22.4 0
v -14.4 -22.4 0
v -14.4 -20.8 0
v -12.8 -20.8 0
v -11.2 -22.4 0
v -12.8 -22.4 0
v -12.8 -20.8 0
v -11.2 -20.8 0
v -9.6 -22.4 0
v -11.2 -22.4 0
v -11.2 -20.8 0
v -9.6 -20.8 0
v -22.4 -24 0
v -24 -24 0
v -24 -22.4 0
v -22.4 -22.4 0
v -20.8 -24 0
v -22.4 -24 0
v -22.4 -22.4 0
v -20.8 -22.4 0
v -19.2 -24 0
v -20.8 -24 0
v -20.8 -22.4 0
v -19.2 -22.4 0
v -17.6 -24 0
v -19.2 -24 0
v -19.2 -22.4 0
v -17.6 -22.4 0
v -16 -24 0
v -17.6 -24 0
v -17.6 -22.4 0
v -16 -22.4 0
v -14.4 -24 0
v -16 -24 0
v -16 -22.4 0
v -14.4 -22.4 0
v -12.8 -24 0
v -14.4 -24 0
v -14.4 -22.4 0
v -12.8 -22.4 0
v -11.2 -24 0
v -12.8 -24 0
v -12.8 -22.4 0
v -11.2 -22.4 0
v -9.6 -24 0
v -11.2 -24 0
v -11.2 -22.4 0
v -9.6 -22.4 0
v -20.8 -25.6 0
v -22.4 -25.6 0
v -22.4 -24 0
v -20.8 -24 0
v -19.2 -25.6 0
v -20.8 -25.6 0
v -20.8 -24 0
v -19.2 -24 0
v -17.6 -25.6 0
v -19.2 -25.6 0
v -19.2 -24 0
v -17.6 -24 0
v -16 -25.6 0
v -17.6 -25.6 0
v -17.6 -24 0
v -16 -24 0
v -14.4 -25.6 0
v -16 -25.6 0
v -16 -24 0
v -14.4 -24 0
v -12.8 -25.6 0
v -14.4 -25.6 0
v -14.4 -24 0
v -12.8 -24 0
v -11.2 -25.6 0
v -12.8 -25.6 0
v -12.8 -24 0
v -11.2 -24 0
v -9.6 -25.6 0
v -11.2 -25.6 0
v -11.2 -24 0
v -9.6 -24 0

# Texture cooridinates (Count = 24)
vt 0.3333333 0.875
vt 0.6666667 0.875
vt 0.6666667 1
vt 0.3333333 1
vt 0.6666667 0.375
vt 1 0.375
vt 1 0.5
vt 0.6666667 0.5
vt 0.6666667 0.25
vt 1 0.25
vt 1 0.625
vt 0.6666667 0.625
vt 1 0.875
vt 1 1
vt 0.3333333 0.375
vt 0.3333333 0.5
vt 0 0.375
vt 0 0.5
vt 0 0.625
vt 0.3333333 0.625
vt 0.3333333 0.75
vt 0 0.75
vt 1 0.75
vt 0.6666667 0.75

# Normal
vn 0 0 -1

# Mesh description
g asiatis_mesh_0063

# Faces
f 1/1/1 2/2/1 3/3/1 4/4/1
f 5/5/1 6/6/1 7/7/1 8/8/1
f 9/1/1 10/2/1 11/3/1 12/4/1
f 13/9/1 14/10/1 15/6/1 16/5/1
f 17/5/1 18/6/1 19/7/1 20/8/1
f 21/1/1 22/2/1 23/3/1 24/4/1
f 25/9/1 26/10/1 27/6/1 28/5/1
f 29/9/1 30/10/1 31/6/1 32/5/1
f 33/8/1 34/7/1 35/11/1 36/12/1
f 37/2/1 38/13/1 39/14/1 40/3/1
f 41/15/1 42/5/1 43/8/1 44/16/1
f 45/15/1 46/5/1 47/8/1 48/16/1
f 49/9/1 50/10/1 51/6/1 52/5/1
f 53/9/1 54/10/1 55/6/1 56/5/1
f 57/8/1 58/7/1 59/11/1 60/12/1
f 61/2/1 62/13/1 63/14/1 64/3/1
f 65/15/1 66/5/1 67/8/1 68/16/1
f 69/15/1 70/5/1 71/8/1 72/16/1
f 73/15/1 74/5/1 75/8/1 76/16/1
f 77/17/1 78/15/1 79/16/1 80/18/1
f 81/9/1 82/10/1 83/6/1 84/5/1
f 85/9/1 86/10/1 87/6/1 88/5/1
f 89/9/1 90/10/1 91/6/1 92/5/1
f 93/9/1 94/10/1 95/6/1 96/5/1
f 97/5/1 98/6/1 99/7/1 100/8/1
f 101/15/1 102/5/1 103/8/1 104/16/1
f 105/15/1 106/5/1 107/8/1 108/16/1
f 109/15/1 110/5/1 111/8/1 112/16/1
f 113/15/1 114/5/1 115/8/1 116/16/1
f 117/1/1 118/2/1 119/3/1 120/4/1
f 121/2/1 122/13/1 123/14/1 124/3/1
f 125/17/1 126/15/1 127/16/1 128/18/1
f 129/9/1 130/10/1 131/6/1 132/5/1
f 133/9/1 134/10/1 135/6/1 136/5/1
f 137/9/1 138/10/1 139/6/1 140/5/1
f 141/9/1 142/10/1 143/6/1 144/5/1
f 145/9/1 146/10/1 147/6/1 148/5/1
f 149/9/1 150/10/1 151/6/1 152/5/1
f 153/19/1 154/20/1 155/21/1 156/22/1
f 157/9/1 158/10/1 159/6/1 160/5/1
f 161/9/1 162/10/1 163/6/1 164/5/1
f 165/9/1 166/10/1 167/6/1 168/5/1
f 169/9/1 170/10/1 171/6/1 172/5/1
f 173/9/1 174/10/1 175/6/1 176/5/1
f 177/9/1 178/10/1 179/6/1 180/5/1
f 181/5/1 182/6/1 183/7/1 184/8/1
f 185/17/1 186/15/1 187/16/1 188/18/1
f 189/9/1 190/10/1 191/6/1 192/5/1
f 193/9/1 194/10/1 195/6/1 196/5/1
f 197/9/1 198/10/1 199/6/1 200/5/1
f 201/9/1 202/10/1 203/6/1 204/5/1
f 205/9/1 206/10/1 207/6/1 208/5/1
f 209/9/1 210/10/1 211/6/1 212/5/1
f 213/12/1 214/11/1 215/23/1 216/24/1
f 217/24/1 218/23/1 219/13/1 220/2/1
f 221/19/1 222/20/1 223/21/1 224/22/1
f 225/9/1 226/10/1 227/6/1 228/5/1
f 229/9/1 230/10/1 231/6/1 232/5/1
f 233/9/1 234/10/1 235/6/1 236/5/1
f 237/9/1 238/10/1 239/6/1 240/5/1
f 241/9/1 242/10/1 243/6/1 244/5/1
f 245/9/1 246/10/1 247/6/1 248/5/1
f 249/9/1 250/10/1 251/6/1 252/5/1
f 253/12/1 254/11/1 255/23/1 256/24/1
f 257/20/1 258/12/1 259/24/1 260/21/1
f 261/20/1 262/12/1 263/24/1 264/21/1
f 265/20/1 266/12/1 267/24/1 268/21/1
f 269/20/1 270/12/1 271/24/1 272/21/1
f 273/20/1 274/12/1 275/24/1 276/21/1
f 277/21/1 278/24/1 279/2/1 280/1/1
f 281/18/1 282/16/1 283/20/1 284/19/1
f 285/9/1 286/10/1 287/6/1 288/5/1
f 289/9/1 290/10/1 291/6/1 292/5/1
f 293/9/1 294/10/1 295/6/1 296/5/1
f 297/9/1 298/10/1 299/6/1 300/5/1
f 301/9/1 302/10/1 303/6/1 304/5/1
f 305/9/1 306/10/1 307/6/1 308/5/1
f 309/12/1 310/11/1 311/23/1 312/24/1
f 313/21/1 314/24/1 315/2/1 316/1/1
f 317/18/1 318/16/1 319/20/1 320/19/1
f 321/9/1 322/10/1 323/6/1 324/5/1
f 325/9/1 326/10/1 327/6/1 328/5/1
f 329/9/1 330/10/1 331/6/1 332/5/1
f 333/9/1 334/10/1 335/6/1 336/5/1
f 337/9/1 338/10/1 339/6/1 340/5/1
f 341/12/1 342/11/1 343/23/1 344/24/1
f 345/21/1 346/24/1 347/2/1 348/1/1
f 349/18/1 350/16/1 351/20/1 352/19/1
f 353/9/1 354/10/1 355/6/1 356/5/1
f 357/9/1 358/10/1 359/6/1 360/5/1
f 361/9/1 362/10/1 363/6/1 364/5/1
f 365/9/1 366/10/1 367/6/1 368/5/1
f 369/9/1 370/10/1 371/6/1 372/5/1
f 373/8/1 374/7/1 375/11/1 376/12/1
f 377/18/1 378/16/1 379/20/1 380/19/1
f 381/9/1 382/10/1 383/6/1 384/5/1
f 385/9/1 386/10/1 387/6/1 388/5/1
f 389/9/1 390/10/1 391/6/1 392/5/1
f 393/9/1 394/10/1 395/6/1 396/5/1
f 397/9/1 398/10/1 399/6/1 400/5/1
f 401/5/1 402/6/1 403/7/1 404/8/1
f 405/1/1 406/2/1 407/3/1 408/4/1
f 409/18/1 410/16/1 411/20/1 412/19/1
f 413/9/1 414/10/1 415/6/1 416/5/1
f 417/9/1 418/10/1 419/6/1 420/5/1
f 421/9/1 422/10/1 423/6/1 424/5/1
f 425/9/1 426/10/1 427/6/1 428/5/1
f 429/9/1 430/10/1 431/6/1 432/5/1
f 433/9/1 434/10/1 435/6/1 436/5/1
f 437/5/1 438/6/1 439/7/1 440/8/1
f 441/1/1 442/2/1 443/3/1 444/4/1
f 445/24/1 446/23/1 447/13/1 448/2/1
f 449/19/1 450/20/1 451/21/1 452/22/1
f 453/9/1 454/10/1 455/6/1 456/5/1
f 457/9/1 458/10/1 459/6/1 460/5/1
f 461/9/1 462/10/1 463/6/1 464/5/1
f 465/9/1 466/10/1 467/6/1 468/5/1
f 469/9/1 470/10/1 471/6/1 472/5/1
f 473/9/1 474/10/1 475/6/1 476/5/1
f 477/8/1 478/7/1 479/11/1 480/12/1
f 481/18/1 482/16/1 483/20/1 484/19/1
f 485/9/1 486/10/1 487/6/1 488/5/1
f 489/9/1 490/10/1 491/6/1 492/5/1
f 493/9/1 494/10/1 495/6/1 496/5/1
f 497/9/1 498/10/1 499/6/1 500/5/1
f 501/9/1 502/10/1 503/6/1 504/5/1
f 505/9/1 506/10/1 507/6/1 508/5/1
f 509/8/1 510/7/1 511/11/1 512/12/1

