# Tiled2Unity generated file. Do not modify by hand.
# Wavefront file for 'asiatis_mesh_0043.obj'

# Vertices (Count = 580)
v -24 -1.6 0
v -25.6 -1.6 0
v -25.6 0 0
v -24 0 0
v -22.4 -1.6 0
v -24 -1.6 0
v -24 0 0
v -22.4 0 0
v -20.8 -1.6 0
v -22.4 -1.6 0
v -22.4 0 0
v -20.8 0 0
v -19.2 -1.6 0
v -20.8 -1.6 0
v -20.8 0 0
v -19.2 0 0
v -17.6 -1.6 0
v -19.2 -1.6 0
v -19.2 0 0
v -17.6 0 0
v -16 -1.6 0
v -17.6 -1.6 0
v -17.6 0 0
v -16 0 0
v -14.4 -1.6 0
v -16 -1.6 0
v -16 0 0
v -14.4 0 0
v -12.8 -1.6 0
v -14.4 -1.6 0
v -14.4 0 0
v -12.8 0 0
v -11.2 -1.6 0
v -12.8 -1.6 0
v -12.8 0 0
v -11.2 0 0
v -9.6 -1.6 0
v -11.2 -1.6 0
v -11.2 0 0
v -9.6 0 0
v -8 -1.6 0
v -9.6 -1.6 0
v -9.6 0 0
v -8 0 0
v -6.4 -1.6 0
v -8 -1.6 0
v -8 0 0
v -6.4 0 0
v -4.8 -1.6 0
v -6.4 -1.6 0
v -6.4 0 0
v -4.8 0 0
v -3.2 -1.6 0
v -4.8 -1.6 0
v -4.8 0 0
v -3.2 0 0
v -1.6 -1.6 0
v -3.2 -1.6 0
v -3.2 0 0
v -1.6 0 0
v 0 -1.6 0
v -1.6 -1.6 0
v -1.6 0 0
v 0 0 0
v -24 -3.2 0
v -25.6 -3.2 0
v -25.6 -1.6 0
v -24 -1.6 0
v -22.4 -3.2 0
v -24 -3.2 0
v -24 -1.6 0
v -22.4 -1.6 0
v -20.8 -3.2 0
v -22.4 -3.2 0
v -22.4 -1.6 0
v -20.8 -1.6 0
v -19.2 -3.2 0
v -20.8 -3.2 0
v -20.8 -1.6 0
v -19.2 -1.6 0
v -17.6 -3.2 0
v -19.2 -3.2 0
v -19.2 -1.6 0
v -17.6 -1.6 0
v -16 -3.2 0
v -17.6 -3.2 0
v -17.6 -1.6 0
v -16 -1.6 0
v -14.4 -3.2 0
v -16 -3.2 0
v -16 -1.6 0
v -14.4 -1.6 0
v -12.8 -3.2 0
v -14.4 -3.2 0
v -14.4 -1.6 0
v -12.8 -1.6 0
v -11.2 -3.2 0
v -12.8 -3.2 0
v -12.8 -1.6 0
v -11.2 -1.6 0
v -9.6 -3.2 0
v -11.2 -3.2 0
v -11.2 -1.6 0
v -9.6 -1.6 0
v -8 -3.2 0
v -9.6 -3.2 0
v -9.6 -1.6 0
v -8 -1.6 0
v -6.4 -3.2 0
v -8 -3.2 0
v -8 -1.6 0
v -6.4 -1.6 0
v -4.8 -3.2 0
v -6.4 -3.2 0
v -6.4 -1.6 0
v -4.8 -1.6 0
v -3.2 -3.2 0
v -4.8 -3.2 0
v -4.8 -1.6 0
v -3.2 -1.6 0
v -1.6 -3.2 0
v -3.2 -3.2 0
v -3.2 -1.6 0
v -1.6 -1.6 0
v 0 -3.2 0
v -1.6 -3.2 0
v -1.6 -1.6 0
v 0 -1.6 0
v -24 -4.8 0
v -25.6 -4.8 0
v -25.6 -3.2 0
v -24 -3.2 0
v -22.4 -4.8 0
v -24 -4.8 0
v -24 -3.2 0
v -22.4 -3.2 0
v -20.8 -4.8 0
v -22.4 -4.8 0
v -22.4 -3.2 0
v -20.8 -3.2 0
v -19.2 -4.8 0
v -20.8 -4.8 0
v -20.8 -3.2 0
v -19.2 -3.2 0
v -17.6 -4.8 0
v -19.2 -4.8 0
v -19.2 -3.2 0
v -17.6 -3.2 0
v -16 -4.8 0
v -17.6 -4.8 0
v -17.6 -3.2 0
v -16 -3.2 0
v -14.4 -4.8 0
v -16 -4.8 0
v -16 -3.2 0
v -14.4 -3.2 0
v -12.8 -4.8 0
v -14.4 -4.8 0
v -14.4 -3.2 0
v -12.8 -3.2 0
v -11.2 -4.8 0
v -12.8 -4.8 0
v -12.8 -3.2 0
v -11.2 -3.2 0
v -9.6 -4.8 0
v -11.2 -4.8 0
v -11.2 -3.2 0
v -9.6 -3.2 0
v -8 -4.8 0
v -9.6 -4.8 0
v -9.6 -3.2 0
v -8 -3.2 0
v -6.4 -4.8 0
v -8 -4.8 0
v -8 -3.2 0
v -6.4 -3.2 0
v -4.8 -4.8 0
v -6.4 -4.8 0
v -6.4 -3.2 0
v -4.8 -3.2 0
v -3.2 -4.8 0
v -4.8 -4.8 0
v -4.8 -3.2 0
v -3.2 -3.2 0
v -1.6 -4.8 0
v -3.2 -4.8 0
v -3.2 -3.2 0
v -1.6 -3.2 0
v 0 -4.8 0
v -1.6 -4.8 0
v -1.6 -3.2 0
v 0 -3.2 0
v -24 -6.4 0
v -25.6 -6.4 0
v -25.6 -4.8 0
v -24 -4.8 0
v -22.4 -6.4 0
v -24 -6.4 0
v -24 -4.8 0
v -22.4 -4.8 0
v -20.8 -6.4 0
v -22.4 -6.4 0
v -22.4 -4.8 0
v -20.8 -4.8 0
v -19.2 -6.4 0
v -20.8 -6.4 0
v -20.8 -4.8 0
v -19.2 -4.8 0
v -17.6 -6.4 0
v -19.2 -6.4 0
v -19.2 -4.8 0
v -17.6 -4.8 0
v -16 -6.4 0
v -17.6 -6.4 0
v -17.6 -4.8 0
v -16 -4.8 0
v -14.4 -6.4 0
v -16 -6.4 0
v -16 -4.8 0
v -14.4 -4.8 0
v -12.8 -6.4 0
v -14.4 -6.4 0
v -14.4 -4.8 0
v -12.8 -4.8 0
v -11.2 -6.4 0
v -12.8 -6.4 0
v -12.8 -4.8 0
v -11.2 -4.8 0
v -9.6 -6.4 0
v -11.2 -6.4 0
v -11.2 -4.8 0
v -9.6 -4.8 0
v -8 -6.4 0
v -9.6 -6.4 0
v -9.6 -4.8 0
v -8 -4.8 0
v -6.4 -6.4 0
v -8 -6.4 0
v -8 -4.8 0
v -6.4 -4.8 0
v -4.8 -6.4 0
v -6.4 -6.4 0
v -6.4 -4.8 0
v -4.8 -4.8 0
v -3.2 -6.4 0
v -4.8 -6.4 0
v -4.8 -4.8 0
v -3.2 -4.8 0
v -1.6 -6.4 0
v -3.2 -6.4 0
v -3.2 -4.8 0
v -1.6 -4.8 0
v 0 -6.4 0
v -1.6 -6.4 0
v -1.6 -4.8 0
v 0 -4.8 0
v -24 -8 0
v -25.6 -8 0
v -25.6 -6.4 0
v -24 -6.4 0
v -22.4 -8 0
v -24 -8 0
v -24 -6.4 0
v -22.4 -6.4 0
v -20.8 -8 0
v -22.4 -8 0
v -22.4 -6.4 0
v -20.8 -6.4 0
v -19.2 -8 0
v -20.8 -8 0
v -20.8 -6.4 0
v -19.2 -6.4 0
v -17.6 -8 0
v -19.2 -8 0
v -19.2 -6.4 0
v -17.6 -6.4 0
v -16 -8 0
v -17.6 -8 0
v -17.6 -6.4 0
v -16 -6.4 0
v -14.4 -8 0
v -16 -8 0
v -16 -6.4 0
v -14.4 -6.4 0
v -12.8 -8 0
v -14.4 -8 0
v -14.4 -6.4 0
v -12.8 -6.4 0
v -11.2 -8 0
v -12.8 -8 0
v -12.8 -6.4 0
v -11.2 -6.4 0
v -9.6 -8 0
v -11.2 -8 0
v -11.2 -6.4 0
v -9.6 -6.4 0
v -8 -8 0
v -9.6 -8 0
v -9.6 -6.4 0
v -8 -6.4 0
v -4.8 -8 0
v -6.4 -8 0
v -6.4 -6.4 0
v -4.8 -6.4 0
v -3.2 -8 0
v -4.8 -8 0
v -4.8 -6.4 0
v -3.2 -6.4 0
v -1.6 -8 0
v -3.2 -8 0
v -3.2 -6.4 0
v -1.6 -6.4 0
v 0 -8 0
v -1.6 -8 0
v -1.6 -6.4 0
v 0 -6.4 0
v -24 -9.6 0
v -25.6 -9.6 0
v -25.6 -8 0
v -24 -8 0
v -22.4 -9.6 0
v -24 -9.6 0
v -24 -8 0
v -22.4 -8 0
v -20.8 -9.6 0
v -22.4 -9.6 0
v -22.4 -8 0
v -20.8 -8 0
v -19.2 -9.6 0
v -20.8 -9.6 0
v -20.8 -8 0
v -19.2 -8 0
v -17.6 -9.6 0
v -19.2 -9.6 0
v -19.2 -8 0
v -17.6 -8 0
v -16 -9.6 0
v -17.6 -9.6 0
v -17.6 -8 0
v -16 -8 0
v -14.4 -9.6 0
v -16 -9.6 0
v -16 -8 0
v -14.4 -8 0
v -12.8 -9.6 0
v -14.4 -9.6 0
v -14.4 -8 0
v -12.8 -8 0
v -1.6 -9.6 0
v -3.2 -9.6 0
v -3.2 -8 0
v -1.6 -8 0
v 0 -9.6 0
v -1.6 -9.6 0
v -1.6 -8 0
v 0 -8 0
v -24 -11.2 0
v -25.6 -11.2 0
v -25.6 -9.6 0
v -24 -9.6 0
v -22.4 -11.2 0
v -24 -11.2 0
v -24 -9.6 0
v -22.4 -9.6 0
v -20.8 -11.2 0
v -22.4 -11.2 0
v -22.4 -9.6 0
v -20.8 -9.6 0
v -19.2 -11.2 0
v -20.8 -11.2 0
v -20.8 -9.6 0
v -19.2 -9.6 0
v -17.6 -11.2 0
v -19.2 -11.2 0
v -19.2 -9.6 0
v -17.6 -9.6 0
v -16 -11.2 0
v -17.6 -11.2 0
v -17.6 -9.6 0
v -16 -9.6 0
v -14.4 -11.2 0
v -16 -11.2 0
v -16 -9.6 0
v -14.4 -9.6 0
v -12.8 -11.2 0
v -14.4 -11.2 0
v -14.4 -9.6 0
v -12.8 -9.6 0
v -24 -12.8 0
v -25.6 -12.8 0
v -25.6 -11.2 0
v -24 -11.2 0
v -22.4 -12.8 0
v -24 -12.8 0
v -24 -11.2 0
v -22.4 -11.2 0
v -20.8 -12.8 0
v -22.4 -12.8 0
v -22.4 -11.2 0
v -20.8 -11.2 0
v -19.2 -12.8 0
v -20.8 -12.8 0
v -20.8 -11.2 0
v -19.2 -11.2 0
v -17.6 -12.8 0
v -19.2 -12.8 0
v -19.2 -11.2 0
v -17.6 -11.2 0
v -16 -12.8 0
v -17.6 -12.8 0
v -17.6 -11.2 0
v -16 -11.2 0
v -24 -14.4 0
v -25.6 -14.4 0
v -25.6 -12.8 0
v -24 -12.8 0
v -22.4 -14.4 0
v -24 -14.4 0
v -24 -12.8 0
v -22.4 -12.8 0
v -20.8 -14.4 0
v -22.4 -14.4 0
v -22.4 -12.8 0
v -20.8 -12.8 0
v -19.2 -14.4 0
v -20.8 -14.4 0
v -20.8 -12.8 0
v -19.2 -12.8 0
v -17.6 -14.4 0
v -19.2 -14.4 0
v -19.2 -12.8 0
v -17.6 -12.8 0
v -16 -14.4 0
v -17.6 -14.4 0
v -17.6 -12.8 0
v -16 -12.8 0
v -24 -16 0
v -25.6 -16 0
v -25.6 -14.4 0
v -24 -14.4 0
v -22.4 -16 0
v -24 -16 0
v -24 -14.4 0
v -22.4 -14.4 0
v -20.8 -16 0
v -22.4 -16 0
v -22.4 -14.4 0
v -20.8 -14.4 0
v -19.2 -16 0
v -20.8 -16 0
v -20.8 -14.4 0
v -19.2 -14.4 0
v -17.6 -16 0
v -19.2 -16 0
v -19.2 -14.4 0
v -17.6 -14.4 0
v -16 -16 0
v -17.6 -16 0
v -17.6 -14.4 0
v -16 -14.4 0
v -24 -17.6 0
v -25.6 -17.6 0
v -25.6 -16 0
v -24 -16 0
v -22.4 -17.6 0
v -24 -17.6 0
v -24 -16 0
v -22.4 -16 0
v -20.8 -17.6 0
v -22.4 -17.6 0
v -22.4 -16 0
v -20.8 -16 0
v -19.2 -17.6 0
v -20.8 -17.6 0
v -20.8 -16 0
v -19.2 -16 0
v -17.6 -17.6 0
v -19.2 -17.6 0
v -19.2 -16 0
v -17.6 -16 0
v -24 -19.2 0
v -25.6 -19.2 0
v -25.6 -17.6 0
v -24 -17.6 0
v -22.4 -19.2 0
v -24 -19.2 0
v -24 -17.6 0
v -22.4 -17.6 0
v -20.8 -19.2 0
v -22.4 -19.2 0
v -22.4 -17.6 0
v -20.8 -17.6 0
v -19.2 -19.2 0
v -20.8 -19.2 0
v -20.8 -17.6 0
v -19.2 -17.6 0
v -17.6 -19.2 0
v -19.2 -19.2 0
v -19.2 -17.6 0
v -17.6 -17.6 0
v -24 -20.8 0
v -25.6 -20.8 0
v -25.6 -19.2 0
v -24 -19.2 0
v -22.4 -20.8 0
v -24 -20.8 0
v -24 -19.2 0
v -22.4 -19.2 0
v -20.8 -20.8 0
v -22.4 -20.8 0
v -22.4 -19.2 0
v -20.8 -19.2 0
v -19.2 -20.8 0
v -20.8 -20.8 0
v -20.8 -19.2 0
v -19.2 -19.2 0
v -17.6 -20.8 0
v -19.2 -20.8 0
v -19.2 -19.2 0
v -17.6 -19.2 0
v -24 -22.4 0
v -25.6 -22.4 0
v -25.6 -20.8 0
v -24 -20.8 0
v -22.4 -22.4 0
v -24 -22.4 0
v -24 -20.8 0
v -22.4 -20.8 0
v -20.8 -22.4 0
v -22.4 -22.4 0
v -22.4 -20.8 0
v -20.8 -20.8 0
v -19.2 -22.4 0
v -20.8 -22.4 0
v -20.8 -20.8 0
v -19.2 -20.8 0
v -17.6 -22.4 0
v -19.2 -22.4 0
v -19.2 -20.8 0
v -17.6 -20.8 0
v -24 -24 0
v -25.6 -24 0
v -25.6 -22.4 0
v -24 -22.4 0
v -22.4 -24 0
v -24 -24 0
v -24 -22.4 0
v -22.4 -22.4 0
v -20.8 -24 0
v -22.4 -24 0
v -22.4 -22.4 0
v -20.8 -22.4 0
v -19.2 -24 0
v -20.8 -24 0
v -20.8 -22.4 0
v -19.2 -22.4 0
v -17.6 -24 0
v -19.2 -24 0
v -19.2 -22.4 0
v -17.6 -22.4 0
v -24 -25.6 0
v -25.6 -25.6 0
v -25.6 -24 0
v -24 -24 0
v -22.4 -25.6 0
v -24 -25.6 0
v -24 -24 0
v -22.4 -24 0
v -20.8 -25.6 0
v -22.4 -25.6 0
v -22.4 -24 0
v -20.8 -24 0
v -19.2 -25.6 0
v -20.8 -25.6 0
v -20.8 -24 0
v -19.2 -24 0
v -17.6 -25.6 0
v -19.2 -25.6 0
v -19.2 -24 0
v -17.6 -24 0

# Texture cooridinates (Count = 18)
vt 0.6666667 0.25
vt 1 0.25
vt 1 0.375
vt 0.6666667 0.375
vt 0.6666667 0.625
vt 1 0.625
vt 1 0.75
vt 0.6666667 0.75
vt 0.3333333 0.625
vt 0.3333333 0.75
vt 0 0.625
vt 0 0.75
vt 0.6666667 0.875
vt 0.3333333 0.875
vt 0.3333333 0.5
vt 0.6666667 0.5
vt 1 0.875
vt 1 0.5

# Normal
vn 0 0 -1

# Mesh description
g asiatis_mesh_0043

# Faces
f 1/1/1 2/2/1 3/3/1 4/4/1
f 5/1/1 6/2/1 7/3/1 8/4/1
f 9/1/1 10/2/1 11/3/1 12/4/1
f 13/1/1 14/2/1 15/3/1 16/4/1
f 17/1/1 18/2/1 19/3/1 20/4/1
f 21/1/1 22/2/1 23/3/1 24/4/1
f 25/1/1 26/2/1 27/3/1 28/4/1
f 29/1/1 30/2/1 31/3/1 32/4/1
f 33/1/1 34/2/1 35/3/1 36/4/1
f 37/1/1 38/2/1 39/3/1 40/4/1
f 41/1/1 42/2/1 43/3/1 44/4/1
f 45/1/1 46/2/1 47/3/1 48/4/1
f 49/1/1 50/2/1 51/3/1 52/4/1
f 53/1/1 54/2/1 55/3/1 56/4/1
f 57/1/1 58/2/1 59/3/1 60/4/1
f 61/1/1 62/2/1 63/3/1 64/4/1
f 65/1/1 66/2/1 67/3/1 68/4/1
f 69/1/1 70/2/1 71/3/1 72/4/1
f 73/1/1 74/2/1 75/3/1 76/4/1
f 77/1/1 78/2/1 79/3/1 80/4/1
f 81/1/1 82/2/1 83/3/1 84/4/1
f 85/1/1 86/2/1 87/3/1 88/4/1
f 89/1/1 90/2/1 91/3/1 92/4/1
f 93/1/1 94/2/1 95/3/1 96/4/1
f 97/1/1 98/2/1 99/3/1 100/4/1
f 101/1/1 102/2/1 103/3/1 104/4/1
f 105/1/1 106/2/1 107/3/1 108/4/1
f 109/1/1 110/2/1 111/3/1 112/4/1
f 113/1/1 114/2/1 115/3/1 116/4/1
f 117/1/1 118/2/1 119/3/1 120/4/1
f 121/1/1 122/2/1 123/3/1 124/4/1
f 125/1/1 126/2/1 127/3/1 128/4/1
f 129/1/1 130/2/1 131/3/1 132/4/1
f 133/1/1 134/2/1 135/3/1 136/4/1
f 137/1/1 138/2/1 139/3/1 140/4/1
f 141/1/1 142/2/1 143/3/1 144/4/1
f 145/1/1 146/2/1 147/3/1 148/4/1
f 149/1/1 150/2/1 151/3/1 152/4/1
f 153/1/1 154/2/1 155/3/1 156/4/1
f 157/1/1 158/2/1 159/3/1 160/4/1
f 161/1/1 162/2/1 163/3/1 164/4/1
f 165/1/1 166/2/1 167/3/1 168/4/1
f 169/1/1 170/2/1 171/3/1 172/4/1
f 173/1/1 174/2/1 175/3/1 176/4/1
f 177/1/1 178/2/1 179/3/1 180/4/1
f 181/1/1 182/2/1 183/3/1 184/4/1
f 185/1/1 186/2/1 187/3/1 188/4/1
f 189/1/1 190/2/1 191/3/1 192/4/1
f 193/1/1 194/2/1 195/3/1 196/4/1
f 197/1/1 198/2/1 199/3/1 200/4/1
f 201/1/1 202/2/1 203/3/1 204/4/1
f 205/1/1 206/2/1 207/3/1 208/4/1
f 209/1/1 210/2/1 211/3/1 212/4/1
f 213/1/1 214/2/1 215/3/1 216/4/1
f 217/1/1 218/2/1 219/3/1 220/4/1
f 221/1/1 222/2/1 223/3/1 224/4/1
f 225/5/1 226/6/1 227/7/1 228/8/1
f 229/9/1 230/5/1 231/8/1 232/10/1
f 233/9/1 234/5/1 235/8/1 236/10/1
f 237/9/1 238/5/1 239/8/1 240/10/1
f 241/11/1 242/9/1 243/10/1 244/12/1
f 245/1/1 246/2/1 247/3/1 248/4/1
f 249/1/1 250/2/1 251/3/1 252/4/1
f 253/1/1 254/2/1 255/3/1 256/4/1
f 257/1/1 258/2/1 259/3/1 260/4/1
f 261/1/1 262/2/1 263/3/1 264/4/1
f 265/1/1 266/2/1 267/3/1 268/4/1
f 269/1/1 270/2/1 271/3/1 272/4/1
f 273/1/1 274/2/1 275/3/1 276/4/1
f 277/1/1 278/2/1 279/3/1 280/4/1
f 281/1/1 282/2/1 283/3/1 284/4/1
f 285/5/1 286/6/1 287/7/1 288/8/1
f 289/10/1 290/8/1 291/13/1 292/14/1
f 293/15/1 294/16/1 295/5/1 296/9/1
f 297/15/1 298/16/1 299/5/1 300/9/1
f 301/8/1 302/7/1 303/17/1 304/13/1
f 305/9/1 306/5/1 307/8/1 308/10/1
f 309/11/1 310/9/1 311/10/1 312/12/1
f 313/1/1 314/2/1 315/3/1 316/4/1
f 317/1/1 318/2/1 319/3/1 320/4/1
f 321/1/1 322/2/1 323/3/1 324/4/1
f 325/1/1 326/2/1 327/3/1 328/4/1
f 329/1/1 330/2/1 331/3/1 332/4/1
f 333/1/1 334/2/1 335/3/1 336/4/1
f 337/1/1 338/2/1 339/3/1 340/4/1
f 341/1/1 342/2/1 343/3/1 344/4/1
f 345/16/1 346/18/1 347/6/1 348/5/1
f 349/8/1 350/7/1 351/17/1 352/13/1
f 353/9/1 354/5/1 355/8/1 356/10/1
f 357/1/1 358/2/1 359/3/1 360/4/1
f 361/1/1 362/2/1 363/3/1 364/4/1
f 365/1/1 366/2/1 367/3/1 368/4/1
f 369/1/1 370/2/1 371/3/1 372/4/1
f 373/1/1 374/2/1 375/3/1 376/4/1
f 377/5/1 378/6/1 379/7/1 380/8/1
f 381/9/1 382/5/1 383/8/1 384/10/1
f 385/10/1 386/8/1 387/13/1 388/14/1
f 389/1/1 390/2/1 391/3/1 392/4/1
f 393/1/1 394/2/1 395/3/1 396/4/1
f 397/1/1 398/2/1 399/3/1 400/4/1
f 401/1/1 402/2/1 403/3/1 404/4/1
f 405/1/1 406/2/1 407/3/1 408/4/1
f 409/16/1 410/18/1 411/6/1 412/5/1
f 413/1/1 414/2/1 415/3/1 416/4/1
f 417/1/1 418/2/1 419/3/1 420/4/1
f 421/1/1 422/2/1 423/3/1 424/4/1
f 425/1/1 426/2/1 427/3/1 428/4/1
f 429/1/1 430/2/1 431/3/1 432/4/1
f 433/16/1 434/18/1 435/6/1 436/5/1
f 437/1/1 438/2/1 439/3/1 440/4/1
f 441/1/1 442/2/1 443/3/1 444/4/1
f 445/1/1 446/2/1 447/3/1 448/4/1
f 449/1/1 450/2/1 451/3/1 452/4/1
f 453/5/1 454/6/1 455/7/1 456/8/1
f 457/10/1 458/8/1 459/13/1 460/14/1
f 461/1/1 462/2/1 463/3/1 464/4/1
f 465/1/1 466/2/1 467/3/1 468/4/1
f 469/1/1 470/2/1 471/3/1 472/4/1
f 473/1/1 474/2/1 475/3/1 476/4/1
f 477/16/1 478/18/1 479/6/1 480/5/1
f 481/1/1 482/2/1 483/3/1 484/4/1
f 485/1/1 486/2/1 487/3/1 488/4/1
f 489/1/1 490/2/1 491/3/1 492/4/1
f 493/1/1 494/2/1 495/3/1 496/4/1
f 497/16/1 498/18/1 499/6/1 500/5/1
f 501/1/1 502/2/1 503/3/1 504/4/1
f 505/1/1 506/2/1 507/3/1 508/4/1
f 509/1/1 510/2/1 511/3/1 512/4/1
f 513/1/1 514/2/1 515/3/1 516/4/1
f 517/16/1 518/18/1 519/6/1 520/5/1
f 521/1/1 522/2/1 523/3/1 524/4/1
f 525/1/1 526/2/1 527/3/1 528/4/1
f 529/1/1 530/2/1 531/3/1 532/4/1
f 533/1/1 534/2/1 535/3/1 536/4/1
f 537/16/1 538/18/1 539/6/1 540/5/1
f 541/1/1 542/2/1 543/3/1 544/4/1
f 545/1/1 546/2/1 547/3/1 548/4/1
f 549/1/1 550/2/1 551/3/1 552/4/1
f 553/1/1 554/2/1 555/3/1 556/4/1
f 557/16/1 558/18/1 559/6/1 560/5/1
f 561/1/1 562/2/1 563/3/1 564/4/1
f 565/1/1 566/2/1 567/3/1 568/4/1
f 569/1/1 570/2/1 571/3/1 572/4/1
f 573/1/1 574/2/1 575/3/1 576/4/1
f 577/16/1 578/18/1 579/6/1 580/5/1

