# Tiled2Unity generated file. Do not modify by hand.
# Wavefront file for 'asiatis_mesh_0135.obj'

# Vertices (Count = 64)
v -12.8 -1.6 0
v -14.4 -1.6 0
v -14.4 0 0
v -12.8 0 0
v -11.2 -1.6 0
v -12.8 -1.6 0
v -12.8 0 0
v -11.2 0 0
v -6.4 -1.6 0
v -8 -1.6 0
v -8 0 0
v -6.4 0 0
v -6.4 -3.2 0
v -8 -3.2 0
v -8 -1.6 0
v -6.4 -1.6 0
v -19.2 -11.2 0
v -20.8 -11.2 0
v -20.8 -9.6 0
v -19.2 -9.6 0
v -24 -14.4 0
v -25.6 -14.4 0
v -25.6 -12.8 0
v -24 -12.8 0
v -22.4 -14.4 0
v -24 -14.4 0
v -24 -12.8 0
v -22.4 -12.8 0
v -20.8 -14.4 0
v -22.4 -14.4 0
v -22.4 -12.8 0
v -20.8 -12.8 0
v -19.2 -14.4 0
v -20.8 -14.4 0
v -20.8 -12.8 0
v -19.2 -12.8 0
v -24 -16 0
v -25.6 -16 0
v -25.6 -14.4 0
v -24 -14.4 0
v -22.4 -16 0
v -24 -16 0
v -24 -14.4 0
v -22.4 -14.4 0
v -20.8 -16 0
v -22.4 -16 0
v -22.4 -14.4 0
v -20.8 -14.4 0
v -19.2 -16 0
v -20.8 -16 0
v -20.8 -14.4 0
v -19.2 -14.4 0
v -3.2 -16 0
v -4.8 -16 0
v -4.8 -14.4 0
v -3.2 -14.4 0
v -1.6 -19.2 0
v -3.2 -19.2 0
v -3.2 -17.6 0
v -1.6 -17.6 0
v 0 -19.2 0
v -1.6 -19.2 0
v -1.6 -17.6 0
v 0 -17.6 0

# Texture cooridinates (Count = 13)
vt 0.3333333 0
vt 0.6666667 0
vt 0.6666667 0.125
vt 0.3333333 0.125
vt 0.6666667 0.25
vt 0.3333333 0.25
vt 0.3333333 0.5
vt 0.6666667 0.5
vt 0.6666667 0.625
vt 0.3333333 0.625
vt 0 0.125
vt 0 0.25
vt 0 0

# Normal
vn 0 0 -1

# Mesh description
g asiatis_mesh_0135

# Faces
f 1/1/1 2/2/1 3/3/1 4/4/1
f 5/1/1 6/2/1 7/3/1 8/4/1
f 9/4/1 10/3/1 11/5/1 12/6/1
f 13/1/1 14/2/1 15/3/1 16/4/1
f 17/7/1 18/8/1 19/9/1 20/10/1
f 21/11/1 22/4/1 23/6/1 24/12/1
f 25/11/1 26/4/1 27/6/1 28/12/1
f 29/11/1 30/4/1 31/6/1 32/12/1
f 33/11/1 34/4/1 35/6/1 36/12/1
f 37/13/1 38/1/1 39/4/1 40/11/1
f 41/13/1 42/1/1 43/4/1 44/11/1
f 45/13/1 46/1/1 47/4/1 48/11/1
f 49/13/1 50/1/1 51/4/1 52/11/1
f 53/11/1 54/4/1 55/6/1 56/12/1
f 57/11/1 58/4/1 59/6/1 60/12/1
f 61/11/1 62/4/1 63/6/1 64/12/1

