# Tiled2Unity generated file. Do not modify by hand.
# Wavefront file for 'asiatis_mesh_0057.obj'

# Vertices (Count = 548)
v -24 -1.6 0
v -25.6 -1.6 0
v -25.6 0 0
v -24 0 0
v -22.4 -1.6 0
v -24 -1.6 0
v -24 0 0
v -22.4 0 0
v -20.8 -1.6 0
v -22.4 -1.6 0
v -22.4 0 0
v -20.8 0 0
v -19.2 -1.6 0
v -20.8 -1.6 0
v -20.8 0 0
v -19.2 0 0
v -17.6 -1.6 0
v -19.2 -1.6 0
v -19.2 0 0
v -17.6 0 0
v -16 -1.6 0
v -17.6 -1.6 0
v -17.6 0 0
v -16 0 0
v -14.4 -1.6 0
v -16 -1.6 0
v -16 0 0
v -14.4 0 0
v -24 -3.2 0
v -25.6 -3.2 0
v -25.6 -1.6 0
v -24 -1.6 0
v -22.4 -3.2 0
v -24 -3.2 0
v -24 -1.6 0
v -22.4 -1.6 0
v -20.8 -3.2 0
v -22.4 -3.2 0
v -22.4 -1.6 0
v -20.8 -1.6 0
v -19.2 -3.2 0
v -20.8 -3.2 0
v -20.8 -1.6 0
v -19.2 -1.6 0
v -17.6 -3.2 0
v -19.2 -3.2 0
v -19.2 -1.6 0
v -17.6 -1.6 0
v -16 -3.2 0
v -17.6 -3.2 0
v -17.6 -1.6 0
v -16 -1.6 0
v -14.4 -3.2 0
v -16 -3.2 0
v -16 -1.6 0
v -14.4 -1.6 0
v -12.8 -3.2 0
v -14.4 -3.2 0
v -14.4 -1.6 0
v -12.8 -1.6 0
v -11.2 -3.2 0
v -12.8 -3.2 0
v -12.8 -1.6 0
v -11.2 -1.6 0
v -24 -4.8 0
v -25.6 -4.8 0
v -25.6 -3.2 0
v -24 -3.2 0
v -22.4 -4.8 0
v -24 -4.8 0
v -24 -3.2 0
v -22.4 -3.2 0
v -20.8 -4.8 0
v -22.4 -4.8 0
v -22.4 -3.2 0
v -20.8 -3.2 0
v -19.2 -4.8 0
v -20.8 -4.8 0
v -20.8 -3.2 0
v -19.2 -3.2 0
v -17.6 -4.8 0
v -19.2 -4.8 0
v -19.2 -3.2 0
v -17.6 -3.2 0
v -16 -4.8 0
v -17.6 -4.8 0
v -17.6 -3.2 0
v -16 -3.2 0
v -14.4 -4.8 0
v -16 -4.8 0
v -16 -3.2 0
v -14.4 -3.2 0
v -12.8 -4.8 0
v -14.4 -4.8 0
v -14.4 -3.2 0
v -12.8 -3.2 0
v -11.2 -4.8 0
v -12.8 -4.8 0
v -12.8 -3.2 0
v -11.2 -3.2 0
v -24 -6.4 0
v -25.6 -6.4 0
v -25.6 -4.8 0
v -24 -4.8 0
v -22.4 -6.4 0
v -24 -6.4 0
v -24 -4.8 0
v -22.4 -4.8 0
v -20.8 -6.4 0
v -22.4 -6.4 0
v -22.4 -4.8 0
v -20.8 -4.8 0
v -19.2 -6.4 0
v -20.8 -6.4 0
v -20.8 -4.8 0
v -19.2 -4.8 0
v -17.6 -6.4 0
v -19.2 -6.4 0
v -19.2 -4.8 0
v -17.6 -4.8 0
v -16 -6.4 0
v -17.6 -6.4 0
v -17.6 -4.8 0
v -16 -4.8 0
v -14.4 -6.4 0
v -16 -6.4 0
v -16 -4.8 0
v -14.4 -4.8 0
v -12.8 -6.4 0
v -14.4 -6.4 0
v -14.4 -4.8 0
v -12.8 -4.8 0
v -11.2 -6.4 0
v -12.8 -6.4 0
v -12.8 -4.8 0
v -11.2 -4.8 0
v -24 -8 0
v -25.6 -8 0
v -25.6 -6.4 0
v -24 -6.4 0
v -22.4 -8 0
v -24 -8 0
v -24 -6.4 0
v -22.4 -6.4 0
v -20.8 -8 0
v -22.4 -8 0
v -22.4 -6.4 0
v -20.8 -6.4 0
v -19.2 -8 0
v -20.8 -8 0
v -20.8 -6.4 0
v -19.2 -6.4 0
v -17.6 -8 0
v -19.2 -8 0
v -19.2 -6.4 0
v -17.6 -6.4 0
v -16 -8 0
v -17.6 -8 0
v -17.6 -6.4 0
v -16 -6.4 0
v -14.4 -8 0
v -16 -8 0
v -16 -6.4 0
v -14.4 -6.4 0
v -12.8 -8 0
v -14.4 -8 0
v -14.4 -6.4 0
v -12.8 -6.4 0
v -11.2 -8 0
v -12.8 -8 0
v -12.8 -6.4 0
v -11.2 -6.4 0
v -9.6 -8 0
v -11.2 -8 0
v -11.2 -6.4 0
v -9.6 -6.4 0
v -24 -9.6 0
v -25.6 -9.6 0
v -25.6 -8 0
v -24 -8 0
v -22.4 -9.6 0
v -24 -9.6 0
v -24 -8 0
v -22.4 -8 0
v -20.8 -9.6 0
v -22.4 -9.6 0
v -22.4 -8 0
v -20.8 -8 0
v -19.2 -9.6 0
v -20.8 -9.6 0
v -20.8 -8 0
v -19.2 -8 0
v -17.6 -9.6 0
v -19.2 -9.6 0
v -19.2 -8 0
v -17.6 -8 0
v -16 -9.6 0
v -17.6 -9.6 0
v -17.6 -8 0
v -16 -8 0
v -14.4 -9.6 0
v -16 -9.6 0
v -16 -8 0
v -14.4 -8 0
v -12.8 -9.6 0
v -14.4 -9.6 0
v -14.4 -8 0
v -12.8 -8 0
v -11.2 -9.6 0
v -12.8 -9.6 0
v -12.8 -8 0
v -11.2 -8 0
v -9.6 -9.6 0
v -11.2 -9.6 0
v -11.2 -8 0
v -9.6 -8 0
v -24 -11.2 0
v -25.6 -11.2 0
v -25.6 -9.6 0
v -24 -9.6 0
v -22.4 -11.2 0
v -24 -11.2 0
v -24 -9.6 0
v -22.4 -9.6 0
v -20.8 -11.2 0
v -22.4 -11.2 0
v -22.4 -9.6 0
v -20.8 -9.6 0
v -19.2 -11.2 0
v -20.8 -11.2 0
v -20.8 -9.6 0
v -19.2 -9.6 0
v -17.6 -11.2 0
v -19.2 -11.2 0
v -19.2 -9.6 0
v -17.6 -9.6 0
v -16 -11.2 0
v -17.6 -11.2 0
v -17.6 -9.6 0
v -16 -9.6 0
v -14.4 -11.2 0
v -16 -11.2 0
v -16 -9.6 0
v -14.4 -9.6 0
v -12.8 -11.2 0
v -14.4 -11.2 0
v -14.4 -9.6 0
v -12.8 -9.6 0
v -11.2 -11.2 0
v -12.8 -11.2 0
v -12.8 -9.6 0
v -11.2 -9.6 0
v -9.6 -11.2 0
v -11.2 -11.2 0
v -11.2 -9.6 0
v -9.6 -9.6 0
v -24 -12.8 0
v -25.6 -12.8 0
v -25.6 -11.2 0
v -24 -11.2 0
v -22.4 -12.8 0
v -24 -12.8 0
v -24 -11.2 0
v -22.4 -11.2 0
v -20.8 -12.8 0
v -22.4 -12.8 0
v -22.4 -11.2 0
v -20.8 -11.2 0
v -19.2 -12.8 0
v -20.8 -12.8 0
v -20.8 -11.2 0
v -19.2 -11.2 0
v -17.6 -12.8 0
v -19.2 -12.8 0
v -19.2 -11.2 0
v -17.6 -11.2 0
v -16 -12.8 0
v -17.6 -12.8 0
v -17.6 -11.2 0
v -16 -11.2 0
v -14.4 -12.8 0
v -16 -12.8 0
v -16 -11.2 0
v -14.4 -11.2 0
v -12.8 -12.8 0
v -14.4 -12.8 0
v -14.4 -11.2 0
v -12.8 -11.2 0
v -11.2 -12.8 0
v -12.8 -12.8 0
v -12.8 -11.2 0
v -11.2 -11.2 0
v -9.6 -12.8 0
v -11.2 -12.8 0
v -11.2 -11.2 0
v -9.6 -11.2 0
v -24 -14.4 0
v -25.6 -14.4 0
v -25.6 -12.8 0
v -24 -12.8 0
v -22.4 -14.4 0
v -24 -14.4 0
v -24 -12.8 0
v -22.4 -12.8 0
v -20.8 -14.4 0
v -22.4 -14.4 0
v -22.4 -12.8 0
v -20.8 -12.8 0
v -19.2 -14.4 0
v -20.8 -14.4 0
v -20.8 -12.8 0
v -19.2 -12.8 0
v -17.6 -14.4 0
v -19.2 -14.4 0
v -19.2 -12.8 0
v -17.6 -12.8 0
v -16 -14.4 0
v -17.6 -14.4 0
v -17.6 -12.8 0
v -16 -12.8 0
v -14.4 -14.4 0
v -16 -14.4 0
v -16 -12.8 0
v -14.4 -12.8 0
v -12.8 -14.4 0
v -14.4 -14.4 0
v -14.4 -12.8 0
v -12.8 -12.8 0
v -11.2 -14.4 0
v -12.8 -14.4 0
v -12.8 -12.8 0
v -11.2 -12.8 0
v -9.6 -14.4 0
v -11.2 -14.4 0
v -11.2 -12.8 0
v -9.6 -12.8 0
v -24 -16 0
v -25.6 -16 0
v -25.6 -14.4 0
v -24 -14.4 0
v -22.4 -16 0
v -24 -16 0
v -24 -14.4 0
v -22.4 -14.4 0
v -20.8 -16 0
v -22.4 -16 0
v -22.4 -14.4 0
v -20.8 -14.4 0
v -19.2 -16 0
v -20.8 -16 0
v -20.8 -14.4 0
v -19.2 -14.4 0
v -17.6 -16 0
v -19.2 -16 0
v -19.2 -14.4 0
v -17.6 -14.4 0
v -16 -16 0
v -17.6 -16 0
v -17.6 -14.4 0
v -16 -14.4 0
v -14.4 -16 0
v -16 -16 0
v -16 -14.4 0
v -14.4 -14.4 0
v -12.8 -16 0
v -14.4 -16 0
v -14.4 -14.4 0
v -12.8 -14.4 0
v -9.6 -16 0
v -11.2 -16 0
v -11.2 -14.4 0
v -9.6 -14.4 0
v -24 -17.6 0
v -25.6 -17.6 0
v -25.6 -16 0
v -24 -16 0
v -22.4 -17.6 0
v -24 -17.6 0
v -24 -16 0
v -22.4 -16 0
v -20.8 -17.6 0
v -22.4 -17.6 0
v -22.4 -16 0
v -20.8 -16 0
v -19.2 -17.6 0
v -20.8 -17.6 0
v -20.8 -16 0
v -19.2 -16 0
v -17.6 -17.6 0
v -19.2 -17.6 0
v -19.2 -16 0
v -17.6 -16 0
v -16 -17.6 0
v -17.6 -17.6 0
v -17.6 -16 0
v -16 -16 0
v -14.4 -17.6 0
v -16 -17.6 0
v -16 -16 0
v -14.4 -16 0
v -12.8 -17.6 0
v -14.4 -17.6 0
v -14.4 -16 0
v -12.8 -16 0
v -9.6 -17.6 0
v -11.2 -17.6 0
v -11.2 -16 0
v -9.6 -16 0
v -24 -19.2 0
v -25.6 -19.2 0
v -25.6 -17.6 0
v -24 -17.6 0
v -22.4 -19.2 0
v -24 -19.2 0
v -24 -17.6 0
v -22.4 -17.6 0
v -20.8 -19.2 0
v -22.4 -19.2 0
v -22.4 -17.6 0
v -20.8 -17.6 0
v -19.2 -19.2 0
v -20.8 -19.2 0
v -20.8 -17.6 0
v -19.2 -17.6 0
v -17.6 -19.2 0
v -19.2 -19.2 0
v -19.2 -17.6 0
v -17.6 -17.6 0
v -16 -19.2 0
v -17.6 -19.2 0
v -17.6 -17.6 0
v -16 -17.6 0
v -14.4 -19.2 0
v -16 -19.2 0
v -16 -17.6 0
v -14.4 -17.6 0
v -12.8 -19.2 0
v -14.4 -19.2 0
v -14.4 -17.6 0
v -12.8 -17.6 0
v -24 -20.8 0
v -25.6 -20.8 0
v -25.6 -19.2 0
v -24 -19.2 0
v -22.4 -20.8 0
v -24 -20.8 0
v -24 -19.2 0
v -22.4 -19.2 0
v -20.8 -20.8 0
v -22.4 -20.8 0
v -22.4 -19.2 0
v -20.8 -19.2 0
v -19.2 -20.8 0
v -20.8 -20.8 0
v -20.8 -19.2 0
v -19.2 -19.2 0
v -17.6 -20.8 0
v -19.2 -20.8 0
v -19.2 -19.2 0
v -17.6 -19.2 0
v -16 -20.8 0
v -17.6 -20.8 0
v -17.6 -19.2 0
v -16 -19.2 0
v -14.4 -20.8 0
v -16 -20.8 0
v -16 -19.2 0
v -14.4 -19.2 0
v -24 -22.4 0
v -25.6 -22.4 0
v -25.6 -20.8 0
v -24 -20.8 0
v -22.4 -22.4 0
v -24 -22.4 0
v -24 -20.8 0
v -22.4 -20.8 0
v -20.8 -22.4 0
v -22.4 -22.4 0
v -22.4 -20.8 0
v -20.8 -20.8 0
v -19.2 -22.4 0
v -20.8 -22.4 0
v -20.8 -20.8 0
v -19.2 -20.8 0
v -17.6 -22.4 0
v -19.2 -22.4 0
v -19.2 -20.8 0
v -17.6 -20.8 0
v -16 -22.4 0
v -17.6 -22.4 0
v -17.6 -20.8 0
v -16 -20.8 0
v -14.4 -22.4 0
v -16 -22.4 0
v -16 -20.8 0
v -14.4 -20.8 0
v -24 -24 0
v -25.6 -24 0
v -25.6 -22.4 0
v -24 -22.4 0
v -22.4 -24 0
v -24 -24 0
v -24 -22.4 0
v -22.4 -22.4 0
v -20.8 -24 0
v -22.4 -24 0
v -22.4 -22.4 0
v -20.8 -22.4 0
v -19.2 -24 0
v -20.8 -24 0
v -20.8 -22.4 0
v -19.2 -22.4 0
v -17.6 -24 0
v -19.2 -24 0
v -19.2 -22.4 0
v -17.6 -22.4 0
v -16 -24 0
v -17.6 -24 0
v -17.6 -22.4 0
v -16 -22.4 0
v -14.4 -24 0
v -16 -24 0
v -16 -22.4 0
v -14.4 -22.4 0
v -24 -25.6 0
v -25.6 -25.6 0
v -25.6 -24 0
v -24 -24 0
v -22.4 -25.6 0
v -24 -25.6 0
v -24 -24 0
v -22.4 -24 0
v -20.8 -25.6 0
v -22.4 -25.6 0
v -22.4 -24 0
v -20.8 -24 0
v -19.2 -25.6 0
v -20.8 -25.6 0
v -20.8 -24 0
v -19.2 -24 0
v -17.6 -25.6 0
v -19.2 -25.6 0
v -19.2 -24 0
v -17.6 -24 0
v -16 -25.6 0
v -17.6 -25.6 0
v -17.6 -24 0
v -16 -24 0

# Texture cooridinates (Count = 17)
vt 0.6666667 0.25
vt 1 0.25
vt 1 0.375
vt 0.6666667 0.375
vt 0.6666667 0.5
vt 1 0.5
vt 1 0.625
vt 0.6666667 0.625
vt 0.3333333 0.5
vt 0.3333333 0.625
vt 0.3333333 0.875
vt 0.6666667 0.875
vt 0.6666667 1
vt 0.3333333 1
vt 1 0.75
vt 0.6666667 0.75
vt 0.3333333 0.75

# Normal
vn 0 0 -1

# Mesh description
g asiatis_mesh_0057

# Faces
f 1/1/1 2/2/1 3/3/1 4/4/1
f 5/1/1 6/2/1 7/3/1 8/4/1
f 9/1/1 10/2/1 11/3/1 12/4/1
f 13/1/1 14/2/1 15/3/1 16/4/1
f 17/1/1 18/2/1 19/3/1 20/4/1
f 21/1/1 22/2/1 23/3/1 24/4/1
f 25/5/1 26/6/1 27/7/1 28/8/1
f 29/1/1 30/2/1 31/3/1 32/4/1
f 33/1/1 34/2/1 35/3/1 36/4/1
f 37/1/1 38/2/1 39/3/1 40/4/1
f 41/1/1 42/2/1 43/3/1 44/4/1
f 45/1/1 46/2/1 47/3/1 48/4/1
f 49/1/1 50/2/1 51/3/1 52/4/1
f 53/5/1 54/6/1 55/7/1 56/8/1
f 57/9/1 58/5/1 59/8/1 60/10/1
f 61/9/1 62/5/1 63/8/1 64/10/1
f 65/1/1 66/2/1 67/3/1 68/4/1
f 69/1/1 70/2/1 71/3/1 72/4/1
f 73/1/1 74/2/1 75/3/1 76/4/1
f 77/1/1 78/2/1 79/3/1 80/4/1
f 81/1/1 82/2/1 83/3/1 84/4/1
f 85/1/1 86/2/1 87/3/1 88/4/1
f 89/5/1 90/6/1 91/7/1 92/8/1
f 93/9/1 94/5/1 95/8/1 96/10/1
f 97/9/1 98/5/1 99/8/1 100/10/1
f 101/1/1 102/2/1 103/3/1 104/4/1
f 105/1/1 106/2/1 107/3/1 108/4/1
f 109/1/1 110/2/1 111/3/1 112/4/1
f 113/1/1 114/2/1 115/3/1 116/4/1
f 117/1/1 118/2/1 119/3/1 120/4/1
f 121/1/1 122/2/1 123/3/1 124/4/1
f 125/5/1 126/6/1 127/7/1 128/8/1
f 129/9/1 130/5/1 131/8/1 132/10/1
f 133/9/1 134/5/1 135/8/1 136/10/1
f 137/1/1 138/2/1 139/3/1 140/4/1
f 141/1/1 142/2/1 143/3/1 144/4/1
f 145/1/1 146/2/1 147/3/1 148/4/1
f 149/1/1 150/2/1 151/3/1 152/4/1
f 153/1/1 154/2/1 155/3/1 156/4/1
f 157/1/1 158/2/1 159/3/1 160/4/1
f 161/5/1 162/6/1 163/7/1 164/8/1
f 165/9/1 166/5/1 167/8/1 168/10/1
f 169/9/1 170/5/1 171/8/1 172/10/1
f 173/9/1 174/5/1 175/8/1 176/10/1
f 177/1/1 178/2/1 179/3/1 180/4/1
f 181/1/1 182/2/1 183/3/1 184/4/1
f 185/1/1 186/2/1 187/3/1 188/4/1
f 189/1/1 190/2/1 191/3/1 192/4/1
f 193/1/1 194/2/1 195/3/1 196/4/1
f 197/1/1 198/2/1 199/3/1 200/4/1
f 201/4/1 202/3/1 203/6/1 204/5/1
f 205/11/1 206/12/1 207/13/1 208/14/1
f 209/9/1 210/5/1 211/8/1 212/10/1
f 213/9/1 214/5/1 215/8/1 216/10/1
f 217/1/1 218/2/1 219/3/1 220/4/1
f 221/1/1 222/2/1 223/3/1 224/4/1
f 225/1/1 226/2/1 227/3/1 228/4/1
f 229/1/1 230/2/1 231/3/1 232/4/1
f 233/1/1 234/2/1 235/3/1 236/4/1
f 237/1/1 238/2/1 239/3/1 240/4/1
f 241/1/1 242/2/1 243/3/1 244/4/1
f 245/5/1 246/6/1 247/7/1 248/8/1
f 249/9/1 250/5/1 251/8/1 252/10/1
f 253/9/1 254/5/1 255/8/1 256/10/1
f 257/1/1 258/2/1 259/3/1 260/4/1
f 261/1/1 262/2/1 263/3/1 264/4/1
f 265/1/1 266/2/1 267/3/1 268/4/1
f 269/1/1 270/2/1 271/3/1 272/4/1
f 273/1/1 274/2/1 275/3/1 276/4/1
f 277/1/1 278/2/1 279/3/1 280/4/1
f 281/1/1 282/2/1 283/3/1 284/4/1
f 285/5/1 286/6/1 287/7/1 288/8/1
f 289/9/1 290/5/1 291/8/1 292/10/1
f 293/9/1 294/5/1 295/8/1 296/10/1
f 297/1/1 298/2/1 299/3/1 300/4/1
f 301/1/1 302/2/1 303/3/1 304/4/1
f 305/1/1 306/2/1 307/3/1 308/4/1
f 309/1/1 310/2/1 311/3/1 312/4/1
f 313/1/1 314/2/1 315/3/1 316/4/1
f 317/1/1 318/2/1 319/3/1 320/4/1
f 321/1/1 322/2/1 323/3/1 324/4/1
f 325/5/1 326/6/1 327/7/1 328/8/1
f 329/9/1 330/5/1 331/8/1 332/10/1
f 333/9/1 334/5/1 335/8/1 336/10/1
f 337/1/1 338/2/1 339/3/1 340/4/1
f 341/1/1 342/2/1 343/3/1 344/4/1
f 345/1/1 346/2/1 347/3/1 348/4/1
f 349/1/1 350/2/1 351/3/1 352/4/1
f 353/1/1 354/2/1 355/3/1 356/4/1
f 357/1/1 358/2/1 359/3/1 360/4/1
f 361/1/1 362/2/1 363/3/1 364/4/1
f 365/5/1 366/6/1 367/7/1 368/8/1
f 369/9/1 370/5/1 371/8/1 372/10/1
f 373/1/1 374/2/1 375/3/1 376/4/1
f 377/1/1 378/2/1 379/3/1 380/4/1
f 381/1/1 382/2/1 383/3/1 384/4/1
f 385/1/1 386/2/1 387/3/1 388/4/1
f 389/1/1 390/2/1 391/3/1 392/4/1
f 393/8/1 394/7/1 395/15/1 396/16/1
f 397/10/1 398/8/1 399/16/1 400/17/1
f 401/17/1 402/16/1 403/12/1 404/11/1
f 405/9/1 406/5/1 407/8/1 408/10/1
f 409/1/1 410/2/1 411/3/1 412/4/1
f 413/1/1 414/2/1 415/3/1 416/4/1
f 417/1/1 418/2/1 419/3/1 420/4/1
f 421/1/1 422/2/1 423/3/1 424/4/1
f 425/1/1 426/2/1 427/3/1 428/4/1
f 429/5/1 430/6/1 431/7/1 432/8/1
f 433/9/1 434/5/1 435/8/1 436/10/1
f 437/9/1 438/5/1 439/8/1 440/10/1
f 441/1/1 442/2/1 443/3/1 444/4/1
f 445/1/1 446/2/1 447/3/1 448/4/1
f 449/1/1 450/2/1 451/3/1 452/4/1
f 453/1/1 454/2/1 455/3/1 456/4/1
f 457/1/1 458/2/1 459/3/1 460/4/1
f 461/5/1 462/6/1 463/7/1 464/8/1
f 465/9/1 466/5/1 467/8/1 468/10/1
f 469/1/1 470/2/1 471/3/1 472/4/1
f 473/1/1 474/2/1 475/3/1 476/4/1
f 477/1/1 478/2/1 479/3/1 480/4/1
f 481/1/1 482/2/1 483/3/1 484/4/1
f 485/1/1 486/2/1 487/3/1 488/4/1
f 489/5/1 490/6/1 491/7/1 492/8/1
f 493/9/1 494/5/1 495/8/1 496/10/1
f 497/1/1 498/2/1 499/3/1 500/4/1
f 501/1/1 502/2/1 503/3/1 504/4/1
f 505/1/1 506/2/1 507/3/1 508/4/1
f 509/1/1 510/2/1 511/3/1 512/4/1
f 513/8/1 514/7/1 515/15/1 516/16/1
f 517/17/1 518/16/1 519/12/1 520/11/1
f 521/9/1 522/5/1 523/8/1 524/10/1
f 525/1/1 526/2/1 527/3/1 528/4/1
f 529/1/1 530/2/1 531/3/1 532/4/1
f 533/1/1 534/2/1 535/3/1 536/4/1
f 537/1/1 538/2/1 539/3/1 540/4/1
f 541/5/1 542/6/1 543/7/1 544/8/1
f 545/9/1 546/5/1 547/8/1 548/10/1

